<svg width="2027" height="1282" xmlns="http://www.w3.org/2000/svg" xmlns:xlink="http://www.w3.org/1999/xlink" xml:space="preserve" overflow="hidden"><defs><clipPath id="clip0"><rect x="9975" y="216" width="2027" height="1282"/></clipPath><clipPath id="clip1"><rect x="10199" y="429" width="1669" height="855"/></clipPath><clipPath id="clip2"><rect x="10199" y="429" width="1669" height="855"/></clipPath><clipPath id="clip3"><rect x="10199" y="429" width="1669" height="855"/></clipPath><clipPath id="clip4"><rect x="10199" y="429" width="1669" height="855"/></clipPath><clipPath id="clip5"><rect x="10199" y="429" width="1669" height="855"/></clipPath></defs><g clip-path="url(#clip0)" transform="translate(-9975 -216)"><rect x="9975" y="216" width="2027" height="1282" fill="#FFFFFF"/><g><path d="M10199.5 1113.54 11868.5 1113.54M10199.5 942.531 11868.5 942.531M10199.5 771.526 11868.5 771.526M10199.5 600.52 11868.5 600.52M10199.5 429.5 11868.5 429.5" stroke="#D9D9D9" stroke-width="3.4375" stroke-linejoin="round" stroke-miterlimit="10" fill="none"/></g><g><path d="M10616.8 429.5 10616.8 1284.5M11033.9 429.5 11033.9 1284.5M11450.9 429.5 11450.9 1284.5M11868.5 429.5 11868.5 1284.5" stroke="#D9D9D9" stroke-width="3.4375" stroke-linejoin="round" stroke-miterlimit="10" fill="none"/></g><g><rect x="10199.5" y="429.5" width="1669" height="855" stroke="#000000" stroke-width="3.4375" stroke-linejoin="round" stroke-miterlimit="10" fill="none"/></g><g><path d="M10199.5 429.5 11868.5 429.5" stroke="#000000" stroke-width="3.4375" stroke-linejoin="round" stroke-miterlimit="10" fill="none" fill-rule="evenodd"/></g><g><path d="M10199.5 415.5 10199.5 429.5M10435.8 415.5 10435.8 429.5M10672.9 415.5 10672.9 429.5M10909.9 415.5 10909.9 429.5M11145.9 415.5 11145.9 429.5M11382.9 415.5 11382.9 429.5M11619.9 415.5 11619.9 429.5M11856.5 415.5 11856.5 429.5" stroke="#000000" stroke-width="3.4375" stroke-linejoin="round" stroke-miterlimit="10" fill="none"/></g><g><path d="M0 0 0.000360892 855" stroke="#000000" stroke-width="3.4375" stroke-linejoin="round" stroke-miterlimit="10" fill="none" fill-rule="evenodd" transform="matrix(1 0 0 -1 10199.5 1284.5)"/></g><g><path d="M10199.5 1284.5 11868.5 1284.5" stroke="#000000" stroke-width="3.4375" stroke-linejoin="round" stroke-miterlimit="10" fill="none" fill-rule="evenodd"/></g><g clip-path="url(#clip1)"><path d="M10199.5 1286.5 10207.8 1280.54 10216.8 1275.54 10224.8 1269.54 10233.8 1264.54 10242.8 1258.54 10250.8 1253.54 10259.8 1247.54 10267.8 1241.54 10276.8 1236.54 10285.8 1230.54 10293.8 1225.54 10302.8 1219.54 10310.8 1214.54 10319.8 1209.54 10328.8 1203.54 10336.8 1198.54 10345.8 1192.54 10354.8 1187.54 10362.8 1181.54 10371.8 1176.54 10379.8 1170.54 10388.8 1165.54 10397.8 1160.54 10405.8 1154.54 10414.8 1149.54 10422.8 1144.54 10431.8 1138.54 10440.8 1133.54 10448.8 1128.54 10457.8 1123.54 10465.8 1117.54 10474.8 1112.54 10483.8 1107.54 10491.8 1102.54 10500.8 1097.54 10508.8 1091.54 10517.8 1086.54 10526.8 1081.54 10534.8 1076.54 10543.8 1071.54 10551.8 1066.54 10560.8 1061.54 10569.8 1056.53 10577.8 1051.53 10586.8 1046.53 10594.8 1041.53 10603.8 1037.53 10612.8 1032.53 10620.8 1027.53 10629.8 1022.53 10637.8 1017.53 10646.8 1013.53 10655.8 1008.53 10663.9 1003.53 10672.9 999.533 10680.9 994.533 10689.9 989.533 10698.9 985.532 10706.9 980.532 10715.9 976.532 10723.9 971.532 10732.9 967.532 10741.9 962.532 10749.9 958.532 10758.9 953.531 10766.9 949.531 10775.9 945.531 10784.9 940.531 10792.9 936.531 10801.9 932.531 10809.9 928.531 10818.9 923.53 10827.9 919.53 10835.9 915.53 10844.9 911.53 10852.9 907.53 10861.9 903.53 10870.9 899.53 10878.9 895.53 10887.9 891.529 10895.9 887.529 10904.9 883.529 10913.9 879.529 10921.9 875.529 10930.9 871.529 10939.9 867.529 10947.9 863.529 10956.9 860.528 10964.9 856.528 10973.9 852.528 10982.9 848.528 10990.9 845.528 10999.9 841.528 11007.9 837.528 11016.9 834.528 11025.9 830.527 11033.9 827.527 11042.9 823.527 11050.9 819.527 11059.9 816.527 11068.9 812.527 11076.9 809.527 11085.9 805.527 11093.9 802.526 11102.9 798.526 11111.9 795.526 11119.9 792.526 11128.9 788.526 11136.9 785.526 11145.9 781.526 11154.9 778.526 11162.9 775.526 11171.9 772.526 11179.9 768.525 11188.9 765.525 11197.9 762.525 11205.9 758.525 11214.9 755.525 11222.9 752.525 11231.9 749.525 11240.9 746.525 11248.9 742.525 11257.9 739.524 11265.9 736.524 11274.9 733.524 11283.9 730.524 11291.9 727.524 11300.9 724.524 11308.9 721.524 11317.9 717.524 11326.9 714.524 11334.9 711.523 11343.9 708.523 11351.9 705.523 11360.9 702.523 11369.9 699.523 11377.9 696.523 11386.9 693.523 11394.9 690.523 11403.9 687.523 11412.9 684.523 11420.9 681.523 11429.9 678.522 11437.9 675.522 11446.9 672.522 11455.9 669.522 11463.9 666.522 11472.9 663.522 11481.9 660.522 11489.9 657.522 11498.9 654.522 11506.9 652.522 11515.9 649.521 11524.9 646.521 11532.9 643.521 11541.9 640.521 11549.9 637.521 11558.9 634.521 11567.9 631.521 11575.9 628.521 11584.9 625.521 11592.9 622.521 11601.9 619.521 11610.9 616.52 11618.9 614.52 11627.9 611.52 11635.9 608.52 11644.9 605.52 11653.9 602.52 11661.9 599.52 11670.9 596.52 11678.9 593.52 11687.9 590.52 11696.9 587.519 11704.9 584.519 11713.9 581.519 11721.9 578.519 11730.9 575.519 11739.9 573.519 11747.9 570.519 11756.9 567.519 11764.9 564.519 11773.9 561.519 11782.9 558.518 11790.9 555.518 11799.9 552.518 11807.9 549.518 11816.9 546.518 11825.9 543.518 11833.9 540.518 11842.9 537.518 11850.9 534.518 11859.9 531.518 11868.9 528.518 11876.9 525.517 11885.9 522.517 11893.9 519.517 11902.9 516.517 11911.9 513.517 11919.9 510.517 11928.9 507.517 11936.9 504.517 11945.9 501.517 11954.9 498.517 11962.9 495.516 11971.9 492.516 11979.9 489.516 11988.9 486.516 11997.9 483.516 12005.9 480.516 12014.9 476.516 12023.9 473.516 12031.9 470.516 12040.9 467.516 12048.9 464.515 12057.9 461.515 12066.9 458.515 12074.9 455.515 12083.9 452.515 12091.9 449.515 12100.9 446.515 12109.9 442.515 12117.9 439.515 12126.9 436.514 12134.9 433.514 12143.9 430.514 12152.9 427.514 12160.9 424.514 12169.9 421.514 12177.9 418.514 12186.9 414.514 12195.9 411.514 12203.9 408.514 12212.9 405.513 12220.9 402.513 12229.9 399.513 12238.9 396.513 12246.9 392.513 12255.9 389.513 12263.9 386.513 12272.9 383.513 12281.9 380.513 12289.9 377.513 12298.9 374.512 12306.9 370.512 12315.9 367.512 12324.9 364.512 12332.9 361.512 12341.9 358.512 12349.9 355.512 12358.9 352.512 12367.9 349.512 12375.9 345.512 12384.9 342.511 12392.9 339.511 12401.9 336.511 12410.9 333.511 12418.9 330.511 12427.9 327.511 12435.9 324.511 12444.9 321.511 12453.9 318.511 12461.9 314.51 12470.9 311.51 12478.9 308.51 12487.9 305.51 12496.9 302.51 12504.9 299.51 12513.9 296.51 12521.9 293.51 12530.9 290.51 12539.9 287.51 12547.9 284.51 12556.9 281.509 12565.9 278.509 12573.9 275.509 12582.9 272.509 12590.9 269.509 12599.9 267.509 12608.9 264.509 12616.9 261.509 12625.9 258.509 12633.9 255.509 12642.9 252.508 12651.9 249.508 12659.9 247.508 12668.9 244.508 12676.9 241.508 12685.9 238.508 12694.9 235.508 12702.9 233.508 12711.9 230.508 12719.9 227.508 12728.9 225.508 12737.9 222.507 12745.9 219.507 12754.9 217.507 12762.9 214.507 12771.9 211.507 12780.9 209.507 12788.9 206.507 12797.9 204.507 12805.9 201.507 12814.9 199.507 12823.9 196.507 12831.9 194.507 12840.9 192.507 12848.9 189.506 12857.9 187.506 12866.9 184.506 12874.9 182.506 12883.9 180.506 12891.9 178.506 12900.9 175.506 12909.9 173.506 12917.9 171.506 12926.9 169.506 12934.9 167.506 12943.9 165.506 12952.9 162.506 12960.9 160.505 12969.9 158.505 12977.9 156.505 12986.9 154.505 12995.9 152.505 13003.9 151.505 13012.9 149.505 13020.9 147.505 13029.9 145.505 13038.9 143.505 13046.9 141.505 13055.9 140.505 13063.9 138.505 13072.9 136.505 13081.9 135.505 13089.9 133.505 13098.9 132.505 13107.9 130.504 13115.9 129.504 13124.9 127.504 13132.9 126.504 13141.9 124.504 13150.9 123.504 13158.9 122.504 13167.9 120.504 13175.9 119.504 13184.9 118.504 13193.9 117.504 13201.9 115.504 13210.9 114.504 13218.9 113.504 13227.9 112.504 13236.9 111.504 13244.9 110.504 13253.9 109.504 13261.9 108.504 13270.9 107.504 13279.9 107.504 13287.9 106.504 13296.9 105.504 13304.9 104.504 13313.9 104.504 13322.9 103.504 13330.9 102.504 13339.9 102.504 13347.9 101.504 13356.9 101.504 13365.9 100.503 13373.9 100.503 13382.9 99.5034 13390.9 99.5034 13399.9 98.5034 13408.9 98.5034 13416.9 98.5034 13425.9 97.5034 13433.9 97.5034 13442.9 97.5034 13451.9 97.5034 13459.9 97.5034 13468.9 96.5033 13476.9 96.5033 13485.9 96.5033 13494.9 96.5033 13502.9 96.5033 13511.9 96.5033 13519.9 96.5033 13528.9 96.5033 13537.9 96.5033 13545.9 97.5034 13554.9 97.5034 13562.9 97.5034 13571.9 97.5034 13580.9 97.5034 13588.9 98.5034 13597.9 98.5034 13605.9 98.5034 13614.9 98.5034 13623.9 99.5034 13631.9 99.5034 13640.9 99.5034 13649.9 100.503 13657.9 100.503 13666.9 101.504 13674.9 101.504 13683.9 102.504 13692.9 102.504 13700.9 102.504 13710 103.504 13718 103.504 13727 104.504 13736 104.504 13744 105.504 13753 105.504 13761 106.504 13770 106.504 13779 107.504 13787 107.504 13796 108.504 13804 108.504 13813 109.504 13822 109.504 13830 110.504 13839 110.504 13847 111.504 13856 111.504 13865 111.504 13873 112.504 13882 112.504 13890 113.504 13899 113.504 13908 113.504 13916 113.504 13925 114.504 13933 114.504 13942 114.504 13951 114.504 13959 114.504 13968 114.504 13976 114.504 13985 114.504 13994 114.504 14002 114.504 14011 114.504 14019 114.504 14028 114.504 14037 113.504 14045 113.504 14054 113.504 14062 112.504 14071 111.504 14080 111.504 14088 110.504 14097 109.504 14105 108.504 14114 107.504 14123 106.504 14131 105.504 14140 104.504 14148 103.504 14157 101.504 14166 100.503 14174 98.5034 14183 96.5033 14192 95.5033 14200 93.5033 14209 91.5032 14217 88.5031 14226 86.503 14235 84.503 14243 81.5029 14252 78.5028 14260 75.5027 14269 72.5026 14278 69.5025 14286 66.5024 14295 62.5022 14303 59.5021 14312 55.502 14321 51.5019 14329 47.5017 14338 43.5016 14346 38.5014 14355 34.5013 14364 29.5011 14372.5 24.4999" stroke="#000000" stroke-width="6.875" stroke-linecap="round" stroke-linejoin="round" stroke-miterlimit="10" fill="none"/></g><g clip-path="url(#clip2)"><path d="M10199.5 1241.5 10202.8 1238.54 10206.8 1235.54 10209.8 1232.54 10212.8 1229.54 10216.8 1226.54 10219.8 1223.54 10223.8 1221.54 10226.8 1218.54 10230.8 1215.54 10233.8 1212.54 10236.8 1209.54 10240.8 1206.54 10243.8 1203.54 10247.8 1200.54 10250.8 1197.54 10254.8 1194.54 10257.8 1191.54 10261.8 1188.54 10264.8 1186.54 10267.8 1183.54 10271.8 1180.54 10274.8 1177.54 10278.8 1174.54 10281.8 1171.54 10285.8 1168.54 10288.8 1166.54 10292.8 1163.54 10295.8 1160.54 10298.8 1157.54 10302.8 1154.54 10305.8 1152.54 10309.8 1149.54 10312.8 1146.54 10316.8 1143.54 10319.8 1140.54 10323.8 1138.54 10326.8 1135.54 10329.8 1132.54 10333.8 1129.54 10336.8 1126.54 10340.8 1124.54 10343.8 1121.54 10347.8 1118.54 10350.8 1115.54 10354.8 1113.54 10357.8 1110.54 10360.8 1107.54 10364.8 1105.54 10367.8 1102.54 10371.8 1099.54 10374.8 1096.54 10378.8 1094.54 10381.8 1091.54 10384.8 1088.54 10388.8 1086.54 10391.8 1083.54 10395.8 1080.54 10398.8 1078.54 10402.8 1075.54 10405.8 1072.54 10409.8 1070.54 10412.8 1067.54 10415.8 1065.54 10419.8 1062.54 10422.8 1059.53 10426.8 1057.53 10429.8 1054.53 10433.8 1052.53 10436.8 1049.53 10440.8 1046.53 10443.8 1044.53 10446.8 1041.53 10450.8 1039.53 10453.8 1036.53 10457.8 1033.53 10460.8 1031.53 10464.8 1028.53 10467.8 1026.53 10471.8 1023.53 10474.8 1021.53 10477.8 1018.53 10481.8 1016.53 10484.8 1013.53 10488.8 1011.53 10491.8 1008.53 10495.8 1006.53 10498.8 1003.53 10501.8 1001.53 10505.8 998.533 10508.8 996.533 10512.8 993.533 10515.8 991.533 10519.8 988.533 10522.8 986.533 10526.8 983.532 10529.8 981.532 10532.8 979.532 10536.8 976.532 10539.8 974.532 10543.8 971.532 10546.8 969.532 10550.8 966.532 10553.8 964.532 10557.8 962.532 10560.8 959.532 10563.8 957.532 10567.8 955.531 10570.8 952.531 10574.8 950.531 10577.8 947.531 10581.8 945.531 10584.8 943.531 10588.8 940.531 10591.8 938.531 10594.8 936.531 10598.8 933.531 10601.8 931.531 10605.8 929.531 10608.8 926.531 10612.8 924.531 10615.8 922.53 10618.8 920.53 10622.8 917.53 10625.8 915.53 10629.8 913.53 10632.8 910.53 10636.8 908.53 10639.8 906.53 10643.8 904.53 10646.8 901.53 10649.8 899.53 10653.8 897.53 10656.8 895.53 10660.8 892.529 10663.9 890.529 10667.9 888.529 10670.9 886.529 10674.9 884.529 10677.9 881.529 10680.9 879.529 10684.9 877.529 10687.9 875.529 10691.9 873.529 10694.9 871.529 10698.9 868.529 10701.9 866.529 10705.9 864.529 10708.9 862.528 10711.9 860.528 10715.9 858.528 10718.9 855.528 10722.9 853.528 10725.9 851.528 10729.9 849.528 10732.9 847.528 10735.9 845.528 10739.9 843.528 10742.9 841.528 10746.9 839.528 10749.9 837.528 10753.9 835.528 10756.9 832.527 10760.9 830.527 10763.9 828.527 10766.9 826.527 10770.9 824.527 10773.9 822.527 10777.9 820.527 10780.9 818.527 10784.9 816.527 10787.9 814.527 10791.9 812.527 10794.9 810.527 10797.9 808.527 10801.9 806.527 10804.9 804.527 10808.9 802.526 10811.9 800.526 10815.9 798.526 10818.9 796.526 10822.9 794.526 10825.9 792.526 10828.9 790.526 10832.9 788.526 10835.9 787.526 10839.9 785.526 10842.9 783.526 10846.9 781.526 10849.9 779.526 10852.9 777.526 10856.9 775.526 10859.9 773.526 10863.9 771.526 10866.9 769.525 10870.9 767.525 10873.9 766.525 10877.9 764.525 10880.9 762.525 10883.9 760.525 10887.9 758.525 10890.9 756.525 10894.9 754.525 10897.9 753.525 10901.9 751.525 10904.9 749.525 10908.9 747.525 10911.9 745.525 10914.9 744.525 10918.9 742.525 10921.9 740.524 10925.9 738.524 10928.9 736.524 10932.9 735.524 10935.9 733.524 10939.9 731.524 10942.9 729.524 10945.9 728.524 10949.9 726.524 10952.9 724.524 10956.9 722.524 10959.9 721.524 10963.9 719.524 10966.9 717.524 10969.9 715.524 10973.9 714.524 10976.9 712.524 10980.9 710.523 10983.9 709.523 10987.9 707.523 10990.9 705.523 10994.9 704.523 10997.9 702.523 11000.9 700.523 11004.9 699.523 11007.9 697.523 11011.9 695.523 11014.9 694.523 11018.9 692.523 11021.9 690.523 11025.9 689.523 11028.9 687.523 11031.9 686.523 11035.9 684.523 11038.9 682.523 11042.9 681.523 11045.9 679.522 11049.9 678.522 11052.9 676.522 11056.9 674.522 11059.9 673.522 11062.9 671.522 11066.9 670.522 11069.9 668.522 11073.9 667.522 11076.9 665.522 11080.9 664.522 11083.9 662.522 11086.9 661.522 11090.9 659.522 11093.9 658.522 11097.9 656.522 11100.9 655.522 11104.9 653.522 11107.9 652.522 11111.9 650.522 11114.9 649.521 11117.9 647.521 11121.9 646.521 11124.9 644.521 11128.9 643.521 11131.9 641.521 11135.9 640.521 11138.9 638.521 11142.9 637.521 11145.9 636.521 11148.9 634.521 11152.9 633.521 11155.9 631.521 11159.9 630.521 11162.9 629.521 11166.9 627.521 11169.9 626.521 11173.9 624.521 11176.9 623.521 11179.9 622.521 11183.9 620.521 11186.9 619.521 11190.9 618.521 11193.9 616.52 11197.9 615.52 11200.9 614.52 11203.9 612.52 11207.9 611.52 11210.9 610.52 11214.9 608.52 11217.9 607.52 11221.9 606.52 11224.9 604.52 11228.9 603.52 11231.9 602.52 11234.9 601.52 11238.9 599.52 11241.9 598.52 11245.9 597.52 11248.9 596.52 11252.9 594.52 11255.9 593.52 11259.9 592.52 11262.9 591.52 11265.9 589.52 11269.9 588.519 11272.9 587.519 11276.9 586.519 11279.9 585.519 11283.9 583.519 11286.9 582.519 11290.9 581.519 11293.9 580.519 11296.9 579.519 11300.9 577.519 11303.9 576.519 11307.9 575.519 11310.9 574.519 11314.9 573.519 11317.9 572.519 11320.9 571.519 11324.9 569.519 11327.9 568.519 11331.9 567.519 11334.9 566.519 11338.9 565.519 11341.9 564.519 11345.9 563.519 11348.9 562.519 11351.9 561.519 11355.9 560.519 11358.9 559.519 11362.9 557.518 11365.9 556.518 11369.9 555.518 11372.9 554.518 11376.9 553.518 11379.9 552.518 11382.9 551.518 11386.9 550.518 11389.9 549.518 11393.9 548.518 11396.9 547.518 11400.9 546.518 11403.9 545.518 11407.9 544.518 11410.9 543.518 11413.9 542.518 11417.9 541.518 11420.9 540.518 11424.9 539.518 11427.9 538.518 11431.9 537.518 11434.9 536.518 11438.9 535.518 11441.9 535.518 11444.9 534.518 11448.9 533.518 11451.9 532.518 11455.9 531.518 11458.9 530.518 11462.9 529.518 11465.9 528.518 11468.9 527.518 11472.9 526.517 11475.9 525.517 11479.9 525.517 11482.9 524.517 11486.9 523.517 11489.9 522.517 11493.9 521.517 11496.9 520.517 11499.9 519.517 11503.9 519.517 11506.9 518.517 11510.9 517.517 11513.9 516.517 11517.9 515.517 11520.9 515.517 11524.9 514.517 11527.9 513.517 11530.9 512.517 11534.9 511.517 11537.9 511.517 11541.9 510.517 11544.9 509.517 11548.9 508.517 11551.9 508.517 11555.9 507.517 11558.9 506.517 11561.9 505.517 11565.9 505.517 11568.9 504.517 11572.9 503.517 11575.9 503.517 11579.9 502.517 11582.9 501.517 11585.9 500.517 11589.9 500.517 11592.9 499.517 11596.9 498.517 11599.9 498.517 11603.9 497.517 11606.9 496.516 11610.9 496.516 11613.9 495.516 11616.9 494.516 11620.9 494.516 11623.9 493.516 11627.9 493.516 11630.9 492.516 11634.9 491.516 11637.9 491.516 11641.9 490.516 11644.9 489.516 11647.9 489.516 11651.9 488.516 11654.9 488.516 11658.9 487.516 11661.9 487.516 11665.9 486.516 11668.9 485.516 11672.9 485.516 11675.9 484.516 11678.9 484.516 11682.9 483.516 11685.9 483.516 11689.9 482.516 11692.9 482.516 11696.9 481.516 11699.9 481.516 11702.9 480.516 11706.9 480.516 11709.9 479.516 11713.9 479.516 11716.9 478.516 11720.9 478.516 11723.9 477.516 11727.9 477.516 11730.9 476.516 11733.9 476.516 11737.9 475.516 11740.9 475.516 11744.9 475.516 11747.9 474.516 11751.9 474.516 11754.9 473.516 11758.9 473.516 11761.9 472.516 11764.9 472.516 11768.9 472.516 11771.9 471.516 11775.9 471.516 11778.9 471.516 11782.9 470.516 11785.9 470.516 11789.9 469.516 11792.9 469.516 11795.9 469.516 11799.9 468.516 11802.9 468.516 11806.9 468.516 11809.9 467.516 11813.9 467.516 11816.9 467.516 11819.9 466.516 11823.9 466.516 11826.9 466.516 11830.9 466.516 11833.9 465.515 11837.9 465.515 11840.9 465.515 11844.9 464.515 11847.9 464.515 11850.9 464.515 11854.9 464.515 11857.9 463.515 11861.9 463.515 11864.9 463.515 11868.5 463.5" stroke="#0070C0" stroke-width="6.875" stroke-linecap="round" stroke-linejoin="round" stroke-miterlimit="10" fill="none"/></g><g clip-path="url(#clip3)"><path d="M10199.5 1280.5 10202.8 1279.54 10206.8 1279.54 10209.8 1278.54 10212.8 1278.54 10216.8 1277.54 10219.8 1277.54 10223.8 1276.54 10226.8 1276.54 10230.8 1276.54 10233.8 1275.54 10236.8 1275.54 10240.8 1274.54 10243.8 1274.54 10247.8 1273.54 10250.8 1273.54 10254.8 1272.54 10257.8 1272.54 10261.8 1272.54 10264.8 1271.54 10267.8 1271.54 10271.8 1270.54 10274.8 1270.54 10278.8 1269.54 10281.8 1269.54 10285.8 1268.54 10288.8 1268.54 10292.8 1268.54 10295.8 1267.54 10298.8 1267.54 10302.8 1266.54 10305.8 1266.54 10309.8 1265.54 10312.8 1265.54 10316.8 1265.54 10319.8 1264.54 10323.8 1264.54 10326.8 1263.54 10329.8 1263.54 10333.8 1262.54 10336.8 1262.54 10340.8 1262.54 10343.8 1261.54 10347.8 1261.54 10350.8 1260.54 10354.8 1260.54 10357.8 1259.54 10360.8 1259.54 10364.8 1259.54 10367.8 1258.54 10371.8 1258.54 10374.8 1257.54 10378.8 1257.54 10381.8 1256.54 10384.8 1256.54 10388.8 1256.54 10391.8 1255.54 10395.8 1255.54 10398.8 1254.54 10402.8 1254.54 10405.8 1254.54 10409.8 1253.54 10412.8 1253.54 10415.8 1252.54 10419.8 1252.54 10422.8 1251.54 10426.8 1251.54 10429.8 1251.54 10433.8 1250.54 10436.8 1250.54 10440.8 1249.54 10443.8 1249.54 10446.8 1249.54 10450.8 1248.54 10453.8 1248.54 10457.8 1247.54 10460.8 1247.54 10464.8 1247.54 10467.8 1246.54 10471.8 1246.54 10474.8 1245.54 10477.8 1245.54 10481.8 1245.54 10484.8 1244.54 10488.8 1244.54 10491.8 1243.54 10495.8 1243.54 10498.8 1243.54 10501.8 1242.54 10505.8 1242.54 10508.8 1241.54 10512.8 1241.54 10515.8 1241.54 10519.8 1240.54 10522.8 1240.54 10526.8 1239.54 10529.8 1239.54 10532.8 1239.54 10536.8 1238.54 10539.8 1238.54 10543.8 1237.54 10546.8 1237.54 10550.8 1237.54 10553.8 1236.54 10557.8 1236.54 10560.8 1235.54 10563.8 1235.54 10567.8 1235.54 10570.8 1234.54 10574.8 1234.54 10577.8 1234.54 10581.8 1233.54 10584.8 1233.54 10588.8 1232.54 10591.8 1232.54 10594.8 1232.54 10598.8 1231.54 10601.8 1231.54 10605.8 1230.54 10608.8 1230.54 10612.8 1230.54 10615.8 1229.54 10618.8 1229.54 10622.8 1229.54 10625.8 1228.54 10629.8 1228.54 10632.8 1227.54 10636.8 1227.54 10639.8 1227.54 10643.8 1226.54 10646.8 1226.54 10649.8 1226.54 10653.8 1225.54 10656.8 1225.54 10660.8 1224.54 10663.9 1224.54 10667.9 1224.54 10670.9 1223.54 10674.9 1223.54 10677.9 1223.54 10680.9 1222.54 10684.9 1222.54 10687.9 1222.54 10691.9 1221.54 10694.9 1221.54 10698.9 1220.54 10701.9 1220.54 10705.9 1220.54 10708.9 1219.54 10711.9 1219.54 10715.9 1219.54 10718.9 1218.54 10722.9 1218.54 10725.9 1218.54 10729.9 1217.54 10732.9 1217.54 10735.9 1216.54 10739.9 1216.54 10742.9 1216.54 10746.9 1215.54 10749.9 1215.54 10753.9 1215.54 10756.9 1214.54 10760.9 1214.54 10763.9 1214.54 10766.9 1213.54 10770.9 1213.54 10773.9 1213.54 10777.9 1212.54 10780.9 1212.54 10784.9 1212.54 10787.9 1211.54 10791.9 1211.54 10794.9 1211.54 10797.9 1210.54 10801.9 1210.54 10804.9 1209.54 10808.9 1209.54 10811.9 1209.54 10815.9 1208.54 10818.9 1208.54 10822.9 1208.54 10825.9 1207.54 10828.9 1207.54 10832.9 1207.54 10835.9 1206.54 10839.9 1206.54 10842.9 1206.54 10846.9 1205.54 10849.9 1205.54 10852.9 1205.54 10856.9 1204.54 10859.9 1204.54 10863.9 1204.54 10866.9 1203.54 10870.9 1203.54 10873.9 1203.54 10877.9 1202.54 10880.9 1202.54 10883.9 1202.54 10887.9 1201.54 10890.9 1201.54 10894.9 1201.54 10897.9 1200.54 10901.9 1200.54 10904.9 1200.54 10908.9 1199.54 10911.9 1199.54 10914.9 1199.54 10918.9 1198.54 10921.9 1198.54 10925.9 1198.54 10928.9 1197.54 10932.9 1197.54 10935.9 1197.54 10939.9 1197.54 10942.9 1196.54 10945.9 1196.54 10949.9 1196.54 10952.9 1195.54 10956.9 1195.54 10959.9 1195.54 10963.9 1194.54 10966.9 1194.54 10969.9 1194.54 10973.9 1193.54 10976.9 1193.54 10980.9 1193.54 10983.9 1192.54 10987.9 1192.54 10990.9 1192.54 10994.9 1191.54 10997.9 1191.54 11000.9 1191.54 11004.9 1191.54 11007.9 1190.54 11011.9 1190.54 11014.9 1190.54 11018.9 1189.54 11021.9 1189.54 11025.9 1189.54 11028.9 1188.54 11031.9 1188.54 11035.9 1188.54 11038.9 1187.54 11042.9 1187.54 11045.9 1187.54 11049.9 1187.54 11052.9 1186.54 11056.9 1186.54 11059.9 1186.54 11062.9 1185.54 11066.9 1185.54 11069.9 1185.54 11073.9 1184.54 11076.9 1184.54 11080.9 1184.54 11083.9 1184.54 11086.9 1183.54 11090.9 1183.54 11093.9 1183.54 11097.9 1182.54 11100.9 1182.54 11104.9 1182.54 11107.9 1182.54 11111.9 1181.54 11114.9 1181.54 11117.9 1181.54 11121.9 1180.54 11124.9 1180.54 11128.9 1180.54 11131.9 1180.54 11135.9 1179.54 11138.9 1179.54 11142.9 1179.54 11145.9 1178.54 11148.9 1178.54 11152.9 1178.54 11155.9 1178.54 11159.9 1177.54 11162.9 1177.54 11166.9 1177.54 11169.9 1176.54 11173.9 1176.54 11176.9 1176.54 11179.9 1176.54 11183.9 1175.54 11186.9 1175.54 11190.9 1175.54 11193.9 1174.54 11197.9 1174.54 11200.9 1174.54 11203.9 1174.54 11207.9 1173.54 11210.9 1173.54 11214.9 1173.54 11217.9 1173.54 11221.9 1172.54 11224.9 1172.54 11228.9 1172.54 11231.9 1171.54 11234.9 1171.54 11238.9 1171.54 11241.9 1171.54 11245.9 1170.54 11248.9 1170.54 11252.9 1170.54 11255.9 1170.54 11259.9 1169.54 11262.9 1169.54 11265.9 1169.54 11269.9 1169.54 11272.9 1168.54 11276.9 1168.54 11279.9 1168.54 11283.9 1168.54 11286.9 1167.54 11290.9 1167.54 11293.9 1167.54 11296.9 1166.54 11300.9 1166.54 11303.9 1166.54 11307.9 1166.54 11310.9 1165.54 11314.9 1165.54 11317.9 1165.54 11320.9 1165.54 11324.9 1164.54 11327.9 1164.54 11331.9 1164.54 11334.9 1164.54 11338.9 1163.54 11341.9 1163.54 11345.9 1163.54 11348.9 1163.54 11351.9 1162.54 11355.9 1162.54 11358.9 1162.54 11362.9 1162.54 11365.9 1161.54 11369.9 1161.54 11372.9 1161.54 11376.9 1161.54 11379.9 1160.54 11382.9 1160.54 11386.9 1160.54 11389.9 1160.54 11393.9 1160.54 11396.9 1159.54 11400.9 1159.54 11403.9 1159.54 11407.9 1159.54 11410.9 1158.54 11413.9 1158.54 11417.9 1158.54 11420.9 1158.54 11424.9 1157.54 11427.9 1157.54 11431.9 1157.54 11434.9 1157.54 11438.9 1156.54 11441.9 1156.54 11444.9 1156.54 11448.9 1156.54 11451.9 1156.54 11455.9 1155.54 11458.9 1155.54 11462.9 1155.54 11465.9 1155.54 11468.9 1154.54 11472.9 1154.54 11475.9 1154.54 11479.9 1154.54 11482.9 1153.54 11486.9 1153.54 11489.9 1153.54 11493.9 1153.54 11496.9 1153.54 11499.9 1152.54 11503.9 1152.54 11506.9 1152.54 11510.9 1152.54 11513.9 1152.54 11517.9 1151.54 11520.9 1151.54 11524.9 1151.54 11527.9 1151.54 11530.9 1150.54 11534.9 1150.54 11537.9 1150.54 11541.9 1150.54 11544.9 1150.54 11548.9 1149.54 11551.9 1149.54 11555.9 1149.54 11558.9 1149.54 11561.9 1149.54 11565.9 1148.54 11568.9 1148.54 11572.9 1148.54 11575.9 1148.54 11579.9 1147.54 11582.9 1147.54 11585.9 1147.54 11589.9 1147.54 11592.9 1147.54 11596.9 1146.54 11599.9 1146.54 11603.9 1146.54 11606.9 1146.54 11610.9 1146.54 11613.9 1145.54 11616.9 1145.54 11620.9 1145.54 11623.9 1145.54 11627.9 1145.54 11630.9 1144.54 11634.9 1144.54 11637.9 1144.54 11641.9 1144.54 11644.9 1144.54 11647.9 1143.54 11651.9 1143.54 11654.9 1143.54 11658.9 1143.54 11661.9 1143.54 11665.9 1142.54 11668.9 1142.54 11672.9 1142.54 11675.9 1142.54 11678.9 1142.54 11682.9 1142.54 11685.9 1141.54 11689.9 1141.54 11692.9 1141.54 11696.9 1141.54 11699.9 1141.54 11702.9 1140.54 11706.9 1140.54 11709.9 1140.54 11713.9 1140.54 11716.9 1140.54 11720.9 1139.54 11723.9 1139.54 11727.9 1139.54 11730.9 1139.54 11733.9 1139.54 11737.9 1139.54 11740.9 1138.54 11744.9 1138.54 11747.9 1138.54 11751.9 1138.54 11754.9 1138.54 11758.9 1138.54 11761.9 1137.54 11764.9 1137.54 11768.9 1137.54 11771.9 1137.54 11775.9 1137.54 11778.9 1136.54 11782.9 1136.54 11785.9 1136.54 11789.9 1136.54 11792.9 1136.54 11795.9 1136.54 11799.9 1135.54 11802.9 1135.54 11806.9 1135.54 11809.9 1135.54 11813.9 1135.54 11816.9 1135.54 11819.9 1134.54 11823.9 1134.54 11826.9 1134.54 11830.9 1134.54 11833.9 1134.54 11837.9 1134.54 11840.9 1134.54 11844.9 1133.54 11847.9 1133.54 11850.9 1133.54 11854.9 1133.54 11857.9 1133.54 11861.9 1133.54 11864.9 1132.54 11868.5 1132.5" stroke="#0070C0" stroke-width="6.875" stroke-linecap="round" stroke-linejoin="round" stroke-miterlimit="10" stroke-dasharray="20.625 27.5" fill="none"/></g><g clip-path="url(#clip4)"><path d="M10199.5 1286.5 10204.8 1283.54 10209.8 1279.54 10214.8 1276.54 10219.8 1273.54 10224.8 1270.54 10230.8 1267.54 10235.8 1264.54 10240.8 1261.54 10245.8 1258.54 10250.8 1255.54 10255.8 1252.54 10261.8 1249.54 10266.8 1246.54 10271.8 1243.54 10276.8 1240.54 10281.8 1237.54 10286.8 1234.54 10292.8 1231.54 10297.8 1228.54 10302.8 1225.54 10307.8 1223.54 10312.8 1220.54 10317.8 1217.54 10323.8 1214.54 10328.8 1211.54 10333.8 1208.54 10338.8 1205.54 10343.8 1202.54 10348.8 1200.54 10354.8 1197.54 10359.8 1194.54 10364.8 1191.54 10369.8 1188.54 10374.8 1186.54 10379.8 1183.54 10384.8 1180.54 10390.8 1177.54 10395.8 1174.54 10400.8 1172.54 10405.8 1169.54 10410.8 1166.54 10415.8 1163.54 10421.8 1161.54 10426.8 1158.54 10431.8 1155.54 10436.8 1153.54 10441.8 1150.54 10446.8 1147.54 10452.8 1145.54 10457.8 1142.54 10462.8 1139.54 10467.8 1137.54 10472.8 1134.54 10477.8 1131.54 10483.8 1129.54 10488.8 1126.54 10493.8 1124.54 10498.8 1121.54 10503.8 1118.54 10508.8 1116.54 10514.8 1113.54 10519.8 1111.54 10524.8 1108.54 10529.8 1106.54 10534.8 1103.54 10539.8 1100.54 10544.8 1098.54 10550.8 1095.54 10555.8 1093.54 10560.8 1090.54 10565.8 1088.54 10570.8 1085.54 10575.8 1083.54 10581.8 1081.54 10586.8 1078.54 10591.8 1076.54 10596.8 1073.54 10601.8 1071.54 10606.8 1068.54 10612.8 1066.54 10617.8 1064.54 10622.8 1061.54 10627.8 1059.53 10632.8 1056.53 10637.8 1054.53 10643.8 1052.53 10648.8 1049.53 10653.8 1047.53 10658.8 1045.53 10663.9 1042.53 10668.9 1040.53 10674.9 1038.53 10679.9 1035.53 10684.9 1033.53 10689.9 1031.53 10694.9 1028.53 10699.9 1026.53 10705.9 1024.53 10710.9 1021.53 10715.9 1019.53 10720.9 1017.53 10725.9 1015.53 10730.9 1012.53 10735.9 1010.53 10741.9 1008.53 10746.9 1006.53 10751.9 1004.53 10756.9 1001.53 10761.9 999.533 10766.9 997.533 10772.9 995.533 10777.9 993.533 10782.9 990.533 10787.9 988.533 10792.9 986.533 10797.9 984.532 10803.9 982.532 10808.9 980.532 10813.9 978.532 10818.9 975.532 10823.9 973.532 10828.9 971.532 10834.9 969.532 10839.9 967.532 10844.9 965.532 10849.9 963.532 10854.9 961.532 10859.9 959.532 10865.9 957.532 10870.9 955.532 10875.9 953.531 10880.9 951.531 10885.9 949.531 10890.9 947.531 10896.9 945.531 10901.9 943.531 10906.9 941.531 10911.9 939.531 10916.9 937.531 10921.9 935.531 10926.9 933.531 10932.9 931.531 10937.9 929.531 10942.9 927.531 10947.9 925.531 10952.9 923.531 10957.9 921.53 10963.9 919.53 10968.9 917.53 10973.9 915.53 10978.9 913.53 10983.9 911.53 10988.9 909.53 10994.9 908.53 10999.9 906.53 11004.9 904.53 11009.9 902.53 11014.9 900.53 11019.9 898.53 11025.9 896.53 11030.9 895.53 11035.9 893.53 11040.9 891.529 11045.9 889.529 11050.9 887.529 11056.9 885.529 11061.9 884.529 11066.9 882.529 11071.9 880.529 11076.9 878.529 11081.9 876.529 11086.9 875.529 11092.9 873.529 11097.9 871.529 11102.9 869.529 11107.9 868.529 11112.9 866.529 11117.9 864.529 11123.9 862.529 11128.9 861.528 11133.9 859.528 11138.9 857.528 11143.9 855.528 11148.9 854.528 11154.9 852.528 11159.9 850.528 11164.9 849.528 11169.9 847.528 11174.9 845.528 11179.9 844.528 11185.9 842.528 11190.9 840.528 11195.9 839.528 11200.9 837.528 11205.9 835.528 11210.9 834.528 11216.9 832.527 11221.9 830.527 11226.9 829.527 11231.9 827.527 11236.9 826.527 11241.9 824.527 11247.9 822.527 11252.9 821.527 11257.9 819.527 11262.9 818.527 11267.9 816.527 11272.9 815.527 11277.9 813.527 11283.9 811.527 11288.9 810.527 11293.9 808.527 11298.9 807.527 11303.9 805.527 11308.9 804.527 11314.9 802.526 11319.9 801.526 11324.9 799.526 11329.9 798.526 11334.9 796.526 11339.9 795.526 11345.9 793.526 11350.9 792.526 11355.9 790.526 11360.9 789.526 11365.9 787.526 11370.9 786.526 11376.9 784.526 11381.9 783.526 11386.9 781.526 11391.9 780.526 11396.9 778.526 11401.9 777.526 11407.9 775.526 11412.9 774.526 11417.9 773.526 11422.9 771.526 11427.9 770.526 11432.9 768.525 11438.9 767.525 11443.9 766.525 11448.9 764.525 11453.9 763.525 11458.9 761.525 11463.9 760.525 11468.9 759.525 11474.9 757.525 11479.9 756.525 11484.9 754.525 11489.9 753.525 11494.9 752.525 11499.9 750.525 11505.9 749.525 11510.9 748.525 11515.9 746.525 11520.9 745.525 11525.9 744.525 11530.9 742.525 11536.9 741.525 11541.9 740.524 11546.9 738.524 11551.9 737.524 11556.9 736.524 11561.9 734.524 11567.9 733.524 11572.9 732.524 11577.9 731.524 11582.9 729.524 11587.9 728.524 11592.9 727.524 11598.9 725.524 11603.9 724.524 11608.9 723.524 11613.9 722.524 11618.9 720.524 11623.9 719.524 11628.9 718.524 11634.9 717.524 11639.9 715.524 11644.9 714.524 11649.9 713.524 11654.9 712.524 11659.9 710.523 11665.9 709.523 11670.9 708.523 11675.9 707.523 11680.9 706.523 11685.9 704.523 11690.9 703.523 11696.9 702.523 11701.9 701.523 11706.9 700.523 11711.9 698.523 11716.9 697.523 11721.9 696.523 11727.9 695.523 11732.9 694.523 11737.9 693.523 11742.9 691.523 11747.9 690.523 11752.9 689.523 11758.9 688.523 11763.9 687.523 11768.9 686.523 11773.9 684.523 11778.9 683.523 11783.9 682.523 11789.9 681.523 11794.9 680.523 11799.9 679.522 11804.9 678.522 11809.9 677.522 11814.9 675.522 11819.9 674.522 11825.9 673.522 11830.9 672.522 11835.9 671.522 11840.9 670.522 11845.9 669.522 11850.9 668.522 11856.9 667.522 11861.9 666.522 11866.9 664.522 11871.9 663.522 11876.9 662.522 11881.9 661.522 11887.9 660.522 11892.9 659.522 11897.9 658.522 11902.9 657.522 11907.9 656.522 11912.9 655.522 11918.9 654.522 11923.9 653.522 11928.9 652.522 11933.9 651.522 11938.9 650.522 11943.9 649.521 11949.9 647.521 11954.9 646.521 11959.9 645.521 11964.9 644.521 11969.9 643.521 11974.9 642.521 11980.9 641.521 11985.9 640.521 11990.9 639.521 11995.9 638.521 12000.9 637.521 12005.9 636.521 12010.9 635.521 12016.9 634.521 12021.9 633.521 12026.9 632.521 12031.9 631.521 12036.9 630.521 12041.9 629.521 12047.9 628.521 12052.9 627.521 12057.9 626.521 12062.9 625.521 12067.9 624.521 12072.9 623.521 12078.9 622.521 12083.9 621.521 12088.9 620.521 12093.9 619.521 12098.9 619.521 12103.9 618.521 12109.9 617.52 12114.9 616.52 12119.9 615.52 12124.9 614.52 12129.9 613.52 12134.9 612.52 12140.9 611.52 12145.9 610.52 12150.9 609.52 12155.9 608.52 12160.9 607.52 12165.9 606.52 12170.9 605.52 12176.9 604.52 12181.9 603.52 12186.9 602.52 12191.9 602.52 12196.9 601.52 12201.9 600.52 12207.9 599.52 12212.9 598.52 12217.9 597.52 12222.9 596.52 12227.9 595.52 12232.9 594.52 12238.9 593.52 12243.9 592.52 12248.9 591.52 12253.9 591.52 12258.9 590.52 12263.9 589.52 12269.9 588.52 12274.9 587.519 12279.9 586.519 12284.9 585.519 12289.9 584.519 12294.9 583.519 12300.9 582.519 12305.9 582.519 12310.9 581.519 12315.9 580.519 12320.9 579.519 12325.9 578.519 12331.9 577.519 12336.9 576.519 12341.9 575.519 12346.9 574.519 12351.9 574.519 12356.9 573.519 12361.9 572.519 12367.9 571.519 12372.9 570.519 12377.9 569.519 12382.9 568.519 12387.9 567.519 12392.9 567.519 12398.9 566.519 12403.9 565.519 12408.9 564.519 12413.9 563.519 12418.9 562.519 12423.9 561.519 12429.9 561.519 12434.9 560.519 12439.9 559.519 12444.9 558.519 12449.9 557.518 12454.9 556.518 12460.9 555.518 12465.9 555.518 12470.9 554.518 12475.9 553.518 12480.9 552.518 12485.9 551.518 12491.9 550.518 12496.9 549.518 12501.9 549.518 12506.9 548.518 12511.9 547.518 12516.9 546.518 12522.9 545.518 12527.9 544.518 12532.9 544.518 12537.9 543.518 12542.9 542.518 12547.9 541.518 12552.9 540.518 12558.9 539.518 12563.9 538.518 12568.9 538.518 12573.9 537.518 12578.9 536.518 12583.9 535.518 12589.9 534.518 12594.9 533.518 12599.9 533.518 12604.9 532.518 12609.9 531.518 12614.9 530.518 12620.9 529.518 12625.9 528.518 12630.9 528.518 12635.9 527.518 12640.9 526.517 12645.9 525.517 12651.9 524.517 12656.9 523.517 12661.9 523.517 12666.9 522.517 12671.9 521.517 12676.9 520.517 12682.9 519.517 12687.9 518.517 12692.9 518.517 12697.9 517.517 12703.5 516.5" stroke="#C00000" stroke-width="6.875" stroke-linecap="round" stroke-linejoin="round" stroke-miterlimit="10" fill="none"/></g><g clip-path="url(#clip5)"><path d="M10199.5 1284.5 10204.8 1284.54 10209.8 1283.54 10214.8 1283.54 10219.8 1282.54 10224.8 1282.54 10230.8 1282.54 10235.8 1281.54 10240.8 1281.54 10245.8 1280.54 10250.8 1280.54 10255.8 1280.54 10261.8 1279.54 10266.8 1279.54 10271.8 1278.54 10276.8 1278.54 10281.8 1278.54 10286.8 1277.54 10292.8 1277.54 10297.8 1276.54 10302.8 1276.54 10307.8 1276.54 10312.8 1275.54 10317.8 1275.54 10323.8 1275.54 10328.8 1274.54 10333.8 1274.54 10338.8 1273.54 10343.8 1273.54 10348.8 1273.54 10354.8 1272.54 10359.8 1272.54 10364.8 1271.54 10369.8 1271.54 10374.8 1271.54 10379.8 1270.54 10384.8 1270.54 10390.8 1269.54 10395.8 1269.54 10400.8 1269.54 10405.8 1268.54 10410.8 1268.54 10415.8 1268.54 10421.8 1267.54 10426.8 1267.54 10431.8 1266.54 10436.8 1266.54 10441.8 1266.54 10446.8 1265.54 10452.8 1265.54 10457.8 1265.54 10462.8 1264.54 10467.8 1264.54 10472.8 1263.54 10477.8 1263.54 10483.8 1263.54 10488.8 1262.54 10493.8 1262.54 10498.8 1261.54 10503.8 1261.54 10508.8 1261.54 10514.8 1260.54 10519.8 1260.54 10524.8 1260.54 10529.8 1259.54 10534.8 1259.54 10539.8 1259.54 10544.8 1258.54 10550.8 1258.54 10555.8 1257.54 10560.8 1257.54 10565.8 1257.54 10570.8 1256.54 10575.8 1256.54 10581.8 1256.54 10586.8 1255.54 10591.8 1255.54 10596.8 1254.54 10601.8 1254.54 10606.8 1254.54 10612.8 1253.54 10617.8 1253.54 10622.8 1253.54 10627.8 1252.54 10632.8 1252.54 10637.8 1251.54 10643.8 1251.54 10648.8 1251.54 10653.8 1250.54 10658.8 1250.54 10663.9 1250.54 10668.9 1249.54 10674.9 1249.54 10679.9 1249.54 10684.9 1248.54 10689.9 1248.54 10694.9 1248.54 10699.9 1247.54 10705.9 1247.54 10710.9 1246.54 10715.9 1246.54 10720.9 1246.54 10725.9 1245.54 10730.9 1245.54 10735.9 1245.54 10741.9 1244.54 10746.9 1244.54 10751.9 1244.54 10756.9 1243.54 10761.9 1243.54 10766.9 1243.54 10772.9 1242.54 10777.9 1242.54 10782.9 1241.54 10787.9 1241.54 10792.9 1241.54 10797.9 1240.54 10803.9 1240.54 10808.9 1240.54 10813.9 1239.54 10818.9 1239.54 10823.9 1239.54 10828.9 1238.54 10834.9 1238.54 10839.9 1238.54 10844.9 1237.54 10849.9 1237.54 10854.9 1237.54 10859.9 1236.54 10865.9 1236.54 10870.9 1236.54 10875.9 1235.54 10880.9 1235.54 10885.9 1234.54 10890.9 1234.54 10896.9 1234.54 10901.9 1233.54 10906.9 1233.54 10911.9 1233.54 10916.9 1232.54 10921.9 1232.54 10926.9 1232.54 10932.9 1231.54 10937.9 1231.54 10942.9 1231.54 10947.9 1230.54 10952.9 1230.54 10957.9 1230.54 10963.9 1229.54 10968.9 1229.54 10973.9 1229.54 10978.9 1228.54 10983.9 1228.54 10988.9 1228.54 10994.9 1227.54 10999.9 1227.54 11004.9 1227.54 11009.9 1226.54 11014.9 1226.54 11019.9 1226.54 11025.9 1225.54 11030.9 1225.54 11035.9 1225.54 11040.9 1224.54 11045.9 1224.54 11050.9 1224.54 11056.9 1223.54 11061.9 1223.54 11066.9 1223.54 11071.9 1222.54 11076.9 1222.54 11081.9 1222.54 11086.9 1221.54 11092.9 1221.54 11097.9 1221.54 11102.9 1220.54 11107.9 1220.54 11112.9 1220.54 11117.9 1219.54 11123.9 1219.54 11128.9 1219.54 11133.9 1218.54 11138.9 1218.54 11143.9 1218.54 11148.9 1217.54 11154.9 1217.54 11159.9 1217.54 11164.9 1216.54 11169.9 1216.54 11174.9 1216.54 11179.9 1216.54 11185.9 1215.54 11190.9 1215.54 11195.9 1215.54 11200.9 1214.54 11205.9 1214.54 11210.9 1214.54 11216.9 1213.54 11221.9 1213.54 11226.9 1213.54 11231.9 1212.54 11236.9 1212.54 11241.9 1212.54 11247.9 1211.54 11252.9 1211.54 11257.9 1211.54 11262.9 1210.54 11267.9 1210.54 11272.9 1210.54 11277.9 1210.54 11283.9 1209.54 11288.9 1209.54 11293.9 1209.54 11298.9 1208.54 11303.9 1208.54 11308.9 1208.54 11314.9 1207.54 11319.9 1207.54 11324.9 1207.54 11329.9 1206.54 11334.9 1206.54 11339.9 1206.54 11345.9 1205.54 11350.9 1205.54 11355.9 1205.54 11360.9 1205.54 11365.9 1204.54 11370.9 1204.54 11376.9 1204.54 11381.9 1203.54 11386.9 1203.54 11391.9 1203.54 11396.9 1202.54 11401.9 1202.54 11407.9 1202.54 11412.9 1202.54 11417.9 1201.54 11422.9 1201.54 11427.9 1201.54 11432.9 1200.54 11438.9 1200.54 11443.9 1200.54 11448.9 1199.54 11453.9 1199.54 11458.9 1199.54 11463.9 1199.54 11468.9 1198.54 11474.9 1198.54 11479.9 1198.54 11484.9 1197.54 11489.9 1197.54 11494.9 1197.54 11499.9 1196.54 11505.9 1196.54 11510.9 1196.54 11515.9 1196.54 11520.9 1195.54 11525.9 1195.54 11530.9 1195.54 11536.9 1194.54 11541.9 1194.54 11546.9 1194.54 11551.9 1194.54 11556.9 1193.54 11561.9 1193.54 11567.9 1193.54 11572.9 1192.54 11577.9 1192.54 11582.9 1192.54 11587.9 1192.54 11592.9 1191.54 11598.9 1191.54 11603.9 1191.54 11608.9 1190.54 11613.9 1190.54 11618.9 1190.54 11623.9 1190.54 11628.9 1189.54 11634.9 1189.54 11639.9 1189.54 11644.9 1188.54 11649.9 1188.54 11654.9 1188.54 11659.9 1188.54 11665.9 1187.54 11670.9 1187.54 11675.9 1187.54 11680.9 1186.54 11685.9 1186.54 11690.9 1186.54 11696.9 1186.54 11701.9 1185.54 11706.9 1185.54 11711.9 1185.54 11716.9 1184.54 11721.9 1184.54 11727.9 1184.54 11732.9 1184.54 11737.9 1183.54 11742.9 1183.54 11747.9 1183.54 11752.9 1183.54 11758.9 1182.54 11763.9 1182.54 11768.9 1182.54 11773.9 1181.54 11778.9 1181.54 11783.9 1181.54 11789.9 1181.54 11794.9 1180.54 11799.9 1180.54 11804.9 1180.54 11809.9 1180.54 11814.9 1179.54 11819.9 1179.54 11825.9 1179.54 11830.9 1179.54 11835.9 1178.54 11840.9 1178.54 11845.9 1178.54 11850.9 1177.54 11856.9 1177.54 11861.9 1177.54 11866.9 1177.54 11871.9 1176.54 11876.9 1176.54 11881.9 1176.54 11887.9 1176.54 11892.9 1175.54 11897.9 1175.54 11902.9 1175.54 11907.9 1175.54 11912.9 1174.54 11918.9 1174.54 11923.9 1174.54 11928.9 1174.54 11933.9 1173.54 11938.9 1173.54 11943.9 1173.54 11949.9 1172.54 11954.9 1172.54 11959.9 1172.54 11964.9 1172.54 11969.9 1171.54 11974.9 1171.54 11980.9 1171.54 11985.9 1171.54 11990.9 1170.54 11995.9 1170.54 12000.9 1170.54 12005.9 1170.54 12010.9 1169.54 12016.9 1169.54 12021.9 1169.54 12026.9 1169.54 12031.9 1168.54 12036.9 1168.54 12041.9 1168.54 12047.9 1168.54 12052.9 1167.54 12057.9 1167.54 12062.9 1167.54 12067.9 1167.54 12072.9 1166.54 12078.9 1166.54 12083.9 1166.54 12088.9 1166.54 12093.9 1165.54 12098.9 1165.54 12103.9 1165.54 12109.9 1165.54 12114.9 1164.54 12119.9 1164.54 12124.9 1164.54 12129.9 1164.54 12134.9 1163.54 12140.9 1163.54 12145.9 1163.54 12150.9 1163.54 12155.9 1163.54 12160.9 1162.54 12165.9 1162.54 12170.9 1162.54 12176.9 1162.54 12181.9 1161.54 12186.9 1161.54 12191.9 1161.54 12196.9 1161.54 12201.9 1160.54 12207.9 1160.54 12212.9 1160.54 12217.9 1160.54 12222.9 1159.54 12227.9 1159.54 12232.9 1159.54 12238.9 1159.54 12243.9 1158.54 12248.9 1158.54 12253.9 1158.54 12258.9 1158.54 12263.9 1158.54 12269.9 1157.54 12274.9 1157.54 12279.9 1157.54 12284.9 1157.54 12289.9 1156.54 12294.9 1156.54 12300.9 1156.54 12305.9 1156.54 12310.9 1155.54 12315.9 1155.54 12320.9 1155.54 12325.9 1155.54 12331.9 1155.54 12336.9 1154.54 12341.9 1154.54 12346.9 1154.54 12351.9 1154.54 12356.9 1153.54 12361.9 1153.54 12367.9 1153.54 12372.9 1153.54 12377.9 1153.54 12382.9 1152.54 12387.9 1152.54 12392.9 1152.54 12398.9 1152.54 12403.9 1151.54 12408.9 1151.54 12413.9 1151.54 12418.9 1151.54 12423.9 1151.54 12429.9 1150.54 12434.9 1150.54 12439.9 1150.54 12444.9 1150.54 12449.9 1149.54 12454.9 1149.54 12460.9 1149.54 12465.9 1149.54 12470.9 1149.54 12475.9 1148.54 12480.9 1148.54 12485.9 1148.54 12491.9 1148.54 12496.9 1148.54 12501.9 1147.54 12506.9 1147.54 12511.9 1147.54 12516.9 1147.54 12522.9 1147.54 12527.9 1146.54 12532.9 1146.54 12537.9 1146.54 12542.9 1146.54 12547.9 1145.54 12552.9 1145.54 12558.9 1145.54 12563.9 1145.54 12568.9 1145.54 12573.9 1144.54 12578.9 1144.54 12583.9 1144.54 12589.9 1144.54 12594.9 1144.54 12599.9 1143.54 12604.9 1143.54 12609.9 1143.54 12614.9 1143.54 12620.9 1143.54 12625.9 1142.54 12630.9 1142.54 12635.9 1142.54 12640.9 1142.54 12645.9 1142.54 12651.9 1141.54 12656.9 1141.54 12661.9 1141.54 12666.9 1141.54 12671.9 1141.54 12676.9 1140.54 12682.9 1140.54 12687.9 1140.54 12692.9 1140.54 12697.9 1140.54 12703.5 1139.5" stroke="#C00000" stroke-width="6.875" stroke-linecap="round" stroke-linejoin="round" stroke-miterlimit="10" stroke-dasharray="20.625 27.5" fill="none"/></g><g><text font-family="Arial,Arial_MSFontService,sans-serif" font-weight="400" font-size="46" transform="matrix(1 0 0 1 10186.7 390)">0</text></g><g><text font-family="Arial,Arial_MSFontService,sans-serif" font-weight="400" font-size="46" transform="matrix(1 0 0 1 10397.9 390)">100</text></g><g><text font-family="Arial,Arial_MSFontService,sans-serif" font-weight="400" font-size="46" transform="matrix(1 0 0 1 10634.6 390)">200</text></g><g><text font-family="Arial,Arial_MSFontService,sans-serif" font-weight="400" font-size="46" transform="matrix(1 0 0 1 10871.3 390)">300</text></g><g><text font-family="Arial,Arial_MSFontService,sans-serif" font-weight="400" font-size="46" transform="matrix(1 0 0 1 11108 390)">400</text></g><g><text font-family="Arial,Arial_MSFontService,sans-serif" font-weight="400" font-size="46" transform="matrix(1 0 0 1 11344.7 390)">500</text></g><g><text font-family="Arial,Arial_MSFontService,sans-serif" font-weight="400" font-size="46" transform="matrix(1 0 0 1 11581.4 390)">600</text></g><g><text font-family="Arial,Arial_MSFontService,sans-serif" font-weight="400" font-size="46" transform="matrix(1 0 0 1 11818.1 390)">700</text></g><g><text font-family="Arial,Arial_MSFontService,sans-serif" font-weight="400" font-size="46" transform="matrix(1 0 0 1 10134.6 1300)">0</text></g><g><text font-family="Arial,Arial_MSFontService,sans-serif" font-weight="400" font-size="46" transform="matrix(1 0 0 1 10134.6 1129)">5</text></g><g><text font-family="Arial,Arial_MSFontService,sans-serif" font-weight="400" font-size="46" transform="matrix(1 0 0 1 10109.1 958)">10</text></g><g><text font-family="Arial,Arial_MSFontService,sans-serif" font-weight="400" font-size="46" transform="matrix(1 0 0 1 10109.1 787)">15</text></g><g><text font-family="Arial,Arial_MSFontService,sans-serif" font-weight="400" font-size="46" transform="matrix(1 0 0 1 10109.1 615)">20</text></g><g><text font-family="Arial,Arial_MSFontService,sans-serif" font-weight="400" font-size="46" transform="matrix(1 0 0 1 10109.1 444)">25</text></g><g><text font-family="Arial,Arial_MSFontService,sans-serif" font-weight="400" font-size="46" transform="matrix(1 0 0 1 10186.7 1354)">0</text></g><g><text font-family="Arial,Arial_MSFontService,sans-serif" font-weight="400" font-size="46" transform="matrix(1 0 0 1 10604 1354)">5</text></g><g><text font-family="Arial,Arial_MSFontService,sans-serif" font-weight="400" font-size="46" transform="matrix(1 0 0 1 11008.5 1354)">10</text></g><g><text font-family="Arial,Arial_MSFontService,sans-serif" font-weight="400" font-size="46" transform="matrix(1 0 0 1 11425.8 1354)">15</text></g><g><text font-family="Arial,Arial_MSFontService,sans-serif" font-weight="400" font-size="46" transform="matrix(1 0 0 1 11843.1 1354)">20</text></g><g><text font-family="Arial,Arial_MSFontService,sans-serif" font-weight="400" font-size="55" transform="matrix(1 0 0 1 10697.7 325)">Equivalent Full Power Days</text></g><g><text font-family="Arial,Arial_MSFontService,sans-serif" font-weight="400" font-size="55" transform="matrix(6.12323e-17 -1 1 6.12323e-17 10084 1040)">Pu [kg/4 t UO</text></g><g><text font-family="Arial,Arial_MSFontService,sans-serif" font-weight="400" font-size="37" transform="matrix(6.12323e-17 -1 1 6.12323e-17 10097 710)">2</text></g><g><text font-family="Arial,Arial_MSFontService,sans-serif" font-weight="400" font-size="55" transform="matrix(6.12323e-17 -1 1 6.12323e-17 10084 689)">]</text></g><g><text font-family="Arial,Arial_MSFontService,sans-serif" font-weight="400" font-size="55" transform="matrix(1 0 0 1 10762.5 1429)">Burnup [MWd/kg UO</text></g><g><text font-family="Arial,Arial_MSFontService,sans-serif" font-weight="400" font-size="37" transform="matrix(1 0 0 1 11269.9 1442)">2</text></g><g><text font-family="Arial,Arial_MSFontService,sans-serif" font-weight="400" font-size="55" transform="matrix(1 0 0 1 11290.3 1429)">]</text></g></g></svg>