<svg width="2019" height="1271" xmlns="http://www.w3.org/2000/svg" xmlns:xlink="http://www.w3.org/1999/xlink" xml:space="preserve" overflow="hidden"><defs><clipPath id="clip0"><rect x="9998" y="1542" width="2019" height="1271"/></clipPath><clipPath id="clip1"><rect x="10260" y="1754" width="1624" height="845"/></clipPath><clipPath id="clip2"><rect x="10260" y="1754" width="1624" height="845"/></clipPath><clipPath id="clip3"><rect x="10260" y="1754" width="1624" height="845"/></clipPath><clipPath id="clip4"><rect x="10260" y="1754" width="1624" height="845"/></clipPath><clipPath id="clip5"><rect x="10260" y="1754" width="1624" height="845"/></clipPath></defs><g clip-path="url(#clip0)" transform="translate(-9998 -1542)"><rect x="9998" y="1542" width="2019" height="1271" fill="#FFFFFF"/><g><path d="M10260.5 2493.58 11884.5 2493.58M10260.5 2388.58 11884.5 2388.58M10260.5 2282.58 11884.5 2282.58M10260.5 2177.57 11884.5 2177.57M10260.5 2071.57 11884.5 2071.57M10260.5 1965.56 11884.5 1965.56M10260.5 1860.56 11884.5 1860.56M10260.5 1754.5 11884.5 1754.5" stroke="#D9D9D9" stroke-width="3.4375" stroke-linejoin="round" stroke-miterlimit="10" fill="none"/></g><g><path d="M10666.8 1754.5 10666.8 2599.5M11072.9 1754.5 11072.9 2599.5M11478.9 1754.5 11478.9 2599.5M11884.5 1754.5 11884.5 2599.5" stroke="#D9D9D9" stroke-width="3.4375" stroke-linejoin="round" stroke-miterlimit="10" fill="none"/></g><g><rect x="10260.5" y="1754.5" width="1624" height="845" stroke="#000000" stroke-width="3.4375" stroke-linejoin="round" stroke-miterlimit="10" fill="none"/></g><g><path d="M10260.5 1754.5 11884.5 1754.5" stroke="#000000" stroke-width="3.4375" stroke-linejoin="round" stroke-miterlimit="10" fill="none" fill-rule="evenodd"/></g><g><path d="M10260.5 1740.5 10260.5 1754.5M10490.8 1740.5 10490.8 1754.5M10720.9 1740.5 10720.9 1754.5M10951.9 1740.5 10951.9 1754.5M11181.9 1740.5 11181.9 1754.5M11411.9 1740.5 11411.9 1754.5M11641.9 1740.5 11641.9 1754.5M11872.5 1740.5 11872.5 1754.5" stroke="#000000" stroke-width="3.4375" stroke-linejoin="round" stroke-miterlimit="10" fill="none"/></g><g><path d="M0 0 0.000360892 845" stroke="#000000" stroke-width="3.4375" stroke-linejoin="round" stroke-miterlimit="10" fill="none" fill-rule="evenodd" transform="matrix(1 0 0 -1 10260.5 2599.5)"/></g><g><path d="M10260.5 2599.5 11884.5 2599.5" stroke="#000000" stroke-width="3.4375" stroke-linejoin="round" stroke-miterlimit="10" fill="none" fill-rule="evenodd"/></g><g clip-path="url(#clip1)"><path d="M10268.5 1765.5 10277.8 1769.56 10285.8 1773.56 10294.8 1778.56 10302.8 1782.56 10311.8 1786.56 10320.8 1791.56 10328.8 1795.56 10337.8 1799.56 10345.8 1804.56 10354.8 1808.56 10362.8 1812.56 10371.8 1817.56 10380.8 1821.56 10388.8 1825.56 10397.8 1830.56 10405.8 1834.56 10414.8 1838.56 10423.8 1843.56 10431.8 1847.56 10440.8 1851.56 10448.8 1855.56 10457.8 1860.56 10465.8 1864.56 10474.8 1868.56 10483.8 1872.56 10491.8 1876.56 10500.8 1881.56 10508.8 1885.56 10517.8 1889.56 10525.8 1893.56 10534.8 1897.56 10543.8 1901.56 10551.8 1906.56 10560.8 1910.56 10568.8 1914.56 10577.8 1918.56 10586.8 1922.56 10594.8 1926.56 10603.8 1930.56 10611.8 1934.56 10620.8 1938.56 10628.8 1942.56 10637.8 1946.56 10646.8 1951.56 10654.8 1955.56 10663.8 1959.56 10671.9 1963.56 10680.9 1967.56 10689.9 1971.56 10697.9 1975.56 10706.9 1979.57 10714.9 1983.57 10723.9 1987.57 10731.9 1991.57 10740.9 1995.57 10749.9 1999.57 10757.9 2002.57 10766.9 2006.57 10774.9 2010.57 10783.9 2014.57 10792.9 2018.57 10800.9 2022.57 10809.9 2026.57 10817.9 2030.57 10826.9 2034.57 10834.9 2038.57 10843.9 2042.57 10852.9 2045.57 10860.9 2049.57 10869.9 2053.57 10877.9 2057.57 10886.9 2061.57 10895.9 2065.57 10903.9 2068.57 10912.9 2072.57 10920.9 2076.57 10929.9 2080.57 10937.9 2084.57 10946.9 2087.57 10955.9 2091.57 10963.9 2095.57 10972.9 2099.57 10980.9 2102.57 10989.9 2106.57 10997.9 2110.57 11006.9 2114.57 11015.9 2117.57 11023.9 2121.57 11032.9 2125.57 11040.9 2128.57 11049.9 2132.57 11058.9 2136.57 11066.9 2139.57 11075.9 2143.57 11083.9 2147.57 11092.9 2150.57 11100.9 2154.57 11109.9 2158.57 11118.9 2161.57 11126.9 2165.57 11135.9 2168.57 11143.9 2172.57 11152.9 2176.57 11161.9 2179.57 11169.9 2183.57 11178.9 2186.57 11186.9 2190.57 11195.9 2193.57 11203.9 2197.57 11212.9 2201.57 11221.9 2204.57 11229.9 2208.57 11238.9 2211.57 11246.9 2215.57 11255.9 2218.57 11264.9 2222.57 11272.9 2225.57 11281.9 2229.57 11289.9 2232.57 11298.9 2235.57 11306.9 2239.57 11315.9 2242.57 11324.9 2246.57 11332.9 2249.57 11341.9 2253.57 11349.9 2256.57 11358.9 2259.57 11366.9 2263.57 11375.9 2266.57 11384.9 2270.57 11392.9 2273.57 11401.9 2276.57 11409.9 2280.57 11418.9 2283.58 11427.9 2286.58 11435.9 2290.58 11444.9 2293.58 11452.9 2296.58 11461.9 2300.58 11469.9 2303.58 11478.9 2306.58 11487.9 2310.58 11495.9 2313.58 11504.9 2316.58 11512.9 2319.58 11521.9 2323.58 11530.9 2326.58 11538.9 2329.58 11547.9 2332.58 11555.9 2336.58 11564.9 2339.58 11572.9 2342.58 11581.9 2345.58 11590.9 2349.58 11598.9 2352.58 11607.9 2355.58 11615.9 2358.58 11624.9 2361.58 11633.9 2364.58 11641.9 2368.58 11650.9 2371.58 11658.9 2374.58 11667.9 2377.58 11675.9 2380.58 11684.9 2383.58 11693.9 2386.58 11701.9 2389.58 11710.9 2392.58 11718.9 2396.58 11727.9 2399.58 11735.9 2402.58 11744.9 2405.58 11753.9 2408.58 11761.9 2411.58 11770.9 2414.58 11778.9 2417.58 11787.9 2420.58 11796.9 2423.58 11804.9 2426.58 11813.9 2429.58 11821.9 2432.58 11830.9 2435.58 11838.9 2438.58 11847.9 2441.58 11856.9 2444.58 11864.9 2447.58 11873.9 2450.58 11881.9 2453.58 11890.9 2456.58 11899.9 2458.58 11907.9 2461.58 11916.9 2464.58 11924.9 2467.58 11933.9 2470.58 11941.9 2473.58 11950.9 2476.58 11959.9 2479.58 11967.9 2482.58 11976.9 2484.58 11984.9 2487.58 11993.9 2490.58 12002.9 2493.58 12010.9 2496.58 12019.9 2498.58 12027.9 2501.58 12036.9 2504.58 12044.9 2507.58 12053.9 2510.58 12062.9 2512.58 12070.9 2515.58 12079.9 2518.58 12087.9 2521.58 12096.9 2523.58 12104.9 2526.58 12113.9 2529.58 12122.9 2532.58 12130.9 2534.58 12139.9 2537.58 12147.9 2540.58 12156.9 2542.58 12165.9 2545.58 12173.9 2548.58 12182.9 2550.58 12190.9 2553.58 12199.9 2556.58 12207.9 2558.58 12216.9 2561.58 12225.9 2563.58 12233.9 2566.58 12242.9 2569.58 12250.9 2571.58 12259.9 2574.58 12268.9 2576.58 12276.9 2579.58 12285.9 2581.58 12293.9 2584.58 12302.9 2587.58 12310.9 2589.59 12319.9 2592.59 12328.9 2594.59 12336.9 2597.59 12345.9 2599.59 12353.9 2602.59 12362.9 2604.59 12371.9 2607.59 12379.9 2609.59 12388.9 2611.59 12396.9 2614.59 12405.9 2616.59 12413.9 2619.59 12422.9 2621.59 12431.9 2624.59 12439.9 2626.59 12448.9 2628.59 12456.9 2631.59 12465.9 2633.59 12474.9 2635.59 12482.9 2638.59 12491.9 2640.59 12499.9 2643.59 12508.9 2645.59 12516.9 2647.59 12525.9 2649.59 12534.9 2652.59 12542.9 2654.59 12551.9 2656.59 12559.9 2659.59 12568.9 2661.59 12576.9 2663.59 12585.9 2665.59 12594.9 2668.59 12602.9 2670.59 12611.9 2672.59 12619.9 2674.59 12628.9 2677.59 12637.9 2679.59 12645.9 2681.59 12654.9 2683.59 12662.9 2685.59 12671.9 2687.59 12679.9 2690.59 12688.9 2692.59 12697.9 2694.59 12705.9 2696.59 12714.9 2698.59 12722.9 2700.59 12731.9 2702.59 12740.9 2704.59 12748.9 2707.59 12757.9 2709.59 12765.9 2711.59 12774.9 2713.59 12782.9 2715.59 12791.9 2717.59 12800.9 2719.59 12808.9 2721.59 12817.9 2723.59 12825.9 2725.59 12834.9 2727.59 12843.9 2729.59 12851.9 2731.59 12860.9 2733.59 12868.9 2735.59 12877.9 2737.59 12885.9 2738.59 12894.9 2740.59 12903.9 2742.59 12911.9 2744.59 12920.9 2746.59 12928.9 2748.59 12937.9 2750.59 12945.9 2752.59 12954.9 2754.59 12963.9 2755.59 12971.9 2757.59 12980.9 2759.59 12988.9 2761.59 12997.9 2763.59 13006.9 2764.59 13014.9 2766.59 13023.9 2768.59 13031.9 2770.59 13040.9 2772.59 13048.9 2773.59 13057.9 2775.59 13066.9 2777.59 13074.9 2778.59 13083.9 2780.59 13091.9 2782.59 13100.9 2784.59 13109.9 2785.59 13117.9 2787.59 13126.9 2789.59 13134.9 2790.59 13143.9 2792.59 13151.9 2793.59 13160.9 2795.59 13169.9 2797.59 13177.9 2798.59 13186.9 2800.59 13194.9 2801.59 13203.9 2803.59 13212.9 2804.59 13220.9 2806.59 13229.9 2808.59 13237.9 2809.59 13246.9 2811.59 13254.9 2812.59 13263.9 2814.59 13272.9 2815.59 13280.9 2816.59 13289.9 2818.59 13297.9 2819.59 13306.9 2821.59 13314.9 2822.59 13323.9 2824.59 13332.9 2825.59 13340.9 2826.59 13349.9 2828.59 13357.9 2829.59 13366.9 2830.59 13375.9 2832.59 13383.9 2833.59 13392.9 2834.59 13400.9 2836.59 13409.9 2837.59 13417.9 2838.59 13426.9 2840.59 13435.9 2841.59 13443.9 2842.59 13452.9 2843.59 13460.9 2845.59 13469.9 2846.59 13478.9 2847.59 13486.9 2848.59 13495.9 2849.59 13503.9 2851.59 13512.9 2852.59 13520.9 2853.59 13529.9 2854.59 13538.9 2855.59 13546.9 2856.59 13555.9 2857.59 13563.9 2859.59 13572.9 2860.59 13581.9 2861.59 13589.9 2862.59 13598.9 2863.59 13606.9 2864.59 13615.9 2865.59 13623.9 2866.59 13632.9 2867.59 13641.9 2868.59 13649.9 2869.59 13658.9 2870.59 13666.9 2871.59 13675.9 2872.59 13683.9 2873.59 13692.9 2874.59 13701.9 2874.59 13710 2875.59 13719 2876.59 13727 2877.59 13736 2878.59 13745 2879.59 13753 2880.59 13762 2880.59 13770 2881.59 13779 2882.59 13787 2883.59 13796 2884.59 13805 2884.59 13813 2885.59 13822 2886.59 13830 2886.59 13839 2887.59 13848 2888.59 13856 2889.59 13865 2889.59 13873 2890.59 13882 2890.59 13890 2891.6 13899 2892.6 13908 2892.6 13916 2893.6 13925 2893.6 13933 2894.6 13942 2895.6 13951 2895.6 13959 2896.6 13968 2896.6 13976 2897.6 13985 2897.6 13993 2898.6 14002 2898.6 14011 2899.6 14019 2899.6 14028 2899.6 14036 2900.6 14045 2900.6 14054 2901.6 14062 2901.6 14071 2901.6 14079 2902.6 14088 2902.6 14096 2902.6 14105 2902.6 14114 2903.6 14122 2903.6 14131 2903.6 14139 2903.6 14148 2904.6 14156 2904.6 14165 2904.6 14174 2904.6 14182 2904.6 14191 2905.6 14199 2905.6 14208 2905.6 14217 2905.6 14225 2905.6 14234 2905.6 14242 2905.6 14251 2905.6 14259 2905.6 14268 2905.6 14277 2905.5 14285 2905.6 14294 2905.6 14302 2905.6 14311 2905.6 14319.5 2905.6" stroke="#000000" stroke-width="6.875" stroke-linecap="round" stroke-linejoin="round" stroke-miterlimit="10" fill="none"/></g><g clip-path="url(#clip2)"><path d="M10260.5 1799.5 10263.8 1802.56 10267.8 1806.56 10270.8 1809.56 10274.8 1812.56 10277.8 1815.56 10281.8 1819.56 10284.8 1822.56 10287.8 1825.56 10291.8 1828.56 10294.8 1832.56 10298.8 1835.56 10301.8 1838.56 10305.8 1841.56 10308.8 1845.56 10312.8 1848.56 10315.8 1851.56 10318.8 1854.56 10322.8 1857.56 10325.8 1861.56 10329.8 1864.56 10332.8 1867.56 10336.8 1870.56 10339.8 1873.56 10342.8 1876.56 10346.8 1879.56 10349.8 1883.56 10353.8 1886.56 10356.8 1889.56 10360.8 1892.56 10363.8 1895.56 10367.8 1898.56 10370.8 1901.56 10373.8 1904.56 10377.8 1907.56 10380.8 1911.56 10384.8 1914.56 10387.8 1917.56 10391.8 1920.56 10394.8 1923.56 10398.8 1926.56 10401.8 1929.56 10404.8 1932.56 10408.8 1935.56 10411.8 1938.56 10415.8 1941.56 10418.8 1944.56 10422.8 1947.56 10425.8 1950.56 10428.8 1953.56 10432.8 1956.56 10435.8 1959.56 10439.8 1962.56 10442.8 1965.56 10446.8 1968.56 10449.8 1971.56 10453.8 1974.56 10456.8 1977.57 10459.8 1980.57 10463.8 1983.57 10466.8 1986.57 10470.8 1988.57 10473.8 1991.57 10477.8 1994.57 10480.8 1997.57 10484.8 2000.57 10487.8 2003.57 10490.8 2006.57 10494.8 2009.57 10497.8 2012.57 10501.8 2014.57 10504.8 2017.57 10508.8 2020.57 10511.8 2023.57 10514.8 2026.57 10518.8 2029.57 10521.8 2032.57 10525.8 2034.57 10528.8 2037.57 10532.8 2040.57 10535.8 2043.57 10539.8 2046.57 10542.8 2048.57 10545.8 2051.57 10549.8 2054.57 10552.8 2057.57 10556.8 2059.57 10559.8 2062.57 10563.8 2065.57 10566.8 2068.57 10569.8 2070.57 10573.8 2073.57 10576.8 2076.57 10580.8 2079.57 10583.8 2081.57 10587.8 2084.57 10590.8 2087.57 10594.8 2089.57 10597.8 2092.57 10600.8 2095.57 10604.8 2097.57 10607.8 2100.57 10611.8 2103.57 10614.8 2105.57 10618.8 2108.57 10621.8 2111.57 10625.8 2113.57 10628.8 2116.57 10631.8 2119.57 10635.8 2121.57 10638.8 2124.57 10642.8 2127.57 10645.8 2129.57 10649.8 2132.57 10652.8 2134.57 10655.8 2137.57 10659.8 2139.57 10662.8 2142.57 10666.8 2145.57 10669.9 2147.57 10673.9 2150.57 10676.9 2152.57 10680.9 2155.57 10683.9 2157.57 10686.9 2160.57 10690.9 2162.57 10693.9 2165.57 10697.9 2167.57 10700.9 2170.57 10704.9 2172.57 10707.9 2175.57 10711.9 2177.57 10714.9 2180.57 10717.9 2182.57 10721.9 2185.57 10724.9 2187.57 10728.9 2190.57 10731.9 2192.57 10735.9 2195.57 10738.9 2197.57 10741.9 2199.57 10745.9 2202.57 10748.9 2204.57 10752.9 2207.57 10755.9 2209.57 10759.9 2212.57 10762.9 2214.57 10766.9 2216.57 10769.9 2219.57 10772.9 2221.57 10776.9 2223.57 10779.9 2226.57 10783.9 2228.57 10786.9 2230.57 10790.9 2233.57 10793.9 2235.57 10796.9 2237.57 10800.9 2240.57 10803.9 2242.57 10807.9 2244.57 10810.9 2247.57 10814.9 2249.57 10817.9 2251.57 10821.9 2254.57 10824.9 2256.57 10827.9 2258.57 10831.9 2260.57 10834.9 2263.57 10838.9 2265.57 10841.9 2267.57 10845.9 2269.57 10848.9 2272.57 10852.9 2274.57 10855.9 2276.57 10858.9 2278.57 10862.9 2281.57 10865.9 2283.58 10869.9 2285.58 10872.9 2287.58 10876.9 2289.58 10879.9 2292.58 10882.9 2294.58 10886.9 2296.58 10889.9 2298.58 10893.9 2300.58 10896.9 2302.58 10900.9 2304.58 10903.9 2307.58 10907.9 2309.58 10910.9 2311.58 10913.9 2313.58 10917.9 2315.58 10920.9 2317.58 10924.9 2319.58 10927.9 2321.58 10931.9 2323.58 10934.9 2326.58 10938.9 2328.58 10941.9 2330.58 10944.9 2332.58 10948.9 2334.58 10951.9 2336.58 10955.9 2338.58 10958.9 2340.58 10962.9 2342.58 10965.9 2344.58 10968.9 2346.58 10972.9 2348.58 10975.9 2350.58 10979.9 2352.58 10982.9 2354.58 10986.9 2356.58 10989.9 2358.58 10993.9 2360.58 10996.9 2362.58 10999.9 2364.58 11003.9 2366.58 11006.9 2368.58 11010.9 2370.58 11013.9 2372.58 11017.9 2374.58 11020.9 2376.58 11024.9 2377.58 11027.9 2379.58 11030.9 2381.58 11034.9 2383.58 11037.9 2385.58 11041.9 2387.58 11044.9 2389.58 11048.9 2391.58 11051.9 2393.58 11054.9 2394.58 11058.9 2396.58 11061.9 2398.58 11065.9 2400.58 11068.9 2402.58 11072.9 2404.58 11075.9 2406.58 11079.9 2407.58 11082.9 2409.58 11085.9 2411.58 11089.9 2413.58 11092.9 2415.58 11096.9 2416.58 11099.9 2418.58 11103.9 2420.58 11106.9 2422.58 11109.9 2423.58 11113.9 2425.58 11116.9 2427.58 11120.9 2429.58 11123.9 2430.58 11127.9 2432.58 11130.9 2434.58 11134.9 2436.58 11137.9 2437.58 11140.9 2439.58 11144.9 2441.58 11147.9 2442.58 11151.9 2444.58 11154.9 2446.58 11158.9 2448.58 11161.9 2449.58 11165.9 2451.58 11168.9 2453.58 11171.9 2454.58 11175.9 2456.58 11178.9 2457.58 11182.9 2459.58 11185.9 2461.58 11189.9 2462.58 11192.9 2464.58 11195.9 2466.58 11199.9 2467.58 11202.9 2469.58 11206.9 2470.58 11209.9 2472.58 11213.9 2474.58 11216.9 2475.58 11220.9 2477.58 11223.9 2478.58 11226.9 2480.58 11230.9 2481.58 11233.9 2483.58 11237.9 2484.58 11240.9 2486.58 11244.9 2487.58 11247.9 2489.58 11251.9 2490.58 11254.9 2492.58 11257.9 2493.58 11261.9 2495.58 11264.9 2496.58 11268.9 2498.58 11271.9 2499.58 11275.9 2501.58 11278.9 2502.58 11281.9 2504.58 11285.9 2505.58 11288.9 2507.58 11292.9 2508.58 11295.9 2510.58 11299.9 2511.58 11302.9 2512.58 11306.9 2514.58 11309.9 2515.58 11312.9 2517.58 11316.9 2518.58 11319.9 2519.58 11323.9 2521.58 11326.9 2522.58 11330.9 2523.58 11333.9 2525.58 11336.9 2526.58 11340.9 2528.58 11343.9 2529.58 11347.9 2530.58 11350.9 2532.58 11354.9 2533.58 11357.9 2534.58 11361.9 2535.58 11364.9 2537.58 11367.9 2538.58 11371.9 2539.58 11374.9 2541.58 11378.9 2542.58 11381.9 2543.58 11385.9 2544.58 11388.9 2546.58 11392.9 2547.58 11395.9 2548.58 11398.9 2550.58 11402.9 2551.58 11405.9 2552.58 11409.9 2553.58 11412.9 2554.58 11416.9 2556.58 11419.9 2557.58 11422.9 2558.58 11426.9 2559.58 11429.9 2560.58 11433.9 2562.58 11436.9 2563.58 11440.9 2564.58 11443.9 2565.58 11447.9 2566.58 11450.9 2567.58 11453.9 2569.58 11457.9 2570.58 11460.9 2571.58 11464.9 2572.58 11467.9 2573.58 11471.9 2574.58 11474.9 2575.58 11478.9 2576.58 11481.9 2577.58 11484.9 2579.58 11488.9 2580.58 11491.9 2581.58 11495.9 2582.58 11498.9 2583.58 11502.9 2584.58 11505.9 2585.58 11508.9 2586.58 11512.9 2587.58 11515.9 2588.58 11519.9 2589.58 11522.9 2590.59 11526.9 2591.59 11529.9 2592.59 11533.9 2593.59 11536.9 2594.59 11539.9 2595.59 11543.9 2596.59 11546.9 2597.59 11550.9 2598.59 11553.9 2599.59 11557.9 2600.59 11560.9 2601.59 11564.9 2602.59 11567.9 2603.59 11570.9 2604.59 11574.9 2605.59 11577.9 2606.59 11581.9 2606.59 11584.9 2607.59 11588.9 2608.59 11591.9 2609.59 11594.9 2610.59 11598.9 2611.59 11601.9 2612.59 11605.9 2613.59 11608.9 2614.59 11612.9 2614.59 11615.9 2615.59 11619.9 2616.59 11622.9 2617.59 11625.9 2618.59 11629.9 2619.59 11632.9 2619.59 11636.9 2620.59 11639.9 2621.59 11643.9 2622.59 11646.9 2623.59 11649.9 2623.59 11653.9 2624.59 11656.9 2625.59 11660.9 2626.59 11663.9 2627.59 11667.9 2627.59 11670.9 2628.59 11674.9 2629.59 11677.9 2630.59 11680.9 2630.59 11684.9 2631.59 11687.9 2632.59 11691.9 2632.59 11694.9 2633.59 11698.9 2634.59 11701.9 2635.59 11705.9 2635.59 11708.9 2636.59 11711.9 2637.59 11715.9 2637.59 11718.9 2638.59 11722.9 2639.59 11725.9 2639.59 11729.9 2640.59 11732.9 2641.59 11735.9 2641.59 11739.9 2642.59 11742.9 2642.59 11746.9 2643.59 11749.9 2644.59 11753.9 2644.59 11756.9 2645.59 11760.9 2645.59 11763.9 2646.59 11766.9 2647.59 11770.9 2647.59 11773.9 2648.59 11777.9 2648.59 11780.9 2649.59 11784.9 2649.59 11787.9 2650.59 11791.9 2651.59 11794.9 2651.59 11797.9 2652.59 11801.9 2652.59 11804.9 2653.59 11808.9 2653.59 11811.9 2654.59 11815.9 2654.59 11818.9 2655.59 11821.9 2655.59 11825.9 2656.59 11828.9 2656.59 11832.9 2656.59 11835.9 2657.59 11839.9 2657.59 11842.9 2658.59 11846.9 2658.59 11849.9 2659.59 11852.9 2659.59 11856.9 2660.59 11859.9 2660.59 11863.9 2660.59 11866.9 2661.59 11870.9 2661.59 11873.9 2661.59 11876.9 2662.59 11880.9 2662.59 11884.5 2663.5" stroke="#0070C0" stroke-width="6.875" stroke-linecap="round" stroke-linejoin="round" stroke-miterlimit="10" fill="none"/></g><g clip-path="url(#clip3)"><path d="M10260.5 1769.5 10263.8 1771.56 10267.8 1772.56 10270.8 1774.56 10274.8 1775.56 10277.8 1777.56 10281.8 1778.56 10284.8 1780.56 10287.8 1781.56 10291.8 1783.56 10294.8 1785.56 10298.8 1786.56 10301.8 1788.56 10305.8 1789.56 10308.8 1791.56 10312.8 1792.56 10315.8 1794.56 10318.8 1795.56 10322.8 1797.56 10325.8 1798.56 10329.8 1800.56 10332.8 1801.56 10336.8 1803.56 10339.8 1804.56 10342.8 1805.56 10346.8 1807.56 10349.8 1808.56 10353.8 1810.56 10356.8 1811.56 10360.8 1813.56 10363.8 1814.56 10367.8 1816.56 10370.8 1817.56 10373.8 1819.56 10377.8 1820.56 10380.8 1822.56 10384.8 1823.56 10387.8 1825.56 10391.8 1826.56 10394.8 1828.56 10398.8 1829.56 10401.8 1830.56 10404.8 1832.56 10408.8 1833.56 10411.8 1835.56 10415.8 1836.56 10418.8 1838.56 10422.8 1839.56 10425.8 1841.56 10428.8 1842.56 10432.8 1843.56 10435.8 1845.56 10439.8 1846.56 10442.8 1848.56 10446.8 1849.56 10449.8 1851.56 10453.8 1852.56 10456.8 1853.56 10459.8 1855.56 10463.8 1856.56 10466.8 1858.56 10470.8 1859.56 10473.8 1861.56 10477.8 1862.56 10480.8 1863.56 10484.8 1865.56 10487.8 1866.56 10490.8 1868.56 10494.8 1869.56 10497.8 1870.56 10501.8 1872.56 10504.8 1873.56 10508.8 1875.56 10511.8 1876.56 10514.8 1877.56 10518.8 1879.56 10521.8 1880.56 10525.8 1882.56 10528.8 1883.56 10532.8 1884.56 10535.8 1886.56 10539.8 1887.56 10542.8 1888.56 10545.8 1890.56 10549.8 1891.56 10552.8 1893.56 10556.8 1894.56 10559.8 1895.56 10563.8 1897.56 10566.8 1898.56 10569.8 1899.56 10573.8 1901.56 10576.8 1902.56 10580.8 1903.56 10583.8 1905.56 10587.8 1906.56 10590.8 1907.56 10594.8 1909.56 10597.8 1910.56 10600.8 1912.56 10604.8 1913.56 10607.8 1914.56 10611.8 1916.56 10614.8 1917.56 10618.8 1918.56 10621.8 1920.56 10625.8 1921.56 10628.8 1922.56 10631.8 1924.56 10635.8 1925.56 10638.8 1926.56 10642.8 1927.56 10645.8 1929.56 10649.8 1930.56 10652.8 1931.56 10655.8 1933.56 10659.8 1934.56 10662.8 1935.56 10666.8 1937.56 10669.9 1938.56 10673.9 1939.56 10676.9 1941.56 10680.9 1942.56 10683.9 1943.56 10686.9 1944.56 10690.9 1946.56 10693.9 1947.56 10697.9 1948.56 10700.9 1950.56 10704.9 1951.56 10707.9 1952.56 10711.9 1954.56 10714.9 1955.56 10717.9 1956.56 10721.9 1957.56 10724.9 1959.56 10728.9 1960.56 10731.9 1961.56 10735.9 1962.56 10738.9 1964.56 10741.9 1965.56 10745.9 1966.56 10748.9 1967.56 10752.9 1969.56 10755.9 1970.56 10759.9 1971.56 10762.9 1973.56 10766.9 1974.56 10769.9 1975.56 10772.9 1976.57 10776.9 1978.57 10779.9 1979.57 10783.9 1980.57 10786.9 1981.57 10790.9 1982.57 10793.9 1984.57 10796.9 1985.57 10800.9 1986.57 10803.9 1987.57 10807.9 1989.57 10810.9 1990.57 10814.9 1991.57 10817.9 1992.57 10821.9 1994.57 10824.9 1995.57 10827.9 1996.57 10831.9 1997.57 10834.9 1998.57 10838.9 2000.57 10841.9 2001.57 10845.9 2002.57 10848.9 2003.57 10852.9 2004.57 10855.9 2006.57 10858.9 2007.57 10862.9 2008.57 10865.9 2009.57 10869.9 2010.57 10872.9 2012.57 10876.9 2013.57 10879.9 2014.57 10882.9 2015.57 10886.9 2016.57 10889.9 2018.57 10893.9 2019.57 10896.9 2020.57 10900.9 2021.57 10903.9 2022.57 10907.9 2024.57 10910.9 2025.57 10913.9 2026.57 10917.9 2027.57 10920.9 2028.57 10924.9 2029.57 10927.9 2031.57 10931.9 2032.57 10934.9 2033.57 10938.9 2034.57 10941.9 2035.57 10944.9 2036.57 10948.9 2037.57 10951.9 2039.57 10955.9 2040.57 10958.9 2041.57 10962.9 2042.57 10965.9 2043.57 10968.9 2044.57 10972.9 2045.57 10975.9 2047.57 10979.9 2048.57 10982.9 2049.57 10986.9 2050.57 10989.9 2051.57 10993.9 2052.57 10996.9 2053.57 10999.9 2055.57 11003.9 2056.57 11006.9 2057.57 11010.9 2058.57 11013.9 2059.57 11017.9 2060.57 11020.9 2061.57 11024.9 2062.57 11027.9 2063.57 11030.9 2065.57 11034.9 2066.57 11037.9 2067.57 11041.9 2068.57 11044.9 2069.57 11048.9 2070.57 11051.9 2071.57 11054.9 2072.57 11058.9 2073.57 11061.9 2074.57 11065.9 2076.57 11068.9 2077.57 11072.9 2078.57 11075.9 2079.57 11079.9 2080.57 11082.9 2081.57 11085.9 2082.57 11089.9 2083.57 11092.9 2084.57 11096.9 2085.57 11099.9 2086.57 11103.9 2087.57 11106.9 2088.57 11109.9 2090.57 11113.9 2091.57 11116.9 2092.57 11120.9 2093.57 11123.9 2094.57 11127.9 2095.57 11130.9 2096.57 11134.9 2097.57 11137.9 2098.57 11140.9 2099.57 11144.9 2100.57 11147.9 2101.57 11151.9 2102.57 11154.9 2103.57 11158.9 2104.57 11161.9 2105.57 11165.9 2106.57 11168.9 2107.57 11171.9 2108.57 11175.9 2109.57 11178.9 2110.57 11182.9 2111.57 11185.9 2112.57 11189.9 2113.57 11192.9 2114.57 11195.9 2115.57 11199.9 2117.57 11202.9 2118.57 11206.9 2119.57 11209.9 2120.57 11213.9 2121.57 11216.9 2122.57 11220.9 2123.57 11223.9 2124.57 11226.9 2125.57 11230.9 2126.57 11233.9 2127.57 11237.9 2128.57 11240.9 2129.57 11244.9 2130.57 11247.9 2131.57 11251.9 2131.57 11254.9 2132.57 11257.9 2133.57 11261.9 2134.57 11264.9 2135.57 11268.9 2136.57 11271.9 2137.57 11275.9 2138.57 11278.9 2139.57 11281.9 2140.57 11285.9 2141.57 11288.9 2142.57 11292.9 2143.57 11295.9 2144.57 11299.9 2145.57 11302.9 2146.57 11306.9 2147.57 11309.9 2148.57 11312.9 2149.57 11316.9 2150.57 11319.9 2151.57 11323.9 2152.57 11326.9 2153.57 11330.9 2154.57 11333.9 2155.57 11336.9 2156.57 11340.9 2156.57 11343.9 2157.57 11347.9 2158.57 11350.9 2159.57 11354.9 2160.57 11357.9 2161.57 11361.9 2162.57 11364.9 2163.57 11367.9 2164.57 11371.9 2165.57 11374.9 2166.57 11378.9 2167.57 11381.9 2168.57 11385.9 2168.57 11388.9 2169.57 11392.9 2170.57 11395.9 2171.57 11398.9 2172.57 11402.9 2173.57 11405.9 2174.57 11409.9 2175.57 11412.9 2176.57 11416.9 2177.57 11419.9 2177.57 11422.9 2178.57 11426.9 2179.57 11429.9 2180.57 11433.9 2181.57 11436.9 2182.57 11440.9 2183.57 11443.9 2184.57 11447.9 2185.57 11450.9 2185.57 11453.9 2186.57 11457.9 2187.57 11460.9 2188.57 11464.9 2189.57 11467.9 2190.57 11471.9 2191.57 11474.9 2192.57 11478.9 2192.57 11481.9 2193.57 11484.9 2194.57 11488.9 2195.57 11491.9 2196.57 11495.9 2197.57 11498.9 2198.57 11502.9 2198.57 11505.9 2199.57 11508.9 2200.57 11512.9 2201.57 11515.9 2202.57 11519.9 2203.57 11522.9 2203.57 11526.9 2204.57 11529.9 2205.57 11533.9 2206.57 11536.9 2207.57 11539.9 2208.57 11543.9 2208.57 11546.9 2209.57 11550.9 2210.57 11553.9 2211.57 11557.9 2212.57 11560.9 2212.57 11564.9 2213.57 11567.9 2214.57 11570.9 2215.57 11574.9 2216.57 11577.9 2217.57 11581.9 2217.57 11584.9 2218.57 11588.9 2219.57 11591.9 2220.57 11594.9 2221.57 11598.9 2221.57 11601.9 2222.57 11605.9 2223.57 11608.9 2224.57 11612.9 2225.57 11615.9 2225.57 11619.9 2226.57 11622.9 2227.57 11625.9 2228.57 11629.9 2228.57 11632.9 2229.57 11636.9 2230.57 11639.9 2231.57 11643.9 2232.57 11646.9 2232.57 11649.9 2233.57 11653.9 2234.57 11656.9 2235.57 11660.9 2235.57 11663.9 2236.57 11667.9 2237.57 11670.9 2238.57 11674.9 2238.57 11677.9 2239.57 11680.9 2240.57 11684.9 2241.57 11687.9 2241.57 11691.9 2242.57 11694.9 2243.57 11698.9 2244.57 11701.9 2244.57 11705.9 2245.57 11708.9 2246.57 11711.9 2247.57 11715.9 2247.57 11718.9 2248.57 11722.9 2249.57 11725.9 2249.57 11729.9 2250.57 11732.9 2251.57 11735.9 2252.57 11739.9 2252.57 11742.9 2253.57 11746.9 2254.57 11749.9 2254.57 11753.9 2255.57 11756.9 2256.57 11760.9 2257.57 11763.9 2257.57 11766.9 2258.57 11770.9 2259.57 11773.9 2259.57 11777.9 2260.57 11780.9 2261.57 11784.9 2261.57 11787.9 2262.57 11791.9 2263.57 11794.9 2264.57 11797.9 2264.57 11801.9 2265.57 11804.9 2266.57 11808.9 2266.57 11811.9 2267.57 11815.9 2268.57 11818.9 2268.57 11821.9 2269.57 11825.9 2270.57 11828.9 2270.57 11832.9 2271.57 11835.9 2272.57 11839.9 2272.57 11842.9 2273.57 11846.9 2274.57 11849.9 2274.57 11852.9 2275.57 11856.9 2276.57 11859.9 2276.57 11863.9 2277.57 11866.9 2278.57 11870.9 2278.57 11873.9 2279.57 11876.9 2279.57 11880.9 2280.57 11884.5 2281.5" stroke="#0070C0" stroke-width="6.875" stroke-linecap="round" stroke-linejoin="round" stroke-miterlimit="10" stroke-dasharray="20.625 27.5" fill="none"/></g><g clip-path="url(#clip4)"><path d="M10268.5 1766.5 10273.8 1770.56 10278.8 1773.56 10283.8 1777.56 10289.8 1780.56 10294.8 1784.56 10299.8 1787.56 10304.8 1790.56 10309.8 1794.56 10314.8 1797.56 10319.8 1801.56 10325.8 1804.56 10330.8 1808.56 10335.8 1811.56 10340.8 1814.56 10345.8 1818.56 10350.8 1821.56 10355.8 1824.56 10361.8 1828.56 10366.8 1831.56 10371.8 1835.56 10376.8 1838.56 10381.8 1841.56 10386.8 1845.56 10391.8 1848.56 10397.8 1851.56 10402.8 1855.56 10407.8 1858.56 10412.8 1861.56 10417.8 1865.56 10422.8 1868.56 10427.8 1871.56 10433.8 1874.56 10438.8 1878.56 10443.8 1881.56 10448.8 1884.56 10453.8 1888.56 10458.8 1891.56 10463.8 1894.56 10469.8 1897.56 10474.8 1901.56 10479.8 1904.56 10484.8 1907.56 10489.8 1910.56 10494.8 1914.56 10499.8 1917.56 10505.8 1920.56 10510.8 1923.56 10515.8 1926.56 10520.8 1930.56 10525.8 1933.56 10530.8 1936.56 10535.8 1939.56 10541.8 1942.56 10546.8 1945.56 10551.8 1949.56 10556.8 1952.56 10561.8 1955.56 10566.8 1958.56 10571.8 1961.56 10577.8 1964.56 10582.8 1967.56 10587.8 1970.56 10592.8 1974.56 10597.8 1977.57 10602.8 1980.57 10607.8 1983.57 10613.8 1986.57 10618.8 1989.57 10623.8 1992.57 10628.8 1995.57 10633.8 1998.57 10638.8 2001.57 10643.8 2004.57 10649.8 2007.57 10654.8 2010.57 10659.8 2013.57 10664.8 2016.57 10669.9 2020.57 10674.9 2023.57 10679.9 2026.57 10685.9 2029.57 10690.9 2032.57 10695.9 2035.57 10700.9 2038.57 10705.9 2040.57 10710.9 2043.57 10715.9 2046.57 10721.9 2049.57 10726.9 2052.57 10731.9 2055.57 10736.9 2058.57 10741.9 2061.57 10746.9 2064.57 10751.9 2067.57 10757.9 2070.57 10762.9 2073.57 10767.9 2076.57 10772.9 2079.57 10777.9 2082.57 10782.9 2084.57 10787.9 2087.57 10793.9 2090.57 10798.9 2093.57 10803.9 2096.57 10808.9 2099.57 10813.9 2102.57 10818.9 2105.57 10823.9 2107.57 10829.9 2110.57 10834.9 2113.57 10839.9 2116.57 10844.9 2119.57 10849.9 2122.57 10854.9 2124.57 10859.9 2127.57 10865.9 2130.57 10870.9 2133.57 10875.9 2136.57 10880.9 2138.57 10885.9 2141.57 10890.9 2144.57 10895.9 2147.57 10901.9 2149.57 10906.9 2152.57 10911.9 2155.57 10916.9 2158.57 10921.9 2160.57 10926.9 2163.57 10931.9 2166.57 10937.9 2168.57 10942.9 2171.57 10947.9 2174.57 10952.9 2177.57 10957.9 2179.57 10962.9 2182.57 10967.9 2185.57 10973.9 2187.57 10978.9 2190.57 10983.9 2193.57 10988.9 2195.57 10993.9 2198.57 10998.9 2201.57 11003.9 2203.57 11009.9 2206.57 11014.9 2208.57 11019.9 2211.57 11024.9 2214.57 11029.9 2216.57 11034.9 2219.57 11039.9 2222.57 11045.9 2224.57 11050.9 2227.57 11055.9 2229.57 11060.9 2232.57 11065.9 2234.57 11070.9 2237.57 11075.9 2240.57 11080.9 2242.57 11086.9 2245.57 11091.9 2247.57 11096.9 2250.57 11101.9 2252.57 11106.9 2255.57 11111.9 2257.57 11116.9 2260.57 11122.9 2262.57 11127.9 2265.57 11132.9 2267.57 11137.9 2270.57 11142.9 2272.57 11147.9 2275.57 11152.9 2277.57 11158.9 2280.57 11163.9 2282.57 11168.9 2285.58 11173.9 2287.58 11178.9 2289.58 11183.9 2292.58 11188.9 2294.58 11194.9 2297.58 11199.9 2299.58 11204.9 2302.58 11209.9 2304.58 11214.9 2306.58 11219.9 2309.58 11224.9 2311.58 11230.9 2313.58 11235.9 2316.58 11240.9 2318.58 11245.9 2321.58 11250.9 2323.58 11255.9 2325.58 11260.9 2328.58 11266.9 2330.58 11271.9 2332.58 11276.9 2335.58 11281.9 2337.58 11286.9 2339.58 11291.9 2342.58 11296.9 2344.58 11302.9 2346.58 11307.9 2348.58 11312.9 2351.58 11317.9 2353.58 11322.9 2355.58 11327.9 2358.58 11332.9 2360.58 11338.9 2362.58 11343.9 2364.58 11348.9 2367.58 11353.9 2369.58 11358.9 2371.58 11363.9 2373.58 11368.9 2376.58 11374.9 2378.58 11379.9 2380.58 11384.9 2382.58 11389.9 2384.58 11394.9 2387.58 11399.9 2389.58 11404.9 2391.58 11410.9 2393.58 11415.9 2395.58 11420.9 2397.58 11425.9 2400.58 11430.9 2402.58 11435.9 2404.58 11440.9 2406.58 11446.9 2408.58 11451.9 2410.58 11456.9 2412.58 11461.9 2414.58 11466.9 2417.58 11471.9 2419.58 11476.9 2421.58 11482.9 2423.58 11487.9 2425.58 11492.9 2427.58 11497.9 2429.58 11502.9 2431.58 11507.9 2433.58 11512.9 2435.58 11518.9 2437.58 11523.9 2439.58 11528.9 2441.58 11533.9 2443.58 11538.9 2445.58 11543.9 2448.58 11548.9 2450.58 11554.9 2452.58 11559.9 2454.58 11564.9 2456.58 11569.9 2458.58 11574.9 2460.58 11579.9 2461.58 11584.9 2463.58 11590.9 2465.58 11595.9 2467.58 11600.9 2469.58 11605.9 2471.58 11610.9 2473.58 11615.9 2475.58 11620.9 2477.58 11626.9 2479.58 11631.9 2481.58 11636.9 2483.58 11641.9 2485.58 11646.9 2487.58 11651.9 2489.58 11656.9 2490.58 11662.9 2492.58 11667.9 2494.58 11672.9 2496.58 11677.9 2498.58 11682.9 2500.58 11687.9 2502.58 11692.9 2504.58 11698.9 2505.58 11703.9 2507.58 11708.9 2509.58 11713.9 2511.58 11718.9 2513.58 11723.9 2515.58 11728.9 2516.58 11734.9 2518.58 11739.9 2520.58 11744.9 2522.58 11749.9 2523.58 11754.9 2525.58 11759.9 2527.58 11764.9 2529.58 11770.9 2531.58 11775.9 2532.58 11780.9 2534.58 11785.9 2536.58 11790.9 2538.58 11795.9 2539.58 11800.9 2541.58 11806.9 2543.58 11811.9 2544.58 11816.9 2546.58 11821.9 2548.58 11826.9 2550.58 11831.9 2551.58 11836.9 2553.58 11842.9 2555.58 11847.9 2556.58 11852.9 2558.58 11857.9 2560.58 11862.9 2561.58 11867.9 2563.58 11872.9 2565.58 11878.9 2566.58 11883.9 2568.58 11888.9 2569.58 11893.9 2571.58 11898.9 2573.58 11903.9 2574.58 11908.9 2576.58 11914.9 2578.58 11919.9 2579.58 11924.9 2581.58 11929.9 2582.58 11934.9 2584.58 11939.9 2585.58 11944.9 2587.58 11950.9 2589.58 11955.9 2590.59 11960.9 2592.59 11965.9 2593.59 11970.9 2595.59 11975.9 2596.59 11980.9 2598.59 11985.9 2599.59 11991.9 2601.59 11996.9 2602.59 12001.9 2604.59 12006.9 2605.59 12011.9 2607.59 12016.9 2608.59 12021.9 2610.59 12027.9 2611.59 12032.9 2613.59 12037.9 2614.59 12042.9 2616.59 12047.9 2617.59 12052.9 2618.59 12057.9 2620.59 12063.9 2621.59 12068.9 2623.59 12073.9 2624.59 12078.9 2625.59 12083.9 2627.59 12088.9 2628.59 12093.9 2630.59 12099.9 2631.59 12104.9 2632.59 12109.9 2634.59 12114.9 2635.59 12119.9 2637.59 12124.9 2638.59 12129.9 2639.59 12135.9 2641.59 12140.9 2642.59 12145.9 2643.59 12150.9 2645.59 12155.9 2646.59 12160.9 2647.59 12165.9 2649.59 12171.9 2650.59 12176.9 2651.59 12181.9 2652.59 12186.9 2654.59 12191.9 2655.59 12196.9 2656.59 12201.9 2658.59 12207.9 2659.59 12212.9 2660.59 12217.9 2661.59 12222.9 2663.59 12227.9 2664.59 12232.9 2665.59 12237.9 2666.59 12243.9 2667.59 12248.9 2669.59 12253.9 2670.59 12258.9 2671.59 12263.9 2672.59 12268.9 2673.59 12273.9 2675.59 12279.9 2676.59 12284.9 2677.59 12289.9 2678.59 12294.9 2679.59 12299.9 2680.59 12304.9 2682.59 12309.9 2683.59 12315.9 2684.59 12320.9 2685.59 12325.9 2686.59 12330.9 2687.59 12335.9 2688.59 12340.9 2690.59 12345.9 2691.59 12351.9 2692.59 12356.9 2693.59 12361.9 2694.59 12366.9 2695.59 12371.9 2696.59 12376.9 2697.59 12381.9 2698.59 12387.9 2699.59 12392.9 2700.59 12397.9 2701.59 12402.9 2702.59 12407.9 2703.59 12412.9 2704.59 12417.9 2705.59 12423.9 2706.59 12428.9 2707.59 12433.9 2708.59 12438.9 2709.59 12443.9 2710.59 12448.9 2711.59 12453.9 2712.59 12459.9 2713.59 12464.9 2714.59 12469.9 2715.59 12474.9 2716.59 12479.9 2717.59 12484.9 2718.59 12489.9 2719.59 12495.9 2720.59 12500.9 2721.59 12505.9 2722.59 12510.9 2723.59 12515.9 2724.59 12520.9 2725.59 12525.9 2725.59 12531.9 2726.59 12536.9 2727.59 12541.9 2728.59 12546.9 2729.59 12551.9 2730.59 12556.9 2731.59 12561.9 2732.59 12567.9 2732.59 12572.9 2733.59 12577.9 2734.59 12582.9 2735.59 12587.9 2736.59 12592.9 2737.59 12597.9 2737.59 12603.9 2738.59 12608.9 2739.59 12613.9 2740.59 12618.9 2741.59 12623.9 2741.59 12628.9 2742.59 12633.9 2743.59 12639.9 2744.59 12644.9 2744.59 12649.9 2745.59 12654.9 2746.59 12659.9 2747.59 12664.9 2747.59 12669.9 2748.59 12675.9 2749.59 12680.9 2750.59 12685.9 2750.59 12690.9 2751.59 12696.5 2752.5" stroke="#C00000" stroke-width="6.875" stroke-linecap="round" stroke-linejoin="round" stroke-miterlimit="10" fill="none"/></g><g clip-path="url(#clip5)"><path d="M10268.5 1758.5 10273.8 1759.56 10278.8 1761.56 10283.8 1763.56 10289.8 1764.56 10294.8 1766.56 10299.8 1767.56 10304.8 1769.56 10309.8 1771.56 10314.8 1772.56 10319.8 1774.56 10325.8 1775.56 10330.8 1777.56 10335.8 1779.56 10340.8 1780.56 10345.8 1782.56 10350.8 1783.56 10355.8 1785.56 10361.8 1786.56 10366.8 1788.56 10371.8 1790.56 10376.8 1791.56 10381.8 1793.56 10386.8 1794.56 10391.8 1796.56 10397.8 1798.56 10402.8 1799.56 10407.8 1801.56 10412.8 1802.56 10417.8 1804.56 10422.8 1805.56 10427.8 1807.56 10433.8 1809.56 10438.8 1810.56 10443.8 1812.56 10448.8 1813.56 10453.8 1815.56 10458.8 1816.56 10463.8 1818.56 10469.8 1819.56 10474.8 1821.56 10479.8 1823.56 10484.8 1824.56 10489.8 1826.56 10494.8 1827.56 10499.8 1829.56 10505.8 1830.56 10510.8 1832.56 10515.8 1833.56 10520.8 1835.56 10525.8 1837.56 10530.8 1838.56 10535.8 1840.56 10541.8 1841.56 10546.8 1843.56 10551.8 1844.56 10556.8 1846.56 10561.8 1847.56 10566.8 1849.56 10571.8 1850.56 10577.8 1852.56 10582.8 1853.56 10587.8 1855.56 10592.8 1856.56 10597.8 1858.56 10602.8 1860.56 10607.8 1861.56 10613.8 1863.56 10618.8 1864.56 10623.8 1866.56 10628.8 1867.56 10633.8 1869.56 10638.8 1870.56 10643.8 1872.56 10649.8 1873.56 10654.8 1875.56 10659.8 1876.56 10664.8 1878.56 10669.9 1879.56 10674.9 1881.56 10679.9 1882.56 10685.9 1884.56 10690.9 1885.56 10695.9 1887.56 10700.9 1888.56 10705.9 1890.56 10710.9 1891.56 10715.9 1893.56 10721.9 1894.56 10726.9 1896.56 10731.9 1897.56 10736.9 1899.56 10741.9 1900.56 10746.9 1902.56 10751.9 1903.56 10757.9 1905.56 10762.9 1906.56 10767.9 1908.56 10772.9 1909.56 10777.9 1911.56 10782.9 1912.56 10787.9 1914.56 10793.9 1915.56 10798.9 1916.56 10803.9 1918.56 10808.9 1919.56 10813.9 1921.56 10818.9 1922.56 10823.9 1924.56 10829.9 1925.56 10834.9 1927.56 10839.9 1928.56 10844.9 1930.56 10849.9 1931.56 10854.9 1933.56 10859.9 1934.56 10865.9 1936.56 10870.9 1937.56 10875.9 1938.56 10880.9 1940.56 10885.9 1941.56 10890.9 1943.56 10895.9 1944.56 10901.9 1946.56 10906.9 1947.56 10911.9 1949.56 10916.9 1950.56 10921.9 1951.56 10926.9 1953.56 10931.9 1954.56 10937.9 1956.56 10942.9 1957.56 10947.9 1959.56 10952.9 1960.56 10957.9 1962.56 10962.9 1963.56 10967.9 1964.56 10973.9 1966.56 10978.9 1967.56 10983.9 1969.56 10988.9 1970.56 10993.9 1972.56 10998.9 1973.56 11003.9 1974.56 11009.9 1976.57 11014.9 1977.57 11019.9 1979.57 11024.9 1980.57 11029.9 1981.57 11034.9 1983.57 11039.9 1984.57 11045.9 1986.57 11050.9 1987.57 11055.9 1989.57 11060.9 1990.57 11065.9 1991.57 11070.9 1993.57 11075.9 1994.57 11080.9 1996.57 11086.9 1997.57 11091.9 1998.57 11096.9 2000.57 11101.9 2001.57 11106.9 2003.57 11111.9 2004.57 11116.9 2005.57 11122.9 2007.57 11127.9 2008.57 11132.9 2010.57 11137.9 2011.57 11142.9 2012.57 11147.9 2014.57 11152.9 2015.57 11158.9 2016.57 11163.9 2018.57 11168.9 2019.57 11173.9 2021.57 11178.9 2022.57 11183.9 2023.57 11188.9 2025.57 11194.9 2026.57 11199.9 2028.57 11204.9 2029.57 11209.9 2030.57 11214.9 2032.57 11219.9 2033.57 11224.9 2034.57 11230.9 2036.57 11235.9 2037.57 11240.9 2038.57 11245.9 2040.57 11250.9 2041.57 11255.9 2043.57 11260.9 2044.57 11266.9 2045.57 11271.9 2047.57 11276.9 2048.57 11281.9 2049.57 11286.9 2051.57 11291.9 2052.57 11296.9 2053.57 11302.9 2055.57 11307.9 2056.57 11312.9 2057.57 11317.9 2059.57 11322.9 2060.57 11327.9 2061.57 11332.9 2063.57 11338.9 2064.57 11343.9 2065.57 11348.9 2067.57 11353.9 2068.57 11358.9 2069.57 11363.9 2071.57 11368.9 2072.57 11374.9 2073.57 11379.9 2075.57 11384.9 2076.57 11389.9 2077.57 11394.9 2079.57 11399.9 2080.57 11404.9 2081.57 11410.9 2083.57 11415.9 2084.57 11420.9 2085.57 11425.9 2087.57 11430.9 2088.57 11435.9 2089.57 11440.9 2091.57 11446.9 2092.57 11451.9 2093.57 11456.9 2095.57 11461.9 2096.57 11466.9 2097.57 11471.9 2098.57 11476.9 2100.57 11482.9 2101.57 11487.9 2102.57 11492.9 2104.57 11497.9 2105.57 11502.9 2106.57 11507.9 2108.57 11512.9 2109.57 11518.9 2110.57 11523.9 2111.57 11528.9 2113.57 11533.9 2114.57 11538.9 2115.57 11543.9 2117.57 11548.9 2118.57 11554.9 2119.57 11559.9 2120.57 11564.9 2122.57 11569.9 2123.57 11574.9 2124.57 11579.9 2126.57 11584.9 2127.57 11590.9 2128.57 11595.9 2129.57 11600.9 2131.57 11605.9 2132.57 11610.9 2133.57 11615.9 2134.57 11620.9 2136.57 11626.9 2137.57 11631.9 2138.57 11636.9 2139.57 11641.9 2141.57 11646.9 2142.57 11651.9 2143.57 11656.9 2145.57 11662.9 2146.57 11667.9 2147.57 11672.9 2148.57 11677.9 2150.57 11682.9 2151.57 11687.9 2152.57 11692.9 2153.57 11698.9 2155.57 11703.9 2156.57 11708.9 2157.57 11713.9 2158.57 11718.9 2159.57 11723.9 2161.57 11728.9 2162.57 11734.9 2163.57 11739.9 2164.57 11744.9 2166.57 11749.9 2167.57 11754.9 2168.57 11759.9 2169.57 11764.9 2171.57 11770.9 2172.57 11775.9 2173.57 11780.9 2174.57 11785.9 2176.57 11790.9 2177.57 11795.9 2178.57 11800.9 2179.57 11806.9 2180.57 11811.9 2182.57 11816.9 2183.57 11821.9 2184.57 11826.9 2185.57 11831.9 2186.57 11836.9 2188.57 11842.9 2189.57 11847.9 2190.57 11852.9 2191.57 11857.9 2193.57 11862.9 2194.57 11867.9 2195.57 11872.9 2196.57 11878.9 2197.57 11883.9 2199.57 11888.9 2200.57 11893.9 2201.57 11898.9 2202.57 11903.9 2203.57 11908.9 2205.57 11914.9 2206.57 11919.9 2207.57 11924.9 2208.57 11929.9 2209.57 11934.9 2210.57 11939.9 2212.57 11944.9 2213.57 11950.9 2214.57 11955.9 2215.57 11960.9 2216.57 11965.9 2218.57 11970.9 2219.57 11975.9 2220.57 11980.9 2221.57 11985.9 2222.57 11991.9 2223.57 11996.9 2225.57 12001.9 2226.57 12006.9 2227.57 12011.9 2228.57 12016.9 2229.57 12021.9 2230.57 12027.9 2232.57 12032.9 2233.57 12037.9 2234.57 12042.9 2235.57 12047.9 2236.57 12052.9 2237.57 12057.9 2239.57 12063.9 2240.57 12068.9 2241.57 12073.9 2242.57 12078.9 2243.57 12083.9 2244.57 12088.9 2245.57 12093.9 2247.57 12099.9 2248.57 12104.9 2249.57 12109.9 2250.57 12114.9 2251.57 12119.9 2252.57 12124.9 2253.57 12129.9 2255.57 12135.9 2256.57 12140.9 2257.57 12145.9 2258.57 12150.9 2259.57 12155.9 2260.57 12160.9 2261.57 12165.9 2263.57 12171.9 2264.57 12176.9 2265.57 12181.9 2266.57 12186.9 2267.57 12191.9 2268.57 12196.9 2269.57 12201.9 2270.57 12207.9 2272.57 12212.9 2273.57 12217.9 2274.57 12222.9 2275.57 12227.9 2276.57 12232.9 2277.57 12237.9 2278.57 12243.9 2279.57 12248.9 2280.57 12253.9 2282.58 12258.9 2283.58 12263.9 2284.58 12268.9 2285.58 12273.9 2286.58 12279.9 2287.58 12284.9 2288.58 12289.9 2289.58 12294.9 2290.58 12299.9 2291.58 12304.9 2293.58 12309.9 2294.58 12315.9 2295.58 12320.9 2296.58 12325.9 2297.58 12330.9 2298.58 12335.9 2299.58 12340.9 2300.58 12345.9 2301.58 12351.9 2302.58 12356.9 2303.58 12361.9 2304.58 12366.9 2306.58 12371.9 2307.58 12376.9 2308.58 12381.9 2309.58 12387.9 2310.58 12392.9 2311.58 12397.9 2312.58 12402.9 2313.58 12407.9 2314.58 12412.9 2315.58 12417.9 2316.58 12423.9 2317.58 12428.9 2318.58 12433.9 2319.58 12438.9 2321.58 12443.9 2322.58 12448.9 2323.58 12453.9 2324.58 12459.9 2325.58 12464.9 2326.58 12469.9 2327.58 12474.9 2328.58 12479.9 2329.58 12484.9 2330.58 12489.9 2331.58 12495.9 2332.58 12500.9 2333.58 12505.9 2334.58 12510.9 2335.58 12515.9 2336.58 12520.9 2337.58 12525.9 2338.58 12531.9 2339.58 12536.9 2340.58 12541.9 2341.58 12546.9 2342.58 12551.9 2343.58 12556.9 2345.58 12561.9 2346.58 12567.9 2347.58 12572.9 2348.58 12577.9 2349.58 12582.9 2350.58 12587.9 2351.58 12592.9 2352.58 12597.9 2353.58 12603.9 2354.58 12608.9 2355.58 12613.9 2356.58 12618.9 2357.58 12623.9 2358.58 12628.9 2359.58 12633.9 2360.58 12639.9 2361.58 12644.9 2362.58 12649.9 2363.58 12654.9 2364.58 12659.9 2365.58 12664.9 2366.58 12669.9 2367.58 12675.9 2368.58 12680.9 2369.58 12685.9 2370.58 12690.9 2371.58 12696.5 2372.5" stroke="#C00000" stroke-width="6.875" stroke-linecap="round" stroke-linejoin="round" stroke-miterlimit="10" stroke-dasharray="20.625 27.5" fill="none"/></g><g><text font-family="Arial,Arial_MSFontService,sans-serif" font-weight="400" font-size="46" transform="matrix(1 0 0 1 10248 1715)">0</text></g><g><text font-family="Arial,Arial_MSFontService,sans-serif" font-weight="400" font-size="46" transform="matrix(1 0 0 1 10452.8 1715)">100</text></g><g><text font-family="Arial,Arial_MSFontService,sans-serif" font-weight="400" font-size="46" transform="matrix(1 0 0 1 10683 1715)">200</text></g><g><text font-family="Arial,Arial_MSFontService,sans-serif" font-weight="400" font-size="46" transform="matrix(1 0 0 1 10913.2 1715)">300</text></g><g><text font-family="Arial,Arial_MSFontService,sans-serif" font-weight="400" font-size="46" transform="matrix(1 0 0 1 11143.4 1715)">400</text></g><g><text font-family="Arial,Arial_MSFontService,sans-serif" font-weight="400" font-size="46" transform="matrix(1 0 0 1 11373.7 1715)">500</text></g><g><text font-family="Arial,Arial_MSFontService,sans-serif" font-weight="400" font-size="46" transform="matrix(1 0 0 1 11603.9 1715)">600</text></g><g><text font-family="Arial,Arial_MSFontService,sans-serif" font-weight="400" font-size="46" transform="matrix(1 0 0 1 11834.1 1715)">700</text></g><g><text font-family="Arial,Arial_MSFontService,sans-serif" font-weight="400" font-size="46" transform="matrix(1 0 0 1 10132.1 2615)">0.60</text></g><g><text font-family="Arial,Arial_MSFontService,sans-serif" font-weight="400" font-size="46" transform="matrix(1 0 0 1 10132.1 2509)">0.65</text></g><g><text font-family="Arial,Arial_MSFontService,sans-serif" font-weight="400" font-size="46" transform="matrix(1 0 0 1 10132.1 2403)">0.70</text></g><g><text font-family="Arial,Arial_MSFontService,sans-serif" font-weight="400" font-size="46" transform="matrix(1 0 0 1 10132.1 2298)">0.75</text></g><g><text font-family="Arial,Arial_MSFontService,sans-serif" font-weight="400" font-size="46" transform="matrix(1 0 0 1 10132.1 2192)">0.80</text></g><g><text font-family="Arial,Arial_MSFontService,sans-serif" font-weight="400" font-size="46" transform="matrix(1 0 0 1 10132.1 2087)">0.85</text></g><g><text font-family="Arial,Arial_MSFontService,sans-serif" font-weight="400" font-size="46" transform="matrix(1 0 0 1 10132.1 1981)">0.90</text></g><g><text font-family="Arial,Arial_MSFontService,sans-serif" font-weight="400" font-size="46" transform="matrix(1 0 0 1 10132.1 1875)">0.95</text></g><g><text font-family="Arial,Arial_MSFontService,sans-serif" font-weight="400" font-size="46" transform="matrix(1 0 0 1 10132.1 1770)">1.00</text></g><g><text font-family="Arial,Arial_MSFontService,sans-serif" font-weight="400" font-size="46" transform="matrix(1 0 0 1 10248 2669)">0</text></g><g><text font-family="Arial,Arial_MSFontService,sans-serif" font-weight="400" font-size="46" transform="matrix(1 0 0 1 10653.9 2669)">5</text></g><g><text font-family="Arial,Arial_MSFontService,sans-serif" font-weight="400" font-size="46" transform="matrix(1 0 0 1 11047 2669)">10</text></g><g><text font-family="Arial,Arial_MSFontService,sans-serif" font-weight="400" font-size="46" transform="matrix(1 0 0 1 11452.9 2669)">15</text></g><g><text font-family="Arial,Arial_MSFontService,sans-serif" font-weight="400" font-size="46" transform="matrix(1 0 0 1 11858.8 2669)">20</text></g><g><text font-family="Arial,Arial_MSFontService,sans-serif" font-weight="400" font-size="55" transform="matrix(1 0 0 1 10736.2 1651)">Equivalent Full Power Days</text></g><g><text font-family="Arial,Arial_MSFontService,sans-serif" font-weight="400" font-size="55" transform="matrix(6.12323e-17 -1 1 6.12323e-17 10107.1 2457)">Pu Quality [Pu</text></g><g><text font-family="Arial,Arial_MSFontService,sans-serif" font-weight="400" font-size="55" transform="matrix(6.12323e-17 -1 1 6.12323e-17 10107.1 2105)">-</text></g><g><text font-family="Arial,Arial_MSFontService,sans-serif" font-weight="400" font-size="55" transform="matrix(6.12323e-17 -1 1 6.12323e-17 10107.1 2087)">239/Pu]</text></g><g><text font-family="Arial,Arial_MSFontService,sans-serif" font-weight="400" font-size="55" transform="matrix(1 0 0 1 10801 2744)">Burnup [MWd/kg UO</text></g><g><text font-family="Arial,Arial_MSFontService,sans-serif" font-weight="400" font-size="37" transform="matrix(1 0 0 1 11308.4 2757)">2</text></g><g><text font-family="Arial,Arial_MSFontService,sans-serif" font-weight="400" font-size="55" transform="matrix(1 0 0 1 11328.8 2744)">]</text></g></g></svg>