<svg width="2026" height="1232" xmlns="http://www.w3.org/2000/svg" xmlns:xlink="http://www.w3.org/1999/xlink" xml:space="preserve" overflow="hidden"><defs><clipPath id="clip0"><rect x="9967" y="4196" width="2026" height="1232"/></clipPath><clipPath id="clip1"><rect x="10229" y="4409" width="1634" height="809"/></clipPath><clipPath id="clip2"><rect x="10229" y="4409" width="1634" height="809"/></clipPath><clipPath id="clip3"><rect x="10229" y="4409" width="1634" height="809"/></clipPath><clipPath id="clip4"><rect x="10229" y="4409" width="1634" height="809"/></clipPath></defs><g clip-path="url(#clip0)" transform="translate(-9967 -4196)"><rect x="9967" y="4196" width="2026" height="1232" fill="#FFFFFF"/><g><path d="M10229.5 5099.67 11859.5 5099.67M10229.5 4984.66 11859.5 4984.66M10229.5 4869.66 11859.5 4869.66M10229.5 4754.66 11859.5 4754.66M10229.5 4639.65 11859.5 4639.65M10229.5 4524.65 11859.5 4524.65M10229.5 4409.5 11859.5 4409.5" stroke="#D9D9D9" stroke-width="3.4375" stroke-linejoin="round" stroke-miterlimit="10" fill="none"/></g><g><path d="M10636.8 4409.5 10636.8 5214.5M11044.9 4409.5 11044.9 5214.5M11451.9 4409.5 11451.9 5214.5M11859.5 4409.5 11859.5 5214.5" stroke="#D9D9D9" stroke-width="3.4375" stroke-linejoin="round" stroke-miterlimit="10" fill="none"/></g><g><rect x="10229.5" y="4409.5" width="1630" height="805" stroke="#000000" stroke-width="3.4375" stroke-linejoin="round" stroke-miterlimit="10" fill="none"/></g><g><path d="M10229.5 4409.5 11859.5 4409.5" stroke="#000000" stroke-width="3.4375" stroke-linejoin="round" stroke-miterlimit="10" fill="none" fill-rule="evenodd"/></g><g><path d="M10229.5 4395.5 10229.5 4409.5M10460.8 4395.5 10460.8 4409.5M10691.9 4395.5 10691.9 4409.5M10922.9 4395.5 10922.9 4409.5M11153.9 4395.5 11153.9 4409.5M11385.9 4395.5 11385.9 4409.5M11616.9 4395.5 11616.9 4409.5M11847.5 4395.5 11847.5 4409.5" stroke="#000000" stroke-width="3.4375" stroke-linejoin="round" stroke-miterlimit="10" fill="none"/></g><g><path d="M0 0 0.000360892 805" stroke="#000000" stroke-width="3.4375" stroke-linejoin="round" stroke-miterlimit="10" fill="none" fill-rule="evenodd" transform="matrix(1 0 0 -1 10229.5 5214.5)"/></g><g><path d="M10229.5 5214.5 11859.5 5214.5" stroke="#000000" stroke-width="3.4375" stroke-linejoin="round" stroke-miterlimit="10" fill="none" fill-rule="evenodd"/></g><g clip-path="url(#clip1)"><path d="M10229.5 4596.5 10237.8 4686.65 10310.8 4717.65 10555.8 4791.66 10799.9 4871.66 11044.9 4945.66 11859.9 5156.67 12675.5 5342.5" stroke="#C00000" stroke-width="4.58333" stroke-linecap="round" stroke-linejoin="round" stroke-miterlimit="10" fill="none"/></g><g><path d="M10241.6 4597.68C10241.6 4604.03 10236.4 4609.18 10230.1 4609.18 10223.7 4609.18 10218.6 4604.03 10218.6 4597.68 10218.6 4591.32 10223.7 4586.18 10230.1 4586.18 10236.4 4586.18 10241.6 4591.32 10241.6 4597.68Z" fill="#C00000"/><path d="M10249.6 4687.68C10249.6 4694.03 10244.4 4699.18 10238.1 4699.18 10231.7 4699.18 10226.6 4694.03 10226.6 4687.68 10226.6 4681.32 10231.7 4676.18 10238.1 4676.18 10244.4 4676.18 10249.6 4681.32 10249.6 4687.68Z" fill="#C00000"/><path d="M10322.6 4718.68C10322.6 4725.03 10317.4 4730.18 10311.1 4730.18 10304.7 4730.18 10299.6 4725.03 10299.6 4718.68 10299.6 4712.32 10304.7 4707.18 10311.1 4707.18 10317.4 4707.18 10322.6 4712.32 10322.6 4718.68Z" fill="#C00000"/><path d="M10567.6 4792.68C10567.6 4799.03 10562.4 4804.18 10556.1 4804.18 10549.7 4804.18 10544.6 4799.03 10544.6 4792.68 10544.6 4786.32 10549.7 4781.18 10556.1 4781.18 10562.4 4781.18 10567.6 4786.32 10567.6 4792.68Z" fill="#C00000"/><path d="M10811.6 4872.68C10811.6 4879.03 10806.4 4884.18 10800.1 4884.18 10793.7 4884.18 10788.6 4879.03 10788.6 4872.68 10788.6 4866.32 10793.7 4861.18 10800.1 4861.18 10806.4 4861.18 10811.6 4866.32 10811.6 4872.68Z" fill="#C00000"/><path d="M11056.6 4945.68C11056.6 4952.03 11051.4 4957.18 11045.1 4957.18 11038.7 4957.18 11033.6 4952.03 11033.6 4945.68 11033.6 4939.32 11038.7 4934.18 11045.1 4934.18 11051.4 4934.18 11056.6 4939.32 11056.6 4945.68Z" fill="#C00000"/><path d="M11871.6 5157.68C11871.6 5164.03 11866.4 5169.18 11860.1 5169.18 11853.7 5169.18 11848.6 5164.03 11848.6 5157.68 11848.6 5151.32 11853.7 5146.18 11860.1 5146.18 11866.4 5146.18 11871.6 5151.32 11871.6 5157.68Z" fill="#C00000"/></g><g clip-path="url(#clip2)"><path d="M10229.5 4669.5 10237.8 4745.66 10310.8 4774.66 10555.8 4838.66 10799.9 4902.66 11044.9 4966.66 11859.9 5145.67 12675.5 5311.5" stroke="#0070C0" stroke-width="4.58333" stroke-linecap="round" stroke-linejoin="round" stroke-miterlimit="10" fill="none"/></g><g><path d="M10241.6 4670.68C10241.6 4677.03 10236.4 4682.18 10230.1 4682.18 10223.7 4682.18 10218.6 4677.03 10218.6 4670.68 10218.6 4664.32 10223.7 4659.18 10230.1 4659.18 10236.4 4659.18 10241.6 4664.32 10241.6 4670.68Z" fill="#0070C0"/><path d="M10249.6 4746.68C10249.6 4753.03 10244.4 4758.18 10238.1 4758.18 10231.7 4758.18 10226.6 4753.03 10226.6 4746.68 10226.6 4740.32 10231.7 4735.18 10238.1 4735.18 10244.4 4735.18 10249.6 4740.32 10249.6 4746.68Z" fill="#0070C0"/><path d="M10322.6 4775.68C10322.6 4782.03 10317.4 4787.18 10311.1 4787.18 10304.7 4787.18 10299.6 4782.03 10299.6 4775.68 10299.6 4769.32 10304.7 4764.18 10311.1 4764.18 10317.4 4764.18 10322.6 4769.32 10322.6 4775.68Z" fill="#0070C0"/><path d="M10567.6 4838.68C10567.6 4845.03 10562.4 4850.18 10556.1 4850.18 10549.7 4850.18 10544.6 4845.03 10544.6 4838.68 10544.6 4832.32 10549.7 4827.18 10556.1 4827.18 10562.4 4827.18 10567.6 4832.32 10567.6 4838.68Z" fill="#0070C0"/><path d="M10811.6 4903.68C10811.6 4910.03 10806.4 4915.18 10800.1 4915.18 10793.7 4915.18 10788.6 4910.03 10788.6 4903.68 10788.6 4897.32 10793.7 4892.18 10800.1 4892.18 10806.4 4892.18 10811.6 4897.32 10811.6 4903.68Z" fill="#0070C0"/><path d="M11056.6 4967.68C11056.6 4974.03 11051.4 4979.18 11045.1 4979.18 11038.7 4979.18 11033.6 4974.03 11033.6 4967.68 11033.6 4961.32 11038.7 4956.18 11045.1 4956.18 11051.4 4956.18 11056.6 4961.32 11056.6 4967.68Z" fill="#0070C0"/><path d="M11871.6 5146.68C11871.6 5153.03 11866.4 5158.18 11860.1 5158.18 11853.7 5158.18 11848.6 5153.03 11848.6 5146.68 11848.6 5140.32 11853.7 5135.18 11860.1 5135.18 11866.4 5135.18 11871.6 5140.32 11871.6 5146.68Z" fill="#0070C0"/></g><g clip-path="url(#clip3)"><path d="M10229.5 4445.5 10237.8 4536.65 10310.8 4572.65 10555.8 4646.65 10799.9 4722.66 11044.9 4794.66 11859.9 4997.66 12674.9 5182.67 13489.9 5347.68 14305.5 5486.5" stroke="#000000" stroke-width="4.58333" stroke-linecap="round" stroke-linejoin="round" stroke-miterlimit="10" fill="none"/></g><g><path d="M10241.6 4446.68C10241.6 4453.03 10236.4 4458.18 10230.1 4458.18 10223.7 4458.18 10218.6 4453.03 10218.6 4446.68 10218.6 4440.32 10223.7 4435.18 10230.1 4435.18 10236.4 4435.18 10241.6 4440.32 10241.6 4446.68Z"/><path d="M10249.6 4536.68C10249.6 4543.03 10244.4 4548.18 10238.1 4548.18 10231.7 4548.18 10226.6 4543.03 10226.6 4536.68 10226.6 4530.32 10231.7 4525.18 10238.1 4525.18 10244.4 4525.18 10249.6 4530.32 10249.6 4536.68Z"/><path d="M10322.6 4573.68C10322.6 4580.03 10317.4 4585.18 10311.1 4585.18 10304.7 4585.18 10299.6 4580.03 10299.6 4573.68 10299.6 4567.32 10304.7 4562.18 10311.1 4562.18 10317.4 4562.18 10322.6 4567.32 10322.6 4573.68Z"/><path d="M10567.6 4646.68C10567.6 4653.03 10562.4 4658.18 10556.1 4658.18 10549.7 4658.18 10544.6 4653.03 10544.6 4646.68 10544.6 4640.32 10549.7 4635.18 10556.1 4635.18 10562.4 4635.18 10567.6 4640.32 10567.6 4646.68Z"/><path d="M10811.6 4723.68C10811.6 4730.03 10806.4 4735.18 10800.1 4735.18 10793.7 4735.18 10788.6 4730.03 10788.6 4723.68 10788.6 4717.32 10793.7 4712.18 10800.1 4712.18 10806.4 4712.18 10811.6 4717.32 10811.6 4723.68Z"/><path d="M11056.6 4794.68C11056.6 4801.03 11051.4 4806.18 11045.1 4806.18 11038.7 4806.18 11033.6 4801.03 11033.6 4794.68 11033.6 4788.32 11038.7 4783.18 11045.1 4783.18 11051.4 4783.18 11056.6 4788.32 11056.6 4794.68Z"/><path d="M11871.6 4997.68C11871.6 5004.03 11866.4 5009.18 11860.1 5009.18 11853.7 5009.18 11848.6 5004.03 11848.6 4997.68 11848.6 4991.32 11853.7 4986.18 11860.1 4986.18 11866.4 4986.18 11871.6 4991.32 11871.6 4997.68Z"/></g><g clip-path="url(#clip4)"><path d="M10229.5 4508.5 10237.8 4591.65 10310.8 4626.65 10555.8 4697.65 10799.9 4769.66 11044.9 4837.66 11859.9 5033.67 12675.5 5214.5" stroke="#0070C0" stroke-width="6.875" stroke-linecap="round" stroke-linejoin="round" stroke-miterlimit="10" stroke-dasharray="20.625 27.5" fill="none"/></g><g><path d="M10240.1 4508.68C10240.1 4514.75 10235.1 4519.68 10229.1 4519.68 10223 4519.68 10218.1 4514.75 10218.1 4508.68 10218.1 4502.6 10223 4497.68 10229.1 4497.68 10235.1 4497.68 10240.1 4502.6 10240.1 4508.68Z" stroke="#4472C4" stroke-width="3.4375" stroke-linejoin="round" stroke-miterlimit="10" fill="#4472C4"/><path d="M10248.1 4591.68C10248.1 4597.75 10243.1 4602.68 10237.1 4602.68 10231 4602.68 10226.1 4597.75 10226.1 4591.68 10226.1 4585.6 10231 4580.68 10237.1 4580.68 10243.1 4580.68 10248.1 4585.6 10248.1 4591.68Z" stroke="#4472C4" stroke-width="3.4375" stroke-linejoin="round" stroke-miterlimit="10" fill="#4472C4"/><path d="M10322.1 4626.68C10322.1 4632.75 10317.1 4637.68 10311.1 4637.68 10305 4637.68 10300.1 4632.75 10300.1 4626.68 10300.1 4620.6 10305 4615.68 10311.1 4615.68 10317.1 4615.68 10322.1 4620.6 10322.1 4626.68Z" stroke="#4472C4" stroke-width="3.4375" stroke-linejoin="round" stroke-miterlimit="10" fill="#4472C4"/><path d="M10566.1 4697.68C10566.1 4703.75 10561.1 4708.68 10555.1 4708.68 10549 4708.68 10544.1 4703.75 10544.1 4697.68 10544.1 4691.6 10549 4686.68 10555.1 4686.68 10561.1 4686.68 10566.1 4691.6 10566.1 4697.68Z" stroke="#4472C4" stroke-width="3.4375" stroke-linejoin="round" stroke-miterlimit="10" fill="#4472C4"/><path d="M10811.1 4770.68C10811.1 4776.75 10806.1 4781.68 10800.1 4781.68 10794 4781.68 10789.1 4776.75 10789.1 4770.68 10789.1 4764.6 10794 4759.68 10800.1 4759.68 10806.1 4759.68 10811.1 4764.6 10811.1 4770.68Z" stroke="#4472C4" stroke-width="3.4375" stroke-linejoin="round" stroke-miterlimit="10" fill="#4472C4"/><path d="M11055.1 4837.68C11055.1 4843.75 11050.1 4848.68 11044.1 4848.68 11038 4848.68 11033.1 4843.75 11033.1 4837.68 11033.1 4831.6 11038 4826.68 11044.1 4826.68 11050.1 4826.68 11055.1 4831.6 11055.1 4837.68Z" stroke="#4472C4" stroke-width="3.4375" stroke-linejoin="round" stroke-miterlimit="10" fill="#4472C4"/><path d="M11870.1 5033.68C11870.1 5039.75 11865.1 5044.68 11859.1 5044.68 11853 5044.68 11848.1 5039.75 11848.1 5033.68 11848.1 5027.6 11853 5022.68 11859.1 5022.68 11865.1 5022.68 11870.1 5027.6 11870.1 5033.68Z" stroke="#4472C4" stroke-width="3.4375" stroke-linejoin="round" stroke-miterlimit="10" fill="#4472C4"/></g><g><text font-family="Arial,Arial_MSFontService,sans-serif" font-weight="400" font-size="46" transform="matrix(1 0 0 1 10216.8 4370)">0</text></g><g><text font-family="Arial,Arial_MSFontService,sans-serif" font-weight="400" font-size="46" transform="matrix(1 0 0 1 10422.5 4370)">100</text></g><g><text font-family="Arial,Arial_MSFontService,sans-serif" font-weight="400" font-size="46" transform="matrix(1 0 0 1 10653.7 4370)">200</text></g><g><text font-family="Arial,Arial_MSFontService,sans-serif" font-weight="400" font-size="46" transform="matrix(1 0 0 1 10884.9 4370)">300</text></g><g><text font-family="Arial,Arial_MSFontService,sans-serif" font-weight="400" font-size="46" transform="matrix(1 0 0 1 11116.1 4370)">400</text></g><g><text font-family="Arial,Arial_MSFontService,sans-serif" font-weight="400" font-size="46" transform="matrix(1 0 0 1 11347.3 4370)">500</text></g><g><text font-family="Arial,Arial_MSFontService,sans-serif" font-weight="400" font-size="46" transform="matrix(1 0 0 1 11578.5 4370)">600</text></g><g><text font-family="Arial,Arial_MSFontService,sans-serif" font-weight="400" font-size="46" transform="matrix(1 0 0 1 11809.7 4370)">700</text></g><g><text font-family="Arial,Arial_MSFontService,sans-serif" font-weight="400" font-size="46" transform="matrix(1 0 0 1 10100.9 5230)">0.90</text></g><g><text font-family="Arial,Arial_MSFontService,sans-serif" font-weight="400" font-size="46" transform="matrix(1 0 0 1 10100.9 5115)">0.95</text></g><g><text font-family="Arial,Arial_MSFontService,sans-serif" font-weight="400" font-size="46" transform="matrix(1 0 0 1 10100.9 5000)">1.00</text></g><g><text font-family="Arial,Arial_MSFontService,sans-serif" font-weight="400" font-size="46" transform="matrix(1 0 0 1 10100.9 4885)">1.05</text></g><g><text font-family="Arial,Arial_MSFontService,sans-serif" font-weight="400" font-size="46" transform="matrix(1 0 0 1 10100.9 4770)">1.10</text></g><g><text font-family="Arial,Arial_MSFontService,sans-serif" font-weight="400" font-size="46" transform="matrix(1 0 0 1 10100.9 4655)">1.15</text></g><g><text font-family="Arial,Arial_MSFontService,sans-serif" font-weight="400" font-size="46" transform="matrix(1 0 0 1 10100.9 4539)">1.20</text></g><g><text font-family="Arial,Arial_MSFontService,sans-serif" font-weight="400" font-size="46" transform="matrix(1 0 0 1 10100.9 4424)">1.25</text></g><g><text font-family="Arial,Arial_MSFontService,sans-serif" font-weight="400" font-size="46" transform="matrix(1 0 0 1 10216.8 5284)">0</text></g><g><text font-family="Arial,Arial_MSFontService,sans-serif" font-weight="400" font-size="46" transform="matrix(1 0 0 1 10624.4 5284)">5</text></g><g><text font-family="Arial,Arial_MSFontService,sans-serif" font-weight="400" font-size="46" transform="matrix(1 0 0 1 11019.2 5284)">10</text></g><g><text font-family="Arial,Arial_MSFontService,sans-serif" font-weight="400" font-size="46" transform="matrix(1 0 0 1 11426.8 5284)">15</text></g><g><text font-family="Arial,Arial_MSFontService,sans-serif" font-weight="400" font-size="46" transform="matrix(1 0 0 1 11834.4 5284)">20</text></g><g><text font-family="Arial,Arial_MSFontService,sans-serif" font-weight="400" font-size="55" transform="matrix(1 0 0 1 10708.4 4305)">Equivalent Full Power Days</text></g><g><text font-family="Arial,Arial_MSFontService,sans-serif" font-weight="400" font-size="55" transform="matrix(6.12323e-17 -1 1 6.12323e-17 10075.8 4865)">k</text></g><g><text font-family="Arial,Arial_MSFontService,sans-serif" font-weight="400" font-size="55" transform="matrix(6.12323e-17 -1 1 6.12323e-17 10075.8 4838)">-</text></g><g><text font-family="Arial,Arial_MSFontService,sans-serif" font-weight="400" font-size="55" transform="matrix(6.12323e-17 -1 1 6.12323e-17 10075.8 4819)">eff</text></g><g><text font-family="Arial,Arial_MSFontService,sans-serif" font-weight="400" font-size="55" transform="matrix(1 0 0 1 10773.2 5359)">Burnup [MWd/kg UO</text></g><g><text font-family="Arial,Arial_MSFontService,sans-serif" font-weight="400" font-size="37" transform="matrix(1 0 0 1 11280.6 5372)">2</text></g><g><text font-family="Arial,Arial_MSFontService,sans-serif" font-weight="400" font-size="55" transform="matrix(1 0 0 1 11301 5359)">]</text></g></g></svg>