<svg width="2035" height="1282" xmlns="http://www.w3.org/2000/svg" xmlns:xlink="http://www.w3.org/1999/xlink" xml:space="preserve" overflow="hidden"><defs><clipPath id="clip0"><rect x="10002" y="2895" width="2035" height="1282"/></clipPath><clipPath id="clip1"><rect x="10226" y="3108" width="1677" height="856"/></clipPath></defs><g clip-path="url(#clip0)" transform="translate(-10002 -2895)"><rect x="10002" y="2895" width="2035" height="1282" fill="#FFFFFF"/><g><path d="M10226.5 3878.63 11903.5 3878.63M10226.5 3792.62 11903.5 3792.62M10226.5 3707.62 11903.5 3707.62M10226.5 3621.62 11903.5 3621.62M10226.5 3536.62 11903.5 3536.62M10226.5 3450.61 11903.5 3450.61M10226.5 3365.61 11903.5 3365.61M10226.5 3279.61 11903.5 3279.61M10226.5 3194.6 11903.5 3194.6M10226.5 3108.5 11903.5 3108.5" stroke="#D9D9D9" stroke-width="3.4375" stroke-linejoin="round" stroke-miterlimit="10" fill="none"/></g><g><path d="M10645.8 3108.5 10645.8 3964.5M11064.9 3108.5 11064.9 3964.5M11484.9 3108.5 11484.9 3964.5M11903.5 3108.5 11903.5 3964.5" stroke="#D9D9D9" stroke-width="3.4375" stroke-linejoin="round" stroke-miterlimit="10" fill="none"/></g><g><rect x="10226.5" y="3108.5" width="1677" height="856" stroke="#000000" stroke-width="3.4375" stroke-linejoin="round" stroke-miterlimit="10" fill="none"/></g><g><path d="M10226.5 3108.5 11903.5 3108.5" stroke="#000000" stroke-width="3.4375" stroke-linejoin="round" stroke-miterlimit="10" fill="none" fill-rule="evenodd"/></g><g><path d="M10226.5 3094.5 10226.5 3108.5M10464.8 3094.5 10464.8 3108.5M10702.9 3094.5 10702.9 3108.5M10939.9 3094.5 10939.9 3108.5M11177.9 3094.5 11177.9 3108.5M11415.9 3094.5 11415.9 3108.5M11653.9 3094.5 11653.9 3108.5M11891.5 3094.5 11891.5 3108.5" stroke="#000000" stroke-width="3.4375" stroke-linejoin="round" stroke-miterlimit="10" fill="none"/></g><g><path d="M0 0 0.000360892 856" stroke="#000000" stroke-width="3.4375" stroke-linejoin="round" stroke-miterlimit="10" fill="none" fill-rule="evenodd" transform="matrix(1 0 0 -1 10226.5 3964.5)"/></g><g><path d="M10226.5 3964.5 11903.5 3964.5" stroke="#000000" stroke-width="3.4375" stroke-linejoin="round" stroke-miterlimit="10" fill="none" fill-rule="evenodd"/></g><g><path d="M10239.1 3964.86C10239.1 3971.21 10234 3976.36 10227.6 3976.36 10221.3 3976.36 10216.1 3971.21 10216.1 3964.86 10216.1 3958.51 10221.3 3953.36 10227.6 3953.36 10234 3953.36 10239.1 3958.51 10239.1 3964.86Z" fill="#0070C0"/><path d="M10247.1 3962.86C10247.1 3969.21 10242 3974.36 10235.6 3974.36 10229.3 3974.36 10224.1 3969.21 10224.1 3962.86 10224.1 3956.51 10229.3 3951.36 10235.6 3951.36 10242 3951.36 10247.1 3956.51 10247.1 3962.86Z" fill="#0070C0"/><path d="M10323.1 3943.86C10323.1 3950.21 10318 3955.36 10311.6 3955.36 10305.3 3955.36 10300.1 3950.21 10300.1 3943.86 10300.1 3937.51 10305.3 3932.36 10311.6 3932.36 10318 3932.36 10323.1 3937.51 10323.1 3943.86Z" fill="#0070C0"/><path d="M10574.1 3882.86C10574.1 3889.21 10569 3894.36 10562.6 3894.36 10556.3 3894.36 10551.1 3889.21 10551.1 3882.86 10551.1 3876.51 10556.3 3871.36 10562.6 3871.36 10569 3871.36 10574.1 3876.51 10574.1 3882.86Z" fill="#0070C0"/><path d="M10826.1 3824.86C10826.1 3831.21 10821 3836.36 10814.6 3836.36 10808.3 3836.36 10803.1 3831.21 10803.1 3824.86 10803.1 3818.51 10808.3 3813.36 10814.6 3813.36 10821 3813.36 10826.1 3818.51 10826.1 3824.86Z" fill="#0070C0"/><path d="M11077.1 3766.86C11077.1 3773.21 11072 3778.36 11065.6 3778.36 11059.3 3778.36 11054.1 3773.21 11054.1 3766.86 11054.1 3760.51 11059.3 3755.36 11065.6 3755.36 11072 3755.36 11077.1 3760.51 11077.1 3766.86Z" fill="#0070C0"/><path d="M11916.1 3564.86C11916.1 3571.21 11911 3576.36 11904.6 3576.36 11898.3 3576.36 11893.1 3571.21 11893.1 3564.86 11893.1 3558.51 11898.3 3553.36 11904.6 3553.36 11911 3553.36 11916.1 3558.51 11916.1 3564.86Z" fill="#0070C0"/></g><g><path d="M10239.1 3964.86C10239.1 3971.21 10234 3976.36 10227.6 3976.36 10221.3 3976.36 10216.1 3971.21 10216.1 3964.86 10216.1 3958.51 10221.3 3953.36 10227.6 3953.36 10234 3953.36 10239.1 3958.51 10239.1 3964.86Z" fill="#0070C0"/><path d="M10247.1 3956.86C10247.1 3963.21 10242 3968.36 10235.6 3968.36 10229.3 3968.36 10224.1 3963.21 10224.1 3956.86 10224.1 3950.51 10229.3 3945.36 10235.6 3945.36 10242 3945.36 10247.1 3950.51 10247.1 3956.86Z" fill="#0070C0"/><path d="M10323.1 3885.86C10323.1 3892.21 10318 3897.36 10311.6 3897.36 10305.3 3897.36 10300.1 3892.21 10300.1 3885.86 10300.1 3879.51 10305.3 3874.36 10311.6 3874.36 10318 3874.36 10323.1 3879.51 10323.1 3885.86Z" fill="#0070C0"/><path d="M10574.1 3659.86C10574.1 3666.21 10569 3671.36 10562.6 3671.36 10556.3 3671.36 10551.1 3666.21 10551.1 3659.86 10551.1 3653.51 10556.3 3648.36 10562.6 3648.36 10569 3648.36 10574.1 3653.51 10574.1 3659.86Z" fill="#0070C0"/><path d="M10826.1 3441.86C10826.1 3448.21 10821 3453.36 10814.6 3453.36 10808.3 3453.36 10803.1 3448.21 10803.1 3441.86 10803.1 3435.51 10808.3 3430.36 10814.6 3430.36 10821 3430.36 10826.1 3435.51 10826.1 3441.86Z" fill="#0070C0"/><path d="M11077.1 3227.86C11077.1 3234.21 11072 3239.36 11065.6 3239.36 11059.3 3239.36 11054.1 3234.21 11054.1 3227.86 11054.1 3221.51 11059.3 3216.36 11065.6 3216.36 11072 3216.36 11077.1 3221.51 11077.1 3227.86Z" fill="#0070C0"/></g><g clip-path="url(#clip1)"><path d="M0 0 2516 617" stroke="#0070C0" stroke-width="6.875" stroke-linecap="round" stroke-linejoin="round" stroke-miterlimit="10" stroke-dasharray="20.625 27.5" fill="none" fill-rule="evenodd" transform="matrix(1 0 0 -1 10226.5 3966.5)"/></g><g><path d="M0 0 839 738" stroke="#0070C0" stroke-width="6.875" stroke-linecap="round" stroke-linejoin="round" stroke-miterlimit="10" fill="none" fill-rule="evenodd" transform="matrix(1 0 0 -1 10226.5 3960.5)"/></g><g><text font-family="Arial,Arial_MSFontService,sans-serif" font-weight="400" font-size="46" transform="matrix(1 0 0 1 10214.1 3069)">0</text></g><g><text font-family="Arial,Arial_MSFontService,sans-serif" font-weight="400" font-size="46" transform="matrix(1 0 0 1 10426.4 3069)">100</text></g><g><text font-family="Arial,Arial_MSFontService,sans-serif" font-weight="400" font-size="46" transform="matrix(1 0 0 1 10664.2 3069)">200</text></g><g><text font-family="Arial,Arial_MSFontService,sans-serif" font-weight="400" font-size="46" transform="matrix(1 0 0 1 10902 3069)">300</text></g><g><text font-family="Arial,Arial_MSFontService,sans-serif" font-weight="400" font-size="46" transform="matrix(1 0 0 1 11139.8 3069)">400</text></g><g><text font-family="Arial,Arial_MSFontService,sans-serif" font-weight="400" font-size="46" transform="matrix(1 0 0 1 11377.6 3069)">500</text></g><g><text font-family="Arial,Arial_MSFontService,sans-serif" font-weight="400" font-size="46" transform="matrix(1 0 0 1 11615.4 3069)">600</text></g><g><text font-family="Arial,Arial_MSFontService,sans-serif" font-weight="400" font-size="46" transform="matrix(1 0 0 1 11853.2 3069)">700</text></g><g><text font-family="Arial,Arial_MSFontService,sans-serif" font-weight="400" font-size="46" transform="matrix(1 0 0 1 10161.9 3979)">0</text></g><g><text font-family="Arial,Arial_MSFontService,sans-serif" font-weight="400" font-size="46" transform="matrix(1 0 0 1 10161.9 3894)">5</text></g><g><text font-family="Arial,Arial_MSFontService,sans-serif" font-weight="400" font-size="46" transform="matrix(1 0 0 1 10136.5 3808)">10</text></g><g><text font-family="Arial,Arial_MSFontService,sans-serif" font-weight="400" font-size="46" transform="matrix(1 0 0 1 10136.5 3722)">15</text></g><g><text font-family="Arial,Arial_MSFontService,sans-serif" font-weight="400" font-size="46" transform="matrix(1 0 0 1 10136.5 3637)">20</text></g><g><text font-family="Arial,Arial_MSFontService,sans-serif" font-weight="400" font-size="46" transform="matrix(1 0 0 1 10136.5 3551)">25</text></g><g><text font-family="Arial,Arial_MSFontService,sans-serif" font-weight="400" font-size="46" transform="matrix(1 0 0 1 10136.5 3466)">30</text></g><g><text font-family="Arial,Arial_MSFontService,sans-serif" font-weight="400" font-size="46" transform="matrix(1 0 0 1 10136.5 3380)">35</text></g><g><text font-family="Arial,Arial_MSFontService,sans-serif" font-weight="400" font-size="46" transform="matrix(1 0 0 1 10136.5 3295)">40</text></g><g><text font-family="Arial,Arial_MSFontService,sans-serif" font-weight="400" font-size="46" transform="matrix(1 0 0 1 10136.5 3209)">45</text></g><g><text font-family="Arial,Arial_MSFontService,sans-serif" font-weight="400" font-size="46" transform="matrix(1 0 0 1 10136.5 3124)">50</text></g><g><text font-family="Arial,Arial_MSFontService,sans-serif" font-weight="400" font-size="46" transform="matrix(1 0 0 1 10214.1 4034)">0</text></g><g><text font-family="Arial,Arial_MSFontService,sans-serif" font-weight="400" font-size="46" transform="matrix(1 0 0 1 10633.4 4034)">5</text></g><g><text font-family="Arial,Arial_MSFontService,sans-serif" font-weight="400" font-size="46" transform="matrix(1 0 0 1 11039.8 4034)">10</text></g><g><text font-family="Arial,Arial_MSFontService,sans-serif" font-weight="400" font-size="46" transform="matrix(1 0 0 1 11459.1 4034)">15</text></g><g><text font-family="Arial,Arial_MSFontService,sans-serif" font-weight="400" font-size="46" transform="matrix(1 0 0 1 11878.3 4034)">20</text></g><g><text font-family="Arial,Arial_MSFontService,sans-serif" font-weight="400" font-size="55" transform="matrix(1 0 0 1 10729.1 3005)">Equivalent Full Power Days</text></g><g><text font-family="Arial,Arial_MSFontService,sans-serif" font-weight="400" font-size="55" transform="matrix(6.12323e-17 -1 1 6.12323e-17 10111.4 3688)">T [g/4 t UO</text></g><g><text font-family="Arial,Arial_MSFontService,sans-serif" font-weight="400" font-size="37" transform="matrix(6.12323e-17 -1 1 6.12323e-17 10124.4 3420)">2</text></g><g><text font-family="Arial,Arial_MSFontService,sans-serif" font-weight="400" font-size="55" transform="matrix(6.12323e-17 -1 1 6.12323e-17 10111.4 3400)">]</text></g><g><text font-family="Arial,Arial_MSFontService,sans-serif" font-weight="400" font-size="55" transform="matrix(1 0 0 1 10793.8 4109)">Burnup [MWd/kg UO</text></g><g><text font-family="Arial,Arial_MSFontService,sans-serif" font-weight="400" font-size="37" transform="matrix(1 0 0 1 11301.2 4122)">2</text></g><g><text font-family="Arial,Arial_MSFontService,sans-serif" font-weight="400" font-size="55" transform="matrix(1 0 0 1 11321.6 4109)">]</text></g></g></svg>