<?xml version="1.0" encoding="utf-8" standalone="no"?>
<!DOCTYPE svg PUBLIC "-//W3C//DTD SVG 1.1//EN"
  "http://www.w3.org/Graphics/SVG/1.1/DTD/svg11.dtd">
<svg xmlns:xlink="http://www.w3.org/1999/xlink" width="460.8pt" height="345.6pt" viewBox="0 0 460.8 345.6" xmlns="http://www.w3.org/2000/svg" version="1.1">
 <metadata>
  <rdf:RDF xmlns:dc="http://purl.org/dc/elements/1.1/" xmlns:cc="http://creativecommons.org/ns#" xmlns:rdf="http://www.w3.org/1999/02/22-rdf-syntax-ns#">
   <cc:Work>
    <dc:type rdf:resource="http://purl.org/dc/dcmitype/StillImage"/>
    <dc:date>2024-09-14T07:57:25.996588</dc:date>
    <dc:format>image/svg+xml</dc:format>
    <dc:creator>
     <cc:Agent>
      <dc:title>Matplotlib v3.9.0, https://matplotlib.org/</dc:title>
     </cc:Agent>
    </dc:creator>
   </cc:Work>
  </rdf:RDF>
 </metadata>
 <defs>
  <style type="text/css">*{stroke-linejoin: round; stroke-linecap: butt}</style>
 </defs>
 <g id="figure_1">
  <g id="patch_1">
   <path d="M 0 345.6 
L 460.8 345.6 
L 460.8 0 
L 0 0 
L 0 345.6 
z
" style="fill: none"/>
  </g>
  <g id="axes_1">
   <g id="patch_2">
    <path d="M 57.6 307.584 
L 414.72 307.584 
L 414.72 41.472 
L 57.6 41.472 
L 57.6 307.584 
z
" style="fill: none"/>
   </g>
   <g id="PolyCollection_1">
    <path d="M 73.832727 195.486027 
L 73.832727 195.486027 
L 74.483338 194.593252 
L 75.133948 193.702544 
L 75.784558 192.813914 
L 76.435169 191.927375 
L 77.085779 191.042938 
L 77.736389 190.160614 
L 78.386999 189.280415 
L 79.03761 188.402353 
L 79.68822 187.526439 
L 80.33883 186.652684 
L 80.989441 185.781101 
L 81.640051 184.9117 
L 82.290661 184.044494 
L 82.941272 183.179494 
L 83.591882 182.316711 
L 84.242492 181.456157 
L 84.893103 180.597844 
L 85.543713 179.741783 
L 86.194323 178.887986 
L 86.844934 178.036465 
L 87.495544 177.18723 
L 88.146154 176.340294 
L 88.796764 175.495668 
L 89.447375 174.653363 
L 90.097985 173.813392 
L 90.748595 172.975766 
L 91.399206 172.140495 
L 92.049816 171.307593 
L 92.700426 170.477071 
L 93.351037 169.648939 
L 94.001647 168.82321 
L 94.652257 167.999895 
L 95.302868 167.179006 
L 95.953478 166.360555 
L 96.604088 165.544552 
L 97.254698 164.73101 
L 97.905309 163.919939 
L 98.555919 163.111353 
L 99.206529 162.305261 
L 99.85714 161.501677 
L 100.50775 160.700611 
L 101.15836 159.902074 
L 101.808971 159.106079 
L 102.459581 158.312638 
L 103.110191 157.52176 
L 103.760802 156.733459 
L 104.411412 155.947746 
L 105.062022 155.164632 
L 105.712633 154.384129 
L 106.363243 153.606249 
L 107.013853 152.831002 
L 107.664463 152.058401 
L 108.315074 151.288458 
L 108.965684 150.521183 
L 109.616294 149.756588 
L 110.266905 148.994685 
L 110.917515 148.235486 
L 111.568125 147.479002 
L 112.218736 146.725244 
L 112.869346 145.974225 
L 113.519956 145.225955 
L 114.170567 144.480447 
L 114.821177 143.737711 
L 115.471787 142.99776 
L 116.122398 142.260605 
L 116.773008 141.526257 
L 117.423618 140.794729 
L 118.074228 140.066032 
L 118.724839 139.340176 
L 119.375449 138.617175 
L 120.026059 137.897039 
L 120.67667 137.17978 
L 121.32728 136.46541 
L 121.97789 135.75394 
L 122.628501 135.045381 
L 123.279111 134.339746 
L 123.929721 133.637046 
L 124.580332 132.937292 
L 125.230942 132.240496 
L 125.881552 131.54667 
L 126.532163 130.855825 
L 127.182773 130.167972 
L 127.833383 129.483124 
L 128.483993 128.801292 
L 129.134604 128.122487 
L 129.785214 127.446721 
L 130.435824 126.774006 
L 131.086435 126.104353 
L 131.737045 125.437774 
L 132.387655 124.77428 
L 133.038266 124.113882 
L 133.688876 123.456594 
L 134.339486 122.802425 
L 134.990097 122.151387 
L 135.640707 121.503493 
L 136.291317 120.858754 
L 136.941927 120.217181 
L 137.592538 119.578785 
L 138.243148 118.943579 
L 138.893758 118.311574 
L 139.544369 117.682782 
L 140.194979 117.057214 
L 140.845589 116.434881 
L 141.4962 115.815796 
L 142.14681 115.199969 
L 142.79742 114.587413 
L 143.448031 113.978139 
L 144.098641 113.372158 
L 144.749251 112.769483 
L 145.399862 112.170124 
L 146.050472 111.574094 
L 146.701082 110.981403 
L 147.351692 110.392064 
L 148.002303 109.806087 
L 148.652913 109.223486 
L 149.303523 108.64427 
L 149.954134 108.068452 
L 150.604744 107.496043 
L 151.255354 106.927055 
L 151.905965 106.3615 
L 152.556575 105.799388 
L 153.207185 105.240732 
L 153.857796 104.685543 
L 154.508406 104.133833 
L 155.159016 103.585612 
L 155.809627 103.040894 
L 156.460237 102.499689 
L 157.110847 101.962009 
L 157.761457 101.427866 
L 158.412068 100.89727 
L 159.062678 100.370235 
L 159.713288 99.84677 
L 160.363899 99.326889 
L 161.014509 98.810601 
L 161.665119 98.29792 
L 162.31573 97.788856 
L 162.96634 97.283421 
L 163.61695 96.781627 
L 164.267561 96.283485 
L 164.918171 95.789007 
L 165.568781 95.298205 
L 166.219392 94.811089 
L 166.870002 94.327671 
L 167.520612 93.847964 
L 168.171222 93.371979 
L 168.821833 92.899726 
L 169.472443 92.431219 
L 170.123053 91.966467 
L 170.773664 91.505484 
L 171.424274 91.04828 
L 172.074884 90.594867 
L 172.725495 90.145257 
L 173.376105 89.699461 
L 174.026715 89.257491 
L 174.677326 88.819358 
L 175.327936 88.385074 
L 175.978546 87.954651 
L 176.629156 87.5281 
L 177.279767 87.105432 
L 177.930377 86.686659 
L 178.580987 86.271794 
L 179.231598 85.860846 
L 179.882208 85.453829 
L 180.532818 85.050752 
L 181.183429 84.651629 
L 181.834039 84.256471 
L 182.484649 83.865288 
L 183.13526 83.478086 
L 183.78587 83.094865 
L 184.43648 82.715626 
L 185.087091 82.34037 
L 185.737701 81.969097 
L 186.388311 81.601809 
L 187.038921 81.238505 
L 187.689532 80.879187 
L 188.340142 80.523856 
L 188.990752 80.172512 
L 189.641363 79.825156 
L 190.291973 79.481788 
L 190.942583 79.14241 
L 191.593194 78.807022 
L 192.243804 78.475625 
L 192.894414 78.14822 
L 193.545025 77.824807 
L 194.195635 77.505387 
L 194.846245 77.189961 
L 195.496856 76.87853 
L 196.147466 76.571094 
L 196.798076 76.267654 
L 197.448686 75.968211 
L 198.099297 75.672766 
L 198.749907 75.381319 
L 199.400517 75.093871 
L 200.051128 74.810423 
L 200.701738 74.530975 
L 201.352348 74.255528 
L 202.002959 73.984084 
L 202.653569 73.716642 
L 203.304179 73.453204 
L 203.95479 73.193771 
L 204.6054 72.938342 
L 205.25601 72.686919 
L 205.906621 72.439502 
L 206.557231 72.196092 
L 207.207841 71.956691 
L 207.858451 71.721298 
L 208.509062 71.489915 
L 209.159672 71.262542 
L 209.810282 71.039346 
L 210.460893 70.821014 
L 211.111503 70.608332 
L 211.762113 70.402087 
L 212.412724 70.203066 
L 213.063334 70.012056 
L 213.713944 69.829844 
L 214.364555 69.657218 
L 215.015165 69.494765 
L 215.665775 69.341445 
L 216.316385 69.195416 
L 216.966996 69.054829 
L 217.617606 68.917837 
L 218.268216 68.782591 
L 218.918827 68.647244 
L 219.569437 68.509947 
L 220.220047 68.368907 
L 220.870658 68.22392 
L 221.521268 68.076595 
L 222.171878 67.928639 
L 222.822489 67.781761 
L 223.473099 67.637668 
L 224.123709 67.498068 
L 224.77432 67.364668 
L 225.42493 67.239176 
L 226.07554 67.122903 
L 226.72615 67.016097 
L 227.376761 66.918828 
L 228.027371 66.831165 
L 228.677981 66.753179 
L 229.328592 66.684939 
L 229.979202 66.626514 
L 230.629812 66.577974 
L 231.280423 66.539221 
L 231.931033 66.50897 
L 232.581643 66.485431 
L 233.232254 66.46681 
L 233.882864 66.451317 
L 234.533474 66.437158 
L 235.184085 66.422541 
L 235.834695 66.405673 
L 236.485305 66.384838 
L 237.135915 66.360072 
L 237.786526 66.333161 
L 238.437136 66.30597 
L 239.087746 66.28036 
L 239.738357 66.258196 
L 240.388967 66.24134 
L 241.039577 66.231655 
L 241.690188 66.231004 
L 242.340798 66.240668 
L 242.991408 66.260582 
L 243.642019 66.290484 
L 244.292629 66.330116 
L 244.943239 66.379216 
L 245.59385 66.437525 
L 246.24446 66.504784 
L 246.89507 66.580731 
L 247.54568 66.665068 
L 248.196291 66.757263 
L 248.846901 66.856697 
L 249.497511 66.96275 
L 250.148122 67.074803 
L 250.798732 67.192236 
L 251.449342 67.314432 
L 252.099953 67.44077 
L 252.750563 67.570649 
L 253.401173 67.703808 
L 254.051784 67.840282 
L 254.702394 67.980117 
L 255.353004 68.123359 
L 256.003615 68.270053 
L 256.654225 68.420244 
L 257.304835 68.573979 
L 257.955445 68.731304 
L 258.606056 68.892393 
L 259.256666 69.057676 
L 259.907276 69.227616 
L 260.557887 69.402677 
L 261.208497 69.583321 
L 261.859107 69.770011 
L 262.509718 69.963208 
L 263.160328 70.163377 
L 263.810938 70.370918 
L 264.461549 70.585913 
L 265.112159 70.808341 
L 265.762769 71.038182 
L 266.413379 71.275417 
L 267.06399 71.520024 
L 267.7146 71.771985 
L 268.36521 72.031277 
L 269.015821 72.297882 
L 269.666431 72.571779 
L 270.317041 72.852948 
L 270.967652 73.141368 
L 271.618262 73.437019 
L 272.268872 73.739882 
L 272.919483 74.049935 
L 273.570093 74.367159 
L 274.220703 74.691533 
L 274.871314 75.023037 
L 275.521924 75.361651 
L 276.172534 75.707355 
L 276.823144 76.060128 
L 277.473755 76.41995 
L 278.124365 76.786802 
L 278.774975 77.160662 
L 279.425586 77.54151 
L 280.076196 77.929327 
L 280.726806 78.324091 
L 281.377417 78.725784 
L 282.028027 79.134384 
L 282.678637 79.549871 
L 283.329248 79.972225 
L 283.979858 80.401426 
L 284.630468 80.837454 
L 285.281079 81.280288 
L 285.931689 81.729909 
L 286.582299 82.186295 
L 287.232909 82.649427 
L 287.88352 83.119284 
L 288.53413 83.595846 
L 289.18474 84.079094 
L 289.835351 84.569006 
L 290.485961 85.065563 
L 291.136571 85.56877 
L 291.787182 86.078671 
L 292.437792 86.595313 
L 293.088402 87.118742 
L 293.739013 87.649006 
L 294.389623 88.186153 
L 295.040233 88.730228 
L 295.690844 89.281279 
L 296.341454 89.839353 
L 296.992064 90.404497 
L 297.642674 90.976759 
L 298.293285 91.556184 
L 298.943895 92.142821 
L 299.594505 92.736716 
L 300.245116 93.337917 
L 300.895726 93.946469 
L 301.546336 94.562421 
L 302.196947 95.18582 
L 302.847557 95.816712 
L 303.498167 96.455144 
L 304.148778 97.101164 
L 304.799388 97.754819 
L 305.449998 98.416155 
L 306.100608 99.08522 
L 306.751219 99.762061 
L 307.401829 100.446724 
L 308.052439 101.139257 
L 308.70305 101.839707 
L 309.35366 102.548122 
L 310.00427 103.264546 
L 310.654881 103.989029 
L 311.305491 104.721617 
L 311.956101 105.462357 
L 312.606712 106.211297 
L 313.257322 106.968482 
L 313.907932 107.73396 
L 314.558543 108.507779 
L 315.209153 109.289985 
L 315.859763 110.080626 
L 316.510373 110.879748 
L 317.160984 111.687398 
L 317.811594 112.503623 
L 318.462204 113.328472 
L 319.112815 114.161989 
L 319.763425 115.004224 
L 320.414035 115.855222 
L 321.064646 116.71503 
L 321.715256 117.583696 
L 322.365866 118.461268 
L 323.016477 119.347791 
L 323.667087 120.243312 
L 324.317697 121.14788 
L 324.968308 122.061541 
L 325.618918 122.984341 
L 326.269528 123.916329 
L 326.920138 124.85755 
L 327.570749 125.808053 
L 328.221359 126.767884 
L 328.871969 127.73709 
L 329.52258 128.715719 
L 330.17319 129.703816 
L 330.8238 130.70143 
L 331.474411 131.708608 
L 332.125021 132.725395 
L 332.775631 133.751841 
L 333.426242 134.78799 
L 334.076852 135.833892 
L 334.727462 136.889591 
L 335.378073 137.955137 
L 336.028683 139.030575 
L 336.679293 140.115953 
L 337.329903 141.211318 
L 337.980514 142.316716 
L 338.631124 143.432195 
L 339.281734 144.557802 
L 339.932345 145.693585 
L 340.582955 146.839589 
L 341.233565 147.995862 
L 341.884176 149.162451 
L 342.534786 150.339403 
L 343.185396 151.526765 
L 343.836007 152.724585 
L 344.486617 153.932909 
L 345.137227 155.151784 
L 345.787837 156.381257 
L 346.438448 157.621376 
L 347.089058 158.872187 
L 347.739668 160.133738 
L 348.390279 161.406075 
L 349.040889 162.689246 
L 349.691499 163.983297 
L 350.34211 165.288276 
L 350.99272 166.604229 
L 351.64333 167.931205 
L 352.293941 169.269249 
L 352.944551 170.618408 
L 353.595161 171.978731 
L 354.245772 173.350264 
L 354.896382 174.733053 
L 355.546992 176.127146 
L 356.197602 177.532591 
L 356.848213 178.949433 
L 357.498823 180.377721 
L 358.149433 181.817501 
L 358.800044 183.268819 
L 359.450654 184.731725 
L 360.101264 186.206263 
L 360.751875 187.692482 
L 361.402485 189.190428 
L 362.053095 190.700148 
L 362.703706 192.22169 
L 363.354316 193.7551 
L 364.004926 195.300426 
L 364.655537 196.857715 
L 365.306147 198.427013 
L 365.956757 200.008368 
L 366.607367 201.601826 
L 367.257978 203.207435 
L 367.908588 204.825242 
L 368.559198 206.455294 
L 369.209809 208.097638 
L 369.860419 209.75232 
L 370.511029 211.419389 
L 371.16164 213.098891 
L 371.81225 214.790872 
L 372.46286 216.495381 
L 373.113471 218.212464 
L 373.764081 219.942168 
L 374.414691 221.68454 
L 375.065302 223.439628 
L 375.715912 225.207477 
L 376.366522 226.988137 
L 377.017132 228.781652 
L 377.667743 230.588071 
L 378.318353 232.407441 
L 378.968963 234.239808 
L 379.619574 236.085219 
L 380.270184 237.943722 
L 380.920794 239.815364 
L 381.571405 241.700192 
L 382.222015 243.598252 
L 382.872625 245.509592 
L 383.523236 247.434259 
L 384.173846 249.3723 
L 384.824456 251.323761 
L 385.475066 253.288691 
L 386.125677 255.267136 
L 386.776287 257.259142 
L 387.426897 259.264758 
L 388.077508 261.28403 
L 388.728118 263.317005 
L 389.378728 265.36373 
L 390.029339 267.424253 
L 390.679949 269.498619 
L 391.330559 271.586877 
L 391.98117 273.689074 
L 392.63178 275.805256 
L 393.28239 277.93547 
L 393.933001 280.079764 
L 394.583611 282.238185 
L 395.234221 284.410779 
L 395.884831 286.597594 
L 396.535442 288.798676 
L 397.186052 291.014073 
L 397.836662 293.243832 
L 398.487273 295.488 
L 398.487273 295.488 
L 398.487273 293.00946 
L 397.836662 290.720885 
L 397.186052 288.446651 
L 396.535442 286.186712 
L 395.884831 283.941022 
L 395.234221 281.709535 
L 394.583611 279.492206 
L 393.933001 277.288987 
L 393.28239 275.099835 
L 392.63178 272.924702 
L 391.98117 270.763542 
L 391.330559 268.61631 
L 390.679949 266.48296 
L 390.029339 264.363446 
L 389.378728 262.257722 
L 388.728118 260.165742 
L 388.077508 258.087461 
L 387.426897 256.022831 
L 386.776287 253.971808 
L 386.125677 251.934345 
L 385.475066 249.910397 
L 384.824456 247.899917 
L 384.173846 245.90286 
L 383.523236 243.91918 
L 382.872625 241.94883 
L 382.222015 239.991766 
L 381.571405 238.04794 
L 380.920794 236.117308 
L 380.270184 234.199823 
L 379.619574 232.295439 
L 378.968963 230.404111 
L 378.318353 228.525792 
L 377.667743 226.660436 
L 377.017132 224.807999 
L 376.366522 222.968433 
L 375.715912 221.141692 
L 375.065302 219.327732 
L 374.414691 217.526506 
L 373.764081 215.737967 
L 373.113471 213.962071 
L 372.46286 212.198771 
L 371.81225 210.448022 
L 371.16164 208.709776 
L 370.511029 206.98399 
L 369.860419 205.270616 
L 369.209809 203.569608 
L 368.559198 201.880922 
L 367.908588 200.20451 
L 367.257978 198.540327 
L 366.607367 196.888327 
L 365.956757 195.248464 
L 365.306147 193.620693 
L 364.655537 192.004967 
L 364.004926 190.40124 
L 363.354316 188.809466 
L 362.703706 187.2296 
L 362.053095 185.661596 
L 361.402485 184.105408 
L 360.751875 182.560989 
L 360.101264 181.028294 
L 359.450654 179.507277 
L 358.800044 177.997892 
L 358.149433 176.500094 
L 357.498823 175.013835 
L 356.848213 173.539071 
L 356.197602 172.075755 
L 355.546992 170.623842 
L 354.896382 169.183286 
L 354.245772 167.75404 
L 353.595161 166.336058 
L 352.944551 164.929296 
L 352.293941 163.533706 
L 351.64333 162.149244 
L 350.99272 160.775863 
L 350.34211 159.413517 
L 349.691499 158.06216 
L 349.040889 156.721746 
L 348.390279 155.39223 
L 347.739668 154.073566 
L 347.089058 152.765707 
L 346.438448 151.468607 
L 345.787837 150.182222 
L 345.137227 148.906504 
L 344.486617 147.641409 
L 343.836007 146.386889 
L 343.185396 145.1429 
L 342.534786 143.909395 
L 341.884176 142.686328 
L 341.233565 141.473654 
L 340.582955 140.271326 
L 339.932345 139.079298 
L 339.281734 137.897526 
L 338.631124 136.725962 
L 337.980514 135.56456 
L 337.329903 134.413276 
L 336.679293 133.272063 
L 336.028683 132.140875 
L 335.378073 131.019666 
L 334.727462 129.90839 
L 334.076852 128.807002 
L 333.426242 127.715455 
L 332.775631 126.633704 
L 332.125021 125.561702 
L 331.474411 124.499404 
L 330.8238 123.446764 
L 330.17319 122.403735 
L 329.52258 121.370273 
L 328.871969 120.34633 
L 328.221359 119.331862 
L 327.570749 118.326822 
L 326.920138 117.331164 
L 326.269528 116.344843 
L 325.618918 115.367812 
L 324.968308 114.400026 
L 324.317697 113.441438 
L 323.667087 112.492003 
L 323.016477 111.551675 
L 322.365866 110.620408 
L 321.715256 109.698156 
L 321.064646 108.784873 
L 320.414035 107.880513 
L 319.763425 106.98503 
L 319.112815 106.098379 
L 318.462204 105.220513 
L 317.811594 104.351387 
L 317.160984 103.490954 
L 316.510373 102.639169 
L 315.859763 101.795986 
L 315.209153 100.961358 
L 314.558543 100.135241 
L 313.907932 99.317588 
L 313.257322 98.508352 
L 312.606712 97.707489 
L 311.956101 96.914952 
L 311.305491 96.130696 
L 310.654881 95.354674 
L 310.00427 94.586841 
L 309.35366 93.82715 
L 308.70305 93.075556 
L 308.052439 92.332013 
L 307.401829 91.596474 
L 306.751219 90.868895 
L 306.100608 90.149229 
L 305.449998 89.43743 
L 304.799388 88.733452 
L 304.148778 88.03725 
L 303.498167 87.348777 
L 302.847557 86.667987 
L 302.196947 85.994835 
L 301.546336 85.329275 
L 300.895726 84.67126 
L 300.245116 84.020746 
L 299.594505 83.377685 
L 298.943895 82.742033 
L 298.293285 82.113742 
L 297.642674 81.492768 
L 296.992064 80.879064 
L 296.341454 80.272584 
L 295.690844 79.673283 
L 295.040233 79.081114 
L 294.389623 78.496032 
L 293.739013 77.917991 
L 293.088402 77.346944 
L 292.437792 76.782847 
L 291.787182 76.225652 
L 291.136571 75.675315 
L 290.485961 75.131788 
L 289.835351 74.595031 
L 289.18474 74.065038 
L 288.53413 73.541833 
L 287.88352 73.025438 
L 287.232909 72.515875 
L 286.582299 72.013166 
L 285.931689 71.517335 
L 285.281079 71.028403 
L 284.630468 70.546393 
L 283.979858 70.071328 
L 283.329248 69.603229 
L 282.678637 69.14212 
L 282.028027 68.688023 
L 281.377417 68.240959 
L 280.726806 67.800953 
L 280.076196 67.368025 
L 279.425586 66.942199 
L 278.774975 66.523496 
L 278.124365 66.111941 
L 277.473755 65.707554 
L 276.823144 65.310358 
L 276.172534 64.920376 
L 275.521924 64.53763 
L 274.871314 64.162142 
L 274.220703 63.793936 
L 273.570093 63.433033 
L 272.919483 63.079456 
L 272.268872 62.733227 
L 271.618262 62.394369 
L 270.967652 62.062904 
L 270.317041 61.738855 
L 269.666431 61.422244 
L 269.015821 61.113094 
L 268.36521 60.811426 
L 267.7146 60.517264 
L 267.06399 60.23063 
L 266.413379 59.951546 
L 265.762769 59.680034 
L 265.112159 59.416118 
L 264.461549 59.15982 
L 263.810938 58.911161 
L 263.160328 58.670165 
L 262.509718 58.436747 
L 261.859107 58.210489 
L 261.208497 57.990907 
L 260.557887 57.777518 
L 259.907276 57.56984 
L 259.256666 57.367389 
L 258.606056 57.169682 
L 257.955445 56.976236 
L 257.304835 56.7866 
L 256.654225 56.600594 
L 256.003615 56.418167 
L 255.353004 56.239271 
L 254.702394 56.063858 
L 254.051784 55.89188 
L 253.401173 55.723288 
L 252.750563 55.558034 
L 252.099953 55.39608 
L 251.449342 55.237703 
L 250.798732 55.083537 
L 250.148122 54.934236 
L 249.497511 54.790454 
L 248.846901 54.652844 
L 248.196291 54.522062 
L 247.54568 54.39876 
L 246.89507 54.283593 
L 246.24446 54.177123 
L 245.59385 54.07967 
L 244.943239 53.991513 
L 244.292629 53.912929 
L 243.642019 53.844197 
L 242.991408 53.785595 
L 242.340798 53.737403 
L 241.690188 53.699897 
L 241.039577 53.673153 
L 240.388967 53.655816 
L 239.738357 53.64592 
L 239.087746 53.641498 
L 238.437136 53.64058 
L 237.786526 53.641199 
L 237.135915 53.641388 
L 236.485305 53.639176 
L 235.834695 53.632678 
L 235.184085 53.621857 
L 234.533474 53.608525 
L 233.882864 53.59458 
L 233.232254 53.581914 
L 232.581643 53.572422 
L 231.931033 53.568 
L 231.280423 53.570542 
L 230.629812 53.58194 
L 229.979202 53.603553 
L 229.328592 53.635491 
L 228.677981 53.677684 
L 228.027371 53.730064 
L 227.376761 53.79256 
L 226.72615 53.865106 
L 226.07554 53.947631 
L 225.42493 54.040067 
L 224.77432 54.142155 
L 224.123709 54.252506 
L 223.473099 54.369309 
L 222.822489 54.490754 
L 222.171878 54.61503 
L 221.521268 54.740327 
L 220.870658 54.864833 
L 220.220047 54.986737 
L 219.569437 55.104335 
L 218.918827 55.217842 
L 218.268216 55.329162 
L 217.617606 55.440256 
L 216.966996 55.553086 
L 216.316385 55.669613 
L 215.665775 55.791798 
L 215.015165 55.921602 
L 214.364555 56.060981 
L 213.713944 56.21104 
L 213.063334 56.371154 
L 212.412724 56.540491 
L 211.762113 56.718217 
L 211.111503 56.903499 
L 210.460893 57.095503 
L 209.810282 57.293396 
L 209.159672 57.496343 
L 208.509062 57.70362 
L 207.858451 57.915048 
L 207.207841 58.13063 
L 206.557231 58.350364 
L 205.906621 58.574252 
L 205.25601 58.802293 
L 204.6054 59.034488 
L 203.95479 59.270836 
L 203.304179 59.51134 
L 202.653569 59.755998 
L 202.002959 60.00481 
L 201.352348 60.257778 
L 200.701738 60.514901 
L 200.051128 60.77618 
L 199.400517 61.041615 
L 198.749907 61.311207 
L 198.099297 61.584954 
L 197.448686 61.862859 
L 196.798076 62.144921 
L 196.147466 62.43114 
L 195.496856 62.721517 
L 194.846245 63.016051 
L 194.195635 63.314744 
L 193.545025 63.617595 
L 192.894414 63.924605 
L 192.243804 64.235774 
L 191.593194 64.551103 
L 190.942583 64.87059 
L 190.291973 65.194238 
L 189.641363 65.522046 
L 188.990752 65.854014 
L 188.340142 66.190143 
L 187.689532 66.530433 
L 187.038921 66.874884 
L 186.388311 67.223497 
L 185.737701 67.576271 
L 185.087091 67.933207 
L 184.43648 68.294306 
L 183.78587 68.659567 
L 183.13526 69.028992 
L 182.484649 69.402579 
L 181.834039 69.78033 
L 181.183429 70.16224 
L 180.532818 70.548297 
L 179.882208 70.938492 
L 179.231598 71.332811 
L 178.580987 71.731242 
L 177.930377 72.133776 
L 177.279767 72.540398 
L 176.629156 72.951099 
L 175.978546 73.365866 
L 175.327936 73.784687 
L 174.677326 74.207551 
L 174.026715 74.634447 
L 173.376105 75.065361 
L 172.725495 75.500284 
L 172.074884 75.939203 
L 171.424274 76.382106 
L 170.773664 76.828981 
L 170.123053 77.279818 
L 169.472443 77.734604 
L 168.821833 78.193328 
L 168.171222 78.655978 
L 167.520612 79.122542 
L 166.870002 79.593008 
L 166.219392 80.067366 
L 165.568781 80.545602 
L 164.918171 81.027707 
L 164.267561 81.513667 
L 163.61695 82.003471 
L 162.96634 82.497107 
L 162.31573 82.994565 
L 161.665119 83.495831 
L 161.014509 84.000895 
L 160.363899 84.509744 
L 159.713288 85.022368 
L 159.062678 85.538754 
L 158.412068 86.05889 
L 157.761457 86.582766 
L 157.110847 87.110368 
L 156.460237 87.641687 
L 155.809627 88.176709 
L 155.159016 88.715423 
L 154.508406 89.257818 
L 153.857796 89.803882 
L 153.207185 90.353603 
L 152.556575 90.906969 
L 151.905965 91.463969 
L 151.255354 92.024591 
L 150.604744 92.588823 
L 149.954134 93.156654 
L 149.303523 93.728073 
L 148.652913 94.303066 
L 148.002303 94.881623 
L 147.351692 95.463732 
L 146.701082 96.049381 
L 146.050472 96.638559 
L 145.399862 97.231254 
L 144.749251 97.827454 
L 144.098641 98.427147 
L 143.448031 99.030323 
L 142.79742 99.636968 
L 142.14681 100.247072 
L 141.4962 100.860622 
L 140.845589 101.477608 
L 140.194979 102.098017 
L 139.544369 102.721837 
L 138.893758 103.349058 
L 138.243148 103.979667 
L 137.592538 104.613652 
L 136.941927 105.251003 
L 136.291317 105.891707 
L 135.640707 106.535752 
L 134.990097 107.183127 
L 134.339486 107.83382 
L 133.688876 108.48782 
L 133.038266 109.145115 
L 132.387655 109.805692 
L 131.737045 110.469542 
L 131.086435 111.13665 
L 130.435824 111.807007 
L 129.785214 112.480601 
L 129.134604 113.157419 
L 128.483993 113.83745 
L 127.833383 114.520682 
L 127.182773 115.207104 
L 126.532163 115.896704 
L 125.881552 116.58947 
L 125.230942 117.28539 
L 124.580332 117.984454 
L 123.929721 118.686648 
L 123.279111 119.391962 
L 122.628501 120.100384 
L 121.97789 120.811902 
L 121.32728 121.526504 
L 120.67667 122.244179 
L 120.026059 122.964916 
L 119.375449 123.688701 
L 118.724839 124.415524 
L 118.074228 125.145373 
L 117.423618 125.878237 
L 116.773008 126.614103 
L 116.122398 127.35296 
L 115.471787 128.094796 
L 114.821177 128.8396 
L 114.170567 129.587359 
L 113.519956 130.338063 
L 112.869346 131.091699 
L 112.218736 131.848256 
L 111.568125 132.607722 
L 110.917515 133.370086 
L 110.266905 134.135335 
L 109.616294 134.903458 
L 108.965684 135.674444 
L 108.315074 136.44828 
L 107.664463 137.224955 
L 107.013853 138.004458 
L 106.363243 138.786776 
L 105.712633 139.571898 
L 105.062022 140.359812 
L 104.411412 141.150506 
L 103.760802 141.94397 
L 103.110191 142.740191 
L 102.459581 143.539157 
L 101.808971 144.340857 
L 101.15836 145.145279 
L 100.50775 145.952411 
L 99.85714 146.762242 
L 99.206529 147.574761 
L 98.555919 148.389954 
L 97.905309 149.207811 
L 97.254698 150.02832 
L 96.604088 150.85147 
L 95.953478 151.677248 
L 95.302868 152.505642 
L 94.652257 153.336643 
L 94.001647 154.170236 
L 93.351037 155.006411 
L 92.700426 155.845157 
L 92.049816 156.686461 
L 91.399206 157.530312 
L 90.748595 158.376698 
L 90.097985 159.225607 
L 89.447375 160.077028 
L 88.796764 160.930949 
L 88.146154 161.787358 
L 87.495544 162.646244 
L 86.844934 163.507595 
L 86.194323 164.371399 
L 85.543713 165.237645 
L 84.893103 166.10632 
L 84.242492 166.977414 
L 83.591882 167.850914 
L 82.941272 168.726809 
L 82.290661 169.605088 
L 81.640051 170.485737 
L 80.989441 171.368747 
L 80.33883 172.254104 
L 79.68822 173.141798 
L 79.03761 174.031817 
L 78.386999 174.924148 
L 77.736389 175.818781 
L 77.085779 176.715704 
L 76.435169 177.614904 
L 75.784558 178.516371 
L 75.133948 179.420093 
L 74.483338 180.326057 
L 73.832727 181.234252 
z
" clip-path="url(#pb04157bc88)" style="fill: #0000ff; fill-opacity: 0.25"/>
   </g>
   <g id="matplotlib.axis_1">
    <g id="xtick_1">
     <g id="line2d_1">
      <defs>
       <path id="mf3c0bb8c4c" d="M 0 0 
L 0 3.5 
" style="stroke: #000000; stroke-width: 0.8"/>
      </defs>
      <g>
       <use xlink:href="#mf3c0bb8c4c" x="73.832727" y="307.584" style="stroke: #000000; stroke-width: 0.8"/>
      </g>
     </g>
     <g id="text_1">
      <!-- 40 -->
      <g transform="translate(67.470227 322.182437) scale(0.1 -0.1)">
       <defs>
        <path id="DejaVuSans-34" d="M 2419 4116 
L 825 1625 
L 2419 1625 
L 2419 4116 
z
M 2253 4666 
L 3047 4666 
L 3047 1625 
L 3713 1625 
L 3713 1100 
L 3047 1100 
L 3047 0 
L 2419 0 
L 2419 1100 
L 313 1100 
L 313 1709 
L 2253 4666 
z
" transform="scale(0.015625)"/>
        <path id="DejaVuSans-30" d="M 2034 4250 
Q 1547 4250 1301 3770 
Q 1056 3291 1056 2328 
Q 1056 1369 1301 889 
Q 1547 409 2034 409 
Q 2525 409 2770 889 
Q 3016 1369 3016 2328 
Q 3016 3291 2770 3770 
Q 2525 4250 2034 4250 
z
M 2034 4750 
Q 2819 4750 3233 4129 
Q 3647 3509 3647 2328 
Q 3647 1150 3233 529 
Q 2819 -91 2034 -91 
Q 1250 -91 836 529 
Q 422 1150 422 2328 
Q 422 3509 836 4129 
Q 1250 4750 2034 4750 
z
" transform="scale(0.015625)"/>
       </defs>
       <use xlink:href="#DejaVuSans-34"/>
       <use xlink:href="#DejaVuSans-30" x="63.623047"/>
      </g>
     </g>
    </g>
    <g id="xtick_2">
     <g id="line2d_2">
      <g>
       <use xlink:href="#mf3c0bb8c4c" x="127.941818" y="307.584" style="stroke: #000000; stroke-width: 0.8"/>
      </g>
     </g>
     <g id="text_2">
      <!-- 50 -->
      <g transform="translate(121.579318 322.182437) scale(0.1 -0.1)">
       <defs>
        <path id="DejaVuSans-35" d="M 691 4666 
L 3169 4666 
L 3169 4134 
L 1269 4134 
L 1269 2991 
Q 1406 3038 1543 3061 
Q 1681 3084 1819 3084 
Q 2600 3084 3056 2656 
Q 3513 2228 3513 1497 
Q 3513 744 3044 326 
Q 2575 -91 1722 -91 
Q 1428 -91 1123 -41 
Q 819 9 494 109 
L 494 744 
Q 775 591 1075 516 
Q 1375 441 1709 441 
Q 2250 441 2565 725 
Q 2881 1009 2881 1497 
Q 2881 1984 2565 2268 
Q 2250 2553 1709 2553 
Q 1456 2553 1204 2497 
Q 953 2441 691 2322 
L 691 4666 
z
" transform="scale(0.015625)"/>
       </defs>
       <use xlink:href="#DejaVuSans-35"/>
       <use xlink:href="#DejaVuSans-30" x="63.623047"/>
      </g>
     </g>
    </g>
    <g id="xtick_3">
     <g id="line2d_3">
      <g>
       <use xlink:href="#mf3c0bb8c4c" x="182.050909" y="307.584" style="stroke: #000000; stroke-width: 0.8"/>
      </g>
     </g>
     <g id="text_3">
      <!-- 60 -->
      <g transform="translate(175.688409 322.182437) scale(0.1 -0.1)">
       <defs>
        <path id="DejaVuSans-36" d="M 2113 2584 
Q 1688 2584 1439 2293 
Q 1191 2003 1191 1497 
Q 1191 994 1439 701 
Q 1688 409 2113 409 
Q 2538 409 2786 701 
Q 3034 994 3034 1497 
Q 3034 2003 2786 2293 
Q 2538 2584 2113 2584 
z
M 3366 4563 
L 3366 3988 
Q 3128 4100 2886 4159 
Q 2644 4219 2406 4219 
Q 1781 4219 1451 3797 
Q 1122 3375 1075 2522 
Q 1259 2794 1537 2939 
Q 1816 3084 2150 3084 
Q 2853 3084 3261 2657 
Q 3669 2231 3669 1497 
Q 3669 778 3244 343 
Q 2819 -91 2113 -91 
Q 1303 -91 875 529 
Q 447 1150 447 2328 
Q 447 3434 972 4092 
Q 1497 4750 2381 4750 
Q 2619 4750 2861 4703 
Q 3103 4656 3366 4563 
z
" transform="scale(0.015625)"/>
       </defs>
       <use xlink:href="#DejaVuSans-36"/>
       <use xlink:href="#DejaVuSans-30" x="63.623047"/>
      </g>
     </g>
    </g>
    <g id="xtick_4">
     <g id="line2d_4">
      <g>
       <use xlink:href="#mf3c0bb8c4c" x="236.16" y="307.584" style="stroke: #000000; stroke-width: 0.8"/>
      </g>
     </g>
     <g id="text_4">
      <!-- 70 -->
      <g transform="translate(229.7975 322.182437) scale(0.1 -0.1)">
       <defs>
        <path id="DejaVuSans-37" d="M 525 4666 
L 3525 4666 
L 3525 4397 
L 1831 0 
L 1172 0 
L 2766 4134 
L 525 4134 
L 525 4666 
z
" transform="scale(0.015625)"/>
       </defs>
       <use xlink:href="#DejaVuSans-37"/>
       <use xlink:href="#DejaVuSans-30" x="63.623047"/>
      </g>
     </g>
    </g>
    <g id="xtick_5">
     <g id="line2d_5">
      <g>
       <use xlink:href="#mf3c0bb8c4c" x="290.269091" y="307.584" style="stroke: #000000; stroke-width: 0.8"/>
      </g>
     </g>
     <g id="text_5">
      <!-- 80 -->
      <g transform="translate(283.906591 322.182437) scale(0.1 -0.1)">
       <defs>
        <path id="DejaVuSans-38" d="M 2034 2216 
Q 1584 2216 1326 1975 
Q 1069 1734 1069 1313 
Q 1069 891 1326 650 
Q 1584 409 2034 409 
Q 2484 409 2743 651 
Q 3003 894 3003 1313 
Q 3003 1734 2745 1975 
Q 2488 2216 2034 2216 
z
M 1403 2484 
Q 997 2584 770 2862 
Q 544 3141 544 3541 
Q 544 4100 942 4425 
Q 1341 4750 2034 4750 
Q 2731 4750 3128 4425 
Q 3525 4100 3525 3541 
Q 3525 3141 3298 2862 
Q 3072 2584 2669 2484 
Q 3125 2378 3379 2068 
Q 3634 1759 3634 1313 
Q 3634 634 3220 271 
Q 2806 -91 2034 -91 
Q 1263 -91 848 271 
Q 434 634 434 1313 
Q 434 1759 690 2068 
Q 947 2378 1403 2484 
z
M 1172 3481 
Q 1172 3119 1398 2916 
Q 1625 2713 2034 2713 
Q 2441 2713 2670 2916 
Q 2900 3119 2900 3481 
Q 2900 3844 2670 4047 
Q 2441 4250 2034 4250 
Q 1625 4250 1398 4047 
Q 1172 3844 1172 3481 
z
" transform="scale(0.015625)"/>
       </defs>
       <use xlink:href="#DejaVuSans-38"/>
       <use xlink:href="#DejaVuSans-30" x="63.623047"/>
      </g>
     </g>
    </g>
    <g id="xtick_6">
     <g id="line2d_6">
      <g>
       <use xlink:href="#mf3c0bb8c4c" x="344.378182" y="307.584" style="stroke: #000000; stroke-width: 0.8"/>
      </g>
     </g>
     <g id="text_6">
      <!-- 90 -->
      <g transform="translate(338.015682 322.182437) scale(0.1 -0.1)">
       <defs>
        <path id="DejaVuSans-39" d="M 703 97 
L 703 672 
Q 941 559 1184 500 
Q 1428 441 1663 441 
Q 2288 441 2617 861 
Q 2947 1281 2994 2138 
Q 2813 1869 2534 1725 
Q 2256 1581 1919 1581 
Q 1219 1581 811 2004 
Q 403 2428 403 3163 
Q 403 3881 828 4315 
Q 1253 4750 1959 4750 
Q 2769 4750 3195 4129 
Q 3622 3509 3622 2328 
Q 3622 1225 3098 567 
Q 2575 -91 1691 -91 
Q 1453 -91 1209 -44 
Q 966 3 703 97 
z
M 1959 2075 
Q 2384 2075 2632 2365 
Q 2881 2656 2881 3163 
Q 2881 3666 2632 3958 
Q 2384 4250 1959 4250 
Q 1534 4250 1286 3958 
Q 1038 3666 1038 3163 
Q 1038 2656 1286 2365 
Q 1534 2075 1959 2075 
z
" transform="scale(0.015625)"/>
       </defs>
       <use xlink:href="#DejaVuSans-39"/>
       <use xlink:href="#DejaVuSans-30" x="63.623047"/>
      </g>
     </g>
    </g>
    <g id="xtick_7">
     <g id="line2d_7">
      <g>
       <use xlink:href="#mf3c0bb8c4c" x="398.487273" y="307.584" style="stroke: #000000; stroke-width: 0.8"/>
      </g>
     </g>
     <g id="text_7">
      <!-- 100 -->
      <g transform="translate(388.943523 322.182437) scale(0.1 -0.1)">
       <defs>
        <path id="DejaVuSans-31" d="M 794 531 
L 1825 531 
L 1825 4091 
L 703 3866 
L 703 4441 
L 1819 4666 
L 2450 4666 
L 2450 531 
L 3481 531 
L 3481 0 
L 794 0 
L 794 531 
z
" transform="scale(0.015625)"/>
       </defs>
       <use xlink:href="#DejaVuSans-31"/>
       <use xlink:href="#DejaVuSans-30" x="63.623047"/>
       <use xlink:href="#DejaVuSans-30" x="127.246094"/>
      </g>
     </g>
    </g>
    <g id="xtick_8">
     <g id="line2d_8">
      <defs>
       <path id="m04bab31de2" d="M 0 0 
L 0 2 
" style="stroke: #000000; stroke-width: 0.6"/>
      </defs>
      <g>
       <use xlink:href="#m04bab31de2" x="100.887273" y="307.584" style="stroke: #000000; stroke-width: 0.6"/>
      </g>
     </g>
    </g>
    <g id="xtick_9">
     <g id="line2d_9">
      <g>
       <use xlink:href="#m04bab31de2" x="154.996364" y="307.584" style="stroke: #000000; stroke-width: 0.6"/>
      </g>
     </g>
    </g>
    <g id="xtick_10">
     <g id="line2d_10">
      <g>
       <use xlink:href="#m04bab31de2" x="209.105455" y="307.584" style="stroke: #000000; stroke-width: 0.6"/>
      </g>
     </g>
    </g>
    <g id="xtick_11">
     <g id="line2d_11">
      <g>
       <use xlink:href="#m04bab31de2" x="263.214545" y="307.584" style="stroke: #000000; stroke-width: 0.6"/>
      </g>
     </g>
    </g>
    <g id="xtick_12">
     <g id="line2d_12">
      <g>
       <use xlink:href="#m04bab31de2" x="317.323636" y="307.584" style="stroke: #000000; stroke-width: 0.6"/>
      </g>
     </g>
    </g>
    <g id="xtick_13">
     <g id="line2d_13">
      <g>
       <use xlink:href="#m04bab31de2" x="371.432727" y="307.584" style="stroke: #000000; stroke-width: 0.6"/>
      </g>
     </g>
    </g>
    <g id="text_8">
     <!-- Initial Li-6 concentration [mg/kgU] -->
     <g transform="translate(150.409219 335.860562) scale(0.1 -0.1)">
      <defs>
       <path id="DejaVuSans-49" d="M 628 4666 
L 1259 4666 
L 1259 0 
L 628 0 
L 628 4666 
z
" transform="scale(0.015625)"/>
       <path id="DejaVuSans-6e" d="M 3513 2113 
L 3513 0 
L 2938 0 
L 2938 2094 
Q 2938 2591 2744 2837 
Q 2550 3084 2163 3084 
Q 1697 3084 1428 2787 
Q 1159 2491 1159 1978 
L 1159 0 
L 581 0 
L 581 3500 
L 1159 3500 
L 1159 2956 
Q 1366 3272 1645 3428 
Q 1925 3584 2291 3584 
Q 2894 3584 3203 3211 
Q 3513 2838 3513 2113 
z
" transform="scale(0.015625)"/>
       <path id="DejaVuSans-69" d="M 603 3500 
L 1178 3500 
L 1178 0 
L 603 0 
L 603 3500 
z
M 603 4863 
L 1178 4863 
L 1178 4134 
L 603 4134 
L 603 4863 
z
" transform="scale(0.015625)"/>
       <path id="DejaVuSans-74" d="M 1172 4494 
L 1172 3500 
L 2356 3500 
L 2356 3053 
L 1172 3053 
L 1172 1153 
Q 1172 725 1289 603 
Q 1406 481 1766 481 
L 2356 481 
L 2356 0 
L 1766 0 
Q 1100 0 847 248 
Q 594 497 594 1153 
L 594 3053 
L 172 3053 
L 172 3500 
L 594 3500 
L 594 4494 
L 1172 4494 
z
" transform="scale(0.015625)"/>
       <path id="DejaVuSans-61" d="M 2194 1759 
Q 1497 1759 1228 1600 
Q 959 1441 959 1056 
Q 959 750 1161 570 
Q 1363 391 1709 391 
Q 2188 391 2477 730 
Q 2766 1069 2766 1631 
L 2766 1759 
L 2194 1759 
z
M 3341 1997 
L 3341 0 
L 2766 0 
L 2766 531 
Q 2569 213 2275 61 
Q 1981 -91 1556 -91 
Q 1019 -91 701 211 
Q 384 513 384 1019 
Q 384 1609 779 1909 
Q 1175 2209 1959 2209 
L 2766 2209 
L 2766 2266 
Q 2766 2663 2505 2880 
Q 2244 3097 1772 3097 
Q 1472 3097 1187 3025 
Q 903 2953 641 2809 
L 641 3341 
Q 956 3463 1253 3523 
Q 1550 3584 1831 3584 
Q 2591 3584 2966 3190 
Q 3341 2797 3341 1997 
z
" transform="scale(0.015625)"/>
       <path id="DejaVuSans-6c" d="M 603 4863 
L 1178 4863 
L 1178 0 
L 603 0 
L 603 4863 
z
" transform="scale(0.015625)"/>
       <path id="DejaVuSans-20" transform="scale(0.015625)"/>
       <path id="DejaVuSans-4c" d="M 628 4666 
L 1259 4666 
L 1259 531 
L 3531 531 
L 3531 0 
L 628 0 
L 628 4666 
z
" transform="scale(0.015625)"/>
       <path id="DejaVuSans-2d" d="M 313 2009 
L 1997 2009 
L 1997 1497 
L 313 1497 
L 313 2009 
z
" transform="scale(0.015625)"/>
       <path id="DejaVuSans-63" d="M 3122 3366 
L 3122 2828 
Q 2878 2963 2633 3030 
Q 2388 3097 2138 3097 
Q 1578 3097 1268 2742 
Q 959 2388 959 1747 
Q 959 1106 1268 751 
Q 1578 397 2138 397 
Q 2388 397 2633 464 
Q 2878 531 3122 666 
L 3122 134 
Q 2881 22 2623 -34 
Q 2366 -91 2075 -91 
Q 1284 -91 818 406 
Q 353 903 353 1747 
Q 353 2603 823 3093 
Q 1294 3584 2113 3584 
Q 2378 3584 2631 3529 
Q 2884 3475 3122 3366 
z
" transform="scale(0.015625)"/>
       <path id="DejaVuSans-6f" d="M 1959 3097 
Q 1497 3097 1228 2736 
Q 959 2375 959 1747 
Q 959 1119 1226 758 
Q 1494 397 1959 397 
Q 2419 397 2687 759 
Q 2956 1122 2956 1747 
Q 2956 2369 2687 2733 
Q 2419 3097 1959 3097 
z
M 1959 3584 
Q 2709 3584 3137 3096 
Q 3566 2609 3566 1747 
Q 3566 888 3137 398 
Q 2709 -91 1959 -91 
Q 1206 -91 779 398 
Q 353 888 353 1747 
Q 353 2609 779 3096 
Q 1206 3584 1959 3584 
z
" transform="scale(0.015625)"/>
       <path id="DejaVuSans-65" d="M 3597 1894 
L 3597 1613 
L 953 1613 
Q 991 1019 1311 708 
Q 1631 397 2203 397 
Q 2534 397 2845 478 
Q 3156 559 3463 722 
L 3463 178 
Q 3153 47 2828 -22 
Q 2503 -91 2169 -91 
Q 1331 -91 842 396 
Q 353 884 353 1716 
Q 353 2575 817 3079 
Q 1281 3584 2069 3584 
Q 2775 3584 3186 3129 
Q 3597 2675 3597 1894 
z
M 3022 2063 
Q 3016 2534 2758 2815 
Q 2500 3097 2075 3097 
Q 1594 3097 1305 2825 
Q 1016 2553 972 2059 
L 3022 2063 
z
" transform="scale(0.015625)"/>
       <path id="DejaVuSans-72" d="M 2631 2963 
Q 2534 3019 2420 3045 
Q 2306 3072 2169 3072 
Q 1681 3072 1420 2755 
Q 1159 2438 1159 1844 
L 1159 0 
L 581 0 
L 581 3500 
L 1159 3500 
L 1159 2956 
Q 1341 3275 1631 3429 
Q 1922 3584 2338 3584 
Q 2397 3584 2469 3576 
Q 2541 3569 2628 3553 
L 2631 2963 
z
" transform="scale(0.015625)"/>
       <path id="DejaVuSans-5b" d="M 550 4863 
L 1875 4863 
L 1875 4416 
L 1125 4416 
L 1125 -397 
L 1875 -397 
L 1875 -844 
L 550 -844 
L 550 4863 
z
" transform="scale(0.015625)"/>
       <path id="DejaVuSans-6d" d="M 3328 2828 
Q 3544 3216 3844 3400 
Q 4144 3584 4550 3584 
Q 5097 3584 5394 3201 
Q 5691 2819 5691 2113 
L 5691 0 
L 5113 0 
L 5113 2094 
Q 5113 2597 4934 2840 
Q 4756 3084 4391 3084 
Q 3944 3084 3684 2787 
Q 3425 2491 3425 1978 
L 3425 0 
L 2847 0 
L 2847 2094 
Q 2847 2600 2669 2842 
Q 2491 3084 2119 3084 
Q 1678 3084 1418 2786 
Q 1159 2488 1159 1978 
L 1159 0 
L 581 0 
L 581 3500 
L 1159 3500 
L 1159 2956 
Q 1356 3278 1631 3431 
Q 1906 3584 2284 3584 
Q 2666 3584 2933 3390 
Q 3200 3197 3328 2828 
z
" transform="scale(0.015625)"/>
       <path id="DejaVuSans-67" d="M 2906 1791 
Q 2906 2416 2648 2759 
Q 2391 3103 1925 3103 
Q 1463 3103 1205 2759 
Q 947 2416 947 1791 
Q 947 1169 1205 825 
Q 1463 481 1925 481 
Q 2391 481 2648 825 
Q 2906 1169 2906 1791 
z
M 3481 434 
Q 3481 -459 3084 -895 
Q 2688 -1331 1869 -1331 
Q 1566 -1331 1297 -1286 
Q 1028 -1241 775 -1147 
L 775 -588 
Q 1028 -725 1275 -790 
Q 1522 -856 1778 -856 
Q 2344 -856 2625 -561 
Q 2906 -266 2906 331 
L 2906 616 
Q 2728 306 2450 153 
Q 2172 0 1784 0 
Q 1141 0 747 490 
Q 353 981 353 1791 
Q 353 2603 747 3093 
Q 1141 3584 1784 3584 
Q 2172 3584 2450 3431 
Q 2728 3278 2906 2969 
L 2906 3500 
L 3481 3500 
L 3481 434 
z
" transform="scale(0.015625)"/>
       <path id="DejaVuSans-2f" d="M 1625 4666 
L 2156 4666 
L 531 -594 
L 0 -594 
L 1625 4666 
z
" transform="scale(0.015625)"/>
       <path id="DejaVuSans-6b" d="M 581 4863 
L 1159 4863 
L 1159 1991 
L 2875 3500 
L 3609 3500 
L 1753 1863 
L 3688 0 
L 2938 0 
L 1159 1709 
L 1159 0 
L 581 0 
L 581 4863 
z
" transform="scale(0.015625)"/>
       <path id="DejaVuSans-55" d="M 556 4666 
L 1191 4666 
L 1191 1831 
Q 1191 1081 1462 751 
Q 1734 422 2344 422 
Q 2950 422 3222 751 
Q 3494 1081 3494 1831 
L 3494 4666 
L 4128 4666 
L 4128 1753 
Q 4128 841 3676 375 
Q 3225 -91 2344 -91 
Q 1459 -91 1007 375 
Q 556 841 556 1753 
L 556 4666 
z
" transform="scale(0.015625)"/>
       <path id="DejaVuSans-5d" d="M 1947 4863 
L 1947 -844 
L 622 -844 
L 622 -397 
L 1369 -397 
L 1369 4416 
L 622 4416 
L 622 4863 
L 1947 4863 
z
" transform="scale(0.015625)"/>
      </defs>
      <use xlink:href="#DejaVuSans-49"/>
      <use xlink:href="#DejaVuSans-6e" x="29.492188"/>
      <use xlink:href="#DejaVuSans-69" x="92.871094"/>
      <use xlink:href="#DejaVuSans-74" x="120.654297"/>
      <use xlink:href="#DejaVuSans-69" x="159.863281"/>
      <use xlink:href="#DejaVuSans-61" x="187.646484"/>
      <use xlink:href="#DejaVuSans-6c" x="248.925781"/>
      <use xlink:href="#DejaVuSans-20" x="276.708984"/>
      <use xlink:href="#DejaVuSans-4c" x="308.496094"/>
      <use xlink:href="#DejaVuSans-69" x="364.208984"/>
      <use xlink:href="#DejaVuSans-2d" x="391.992188"/>
      <use xlink:href="#DejaVuSans-36" x="428.076172"/>
      <use xlink:href="#DejaVuSans-20" x="491.699219"/>
      <use xlink:href="#DejaVuSans-63" x="523.486328"/>
      <use xlink:href="#DejaVuSans-6f" x="578.466797"/>
      <use xlink:href="#DejaVuSans-6e" x="639.648438"/>
      <use xlink:href="#DejaVuSans-63" x="703.027344"/>
      <use xlink:href="#DejaVuSans-65" x="758.007812"/>
      <use xlink:href="#DejaVuSans-6e" x="819.53125"/>
      <use xlink:href="#DejaVuSans-74" x="882.910156"/>
      <use xlink:href="#DejaVuSans-72" x="922.119141"/>
      <use xlink:href="#DejaVuSans-61" x="963.232422"/>
      <use xlink:href="#DejaVuSans-74" x="1024.511719"/>
      <use xlink:href="#DejaVuSans-69" x="1063.720703"/>
      <use xlink:href="#DejaVuSans-6f" x="1091.503906"/>
      <use xlink:href="#DejaVuSans-6e" x="1152.685547"/>
      <use xlink:href="#DejaVuSans-20" x="1216.064453"/>
      <use xlink:href="#DejaVuSans-5b" x="1247.851562"/>
      <use xlink:href="#DejaVuSans-6d" x="1286.865234"/>
      <use xlink:href="#DejaVuSans-67" x="1384.277344"/>
      <use xlink:href="#DejaVuSans-2f" x="1447.753906"/>
      <use xlink:href="#DejaVuSans-6b" x="1481.445312"/>
      <use xlink:href="#DejaVuSans-67" x="1539.355469"/>
      <use xlink:href="#DejaVuSans-55" x="1602.832031"/>
      <use xlink:href="#DejaVuSans-5d" x="1676.025391"/>
     </g>
    </g>
   </g>
   <g id="matplotlib.axis_2">
    <g id="ytick_1">
     <g id="line2d_14">
      <defs>
       <path id="m8514c5952d" d="M 0 0 
L -3.5 0 
" style="stroke: #000000; stroke-width: 0.8"/>
      </defs>
      <g>
       <use xlink:href="#m8514c5952d" x="57.6" y="285.921074" style="stroke: #000000; stroke-width: 0.8"/>
      </g>
     </g>
     <g id="text_9">
      <!-- 25.0 -->
      <g style="fill: #0000ff" transform="translate(28.334375 289.720292) scale(0.1 -0.1)">
       <defs>
        <path id="DejaVuSans-32" d="M 1228 531 
L 3431 531 
L 3431 0 
L 469 0 
L 469 531 
Q 828 903 1448 1529 
Q 2069 2156 2228 2338 
Q 2531 2678 2651 2914 
Q 2772 3150 2772 3378 
Q 2772 3750 2511 3984 
Q 2250 4219 1831 4219 
Q 1534 4219 1204 4116 
Q 875 4013 500 3803 
L 500 4441 
Q 881 4594 1212 4672 
Q 1544 4750 1819 4750 
Q 2544 4750 2975 4387 
Q 3406 4025 3406 3419 
Q 3406 3131 3298 2873 
Q 3191 2616 2906 2266 
Q 2828 2175 2409 1742 
Q 1991 1309 1228 531 
z
" transform="scale(0.015625)"/>
        <path id="DejaVuSans-2e" d="M 684 794 
L 1344 794 
L 1344 0 
L 684 0 
L 684 794 
z
" transform="scale(0.015625)"/>
       </defs>
       <use xlink:href="#DejaVuSans-32"/>
       <use xlink:href="#DejaVuSans-35" x="63.623047"/>
       <use xlink:href="#DejaVuSans-2e" x="127.246094"/>
       <use xlink:href="#DejaVuSans-30" x="159.033203"/>
      </g>
     </g>
    </g>
    <g id="ytick_2">
     <g id="line2d_15">
      <g>
       <use xlink:href="#m8514c5952d" x="57.6" y="254.659244" style="stroke: #000000; stroke-width: 0.8"/>
      </g>
     </g>
     <g id="text_10">
      <!-- 27.5 -->
      <g style="fill: #0000ff" transform="translate(28.334375 258.458463) scale(0.1 -0.1)">
       <use xlink:href="#DejaVuSans-32"/>
       <use xlink:href="#DejaVuSans-37" x="63.623047"/>
       <use xlink:href="#DejaVuSans-2e" x="127.246094"/>
       <use xlink:href="#DejaVuSans-35" x="159.033203"/>
      </g>
     </g>
    </g>
    <g id="ytick_3">
     <g id="line2d_16">
      <g>
       <use xlink:href="#m8514c5952d" x="57.6" y="223.397414" style="stroke: #000000; stroke-width: 0.8"/>
      </g>
     </g>
     <g id="text_11">
      <!-- 30.0 -->
      <g style="fill: #0000ff" transform="translate(28.334375 227.196633) scale(0.1 -0.1)">
       <defs>
        <path id="DejaVuSans-33" d="M 2597 2516 
Q 3050 2419 3304 2112 
Q 3559 1806 3559 1356 
Q 3559 666 3084 287 
Q 2609 -91 1734 -91 
Q 1441 -91 1130 -33 
Q 819 25 488 141 
L 488 750 
Q 750 597 1062 519 
Q 1375 441 1716 441 
Q 2309 441 2620 675 
Q 2931 909 2931 1356 
Q 2931 1769 2642 2001 
Q 2353 2234 1838 2234 
L 1294 2234 
L 1294 2753 
L 1863 2753 
Q 2328 2753 2575 2939 
Q 2822 3125 2822 3475 
Q 2822 3834 2567 4026 
Q 2313 4219 1838 4219 
Q 1578 4219 1281 4162 
Q 984 4106 628 3988 
L 628 4550 
Q 988 4650 1302 4700 
Q 1616 4750 1894 4750 
Q 2613 4750 3031 4423 
Q 3450 4097 3450 3541 
Q 3450 3153 3228 2886 
Q 3006 2619 2597 2516 
z
" transform="scale(0.015625)"/>
       </defs>
       <use xlink:href="#DejaVuSans-33"/>
       <use xlink:href="#DejaVuSans-30" x="63.623047"/>
       <use xlink:href="#DejaVuSans-2e" x="127.246094"/>
       <use xlink:href="#DejaVuSans-30" x="159.033203"/>
      </g>
     </g>
    </g>
    <g id="ytick_4">
     <g id="line2d_17">
      <g>
       <use xlink:href="#m8514c5952d" x="57.6" y="192.135585" style="stroke: #000000; stroke-width: 0.8"/>
      </g>
     </g>
     <g id="text_12">
      <!-- 32.5 -->
      <g style="fill: #0000ff" transform="translate(28.334375 195.934803) scale(0.1 -0.1)">
       <use xlink:href="#DejaVuSans-33"/>
       <use xlink:href="#DejaVuSans-32" x="63.623047"/>
       <use xlink:href="#DejaVuSans-2e" x="127.246094"/>
       <use xlink:href="#DejaVuSans-35" x="159.033203"/>
      </g>
     </g>
    </g>
    <g id="ytick_5">
     <g id="line2d_18">
      <g>
       <use xlink:href="#m8514c5952d" x="57.6" y="160.873755" style="stroke: #000000; stroke-width: 0.8"/>
      </g>
     </g>
     <g id="text_13">
      <!-- 35.0 -->
      <g style="fill: #0000ff" transform="translate(28.334375 164.672974) scale(0.1 -0.1)">
       <use xlink:href="#DejaVuSans-33"/>
       <use xlink:href="#DejaVuSans-35" x="63.623047"/>
       <use xlink:href="#DejaVuSans-2e" x="127.246094"/>
       <use xlink:href="#DejaVuSans-30" x="159.033203"/>
      </g>
     </g>
    </g>
    <g id="ytick_6">
     <g id="line2d_19">
      <g>
       <use xlink:href="#m8514c5952d" x="57.6" y="129.611925" style="stroke: #000000; stroke-width: 0.8"/>
      </g>
     </g>
     <g id="text_14">
      <!-- 37.5 -->
      <g style="fill: #0000ff" transform="translate(28.334375 133.411144) scale(0.1 -0.1)">
       <use xlink:href="#DejaVuSans-33"/>
       <use xlink:href="#DejaVuSans-37" x="63.623047"/>
       <use xlink:href="#DejaVuSans-2e" x="127.246094"/>
       <use xlink:href="#DejaVuSans-35" x="159.033203"/>
      </g>
     </g>
    </g>
    <g id="ytick_7">
     <g id="line2d_20">
      <g>
       <use xlink:href="#m8514c5952d" x="57.6" y="98.350095" style="stroke: #000000; stroke-width: 0.8"/>
      </g>
     </g>
     <g id="text_15">
      <!-- 40.0 -->
      <g style="fill: #0000ff" transform="translate(28.334375 102.149314) scale(0.1 -0.1)">
       <use xlink:href="#DejaVuSans-34"/>
       <use xlink:href="#DejaVuSans-30" x="63.623047"/>
       <use xlink:href="#DejaVuSans-2e" x="127.246094"/>
       <use xlink:href="#DejaVuSans-30" x="159.033203"/>
      </g>
     </g>
    </g>
    <g id="ytick_8">
     <g id="line2d_21">
      <g>
       <use xlink:href="#m8514c5952d" x="57.6" y="67.088266" style="stroke: #000000; stroke-width: 0.8"/>
      </g>
     </g>
     <g id="text_16">
      <!-- 42.5 -->
      <g style="fill: #0000ff" transform="translate(28.334375 70.887484) scale(0.1 -0.1)">
       <use xlink:href="#DejaVuSans-34"/>
       <use xlink:href="#DejaVuSans-32" x="63.623047"/>
       <use xlink:href="#DejaVuSans-2e" x="127.246094"/>
       <use xlink:href="#DejaVuSans-35" x="159.033203"/>
      </g>
     </g>
    </g>
    <g id="text_17">
     <!-- T produced [g] -->
     <g style="fill: #0000ff" transform="translate(22.254687 211.355344) rotate(-90) scale(0.1 -0.1)">
      <defs>
       <path id="DejaVuSans-54" d="M -19 4666 
L 3928 4666 
L 3928 4134 
L 2272 4134 
L 2272 0 
L 1638 0 
L 1638 4134 
L -19 4134 
L -19 4666 
z
" transform="scale(0.015625)"/>
       <path id="DejaVuSans-70" d="M 1159 525 
L 1159 -1331 
L 581 -1331 
L 581 3500 
L 1159 3500 
L 1159 2969 
Q 1341 3281 1617 3432 
Q 1894 3584 2278 3584 
Q 2916 3584 3314 3078 
Q 3713 2572 3713 1747 
Q 3713 922 3314 415 
Q 2916 -91 2278 -91 
Q 1894 -91 1617 61 
Q 1341 213 1159 525 
z
M 3116 1747 
Q 3116 2381 2855 2742 
Q 2594 3103 2138 3103 
Q 1681 3103 1420 2742 
Q 1159 2381 1159 1747 
Q 1159 1113 1420 752 
Q 1681 391 2138 391 
Q 2594 391 2855 752 
Q 3116 1113 3116 1747 
z
" transform="scale(0.015625)"/>
       <path id="DejaVuSans-64" d="M 2906 2969 
L 2906 4863 
L 3481 4863 
L 3481 0 
L 2906 0 
L 2906 525 
Q 2725 213 2448 61 
Q 2172 -91 1784 -91 
Q 1150 -91 751 415 
Q 353 922 353 1747 
Q 353 2572 751 3078 
Q 1150 3584 1784 3584 
Q 2172 3584 2448 3432 
Q 2725 3281 2906 2969 
z
M 947 1747 
Q 947 1113 1208 752 
Q 1469 391 1925 391 
Q 2381 391 2643 752 
Q 2906 1113 2906 1747 
Q 2906 2381 2643 2742 
Q 2381 3103 1925 3103 
Q 1469 3103 1208 2742 
Q 947 2381 947 1747 
z
" transform="scale(0.015625)"/>
       <path id="DejaVuSans-75" d="M 544 1381 
L 544 3500 
L 1119 3500 
L 1119 1403 
Q 1119 906 1312 657 
Q 1506 409 1894 409 
Q 2359 409 2629 706 
Q 2900 1003 2900 1516 
L 2900 3500 
L 3475 3500 
L 3475 0 
L 2900 0 
L 2900 538 
Q 2691 219 2414 64 
Q 2138 -91 1772 -91 
Q 1169 -91 856 284 
Q 544 659 544 1381 
z
M 1991 3584 
L 1991 3584 
z
" transform="scale(0.015625)"/>
      </defs>
      <use xlink:href="#DejaVuSans-54"/>
      <use xlink:href="#DejaVuSans-20" x="61.083984"/>
      <use xlink:href="#DejaVuSans-70" x="92.871094"/>
      <use xlink:href="#DejaVuSans-72" x="156.347656"/>
      <use xlink:href="#DejaVuSans-6f" x="195.210938"/>
      <use xlink:href="#DejaVuSans-64" x="256.392578"/>
      <use xlink:href="#DejaVuSans-75" x="319.869141"/>
      <use xlink:href="#DejaVuSans-63" x="383.248047"/>
      <use xlink:href="#DejaVuSans-65" x="438.228516"/>
      <use xlink:href="#DejaVuSans-64" x="499.751953"/>
      <use xlink:href="#DejaVuSans-20" x="563.228516"/>
      <use xlink:href="#DejaVuSans-5b" x="595.015625"/>
      <use xlink:href="#DejaVuSans-67" x="634.029297"/>
      <use xlink:href="#DejaVuSans-5d" x="697.505859"/>
     </g>
    </g>
   </g>
   <g id="line2d_22">
    <path d="M 73.832727 181.234252 
L 82.290661 169.605088 
L 90.097985 159.225607 
L 97.905309 149.207811 
L 105.712633 139.571898 
L 112.869346 131.091699 
L 120.026059 122.964916 
L 126.532163 115.896704 
L 133.038266 109.145115 
L 139.544369 102.721837 
L 145.399862 97.231254 
L 151.255354 92.024591 
L 157.110847 87.110368 
L 162.96634 82.497107 
L 168.821833 78.193328 
L 174.026715 74.634447 
L 179.231598 71.332811 
L 184.43648 68.294306 
L 189.641363 65.522046 
L 194.846245 63.016051 
L 200.051128 60.77618 
L 205.25601 58.802293 
L 210.460893 57.095503 
L 213.713944 56.21104 
L 216.966996 55.553086 
L 228.027371 53.730064 
L 231.280423 53.570542 
L 239.738357 53.64592 
L 242.991408 53.785595 
L 246.24446 54.177123 
L 249.497511 54.790454 
L 254.051784 55.89188 
L 259.256666 57.367389 
L 263.160328 58.670165 
L 267.06399 60.23063 
L 270.967652 62.062904 
L 274.871314 64.162142 
L 278.774975 66.523496 
L 282.678637 69.14212 
L 286.582299 72.013166 
L 290.485961 75.131788 
L 295.040233 79.081114 
L 298.943895 82.742033 
L 302.847557 86.667987 
L 306.751219 90.868895 
L 310.654881 95.354674 
L 314.558543 100.135241 
L 318.462204 105.220513 
L 323.016477 111.551675 
L 327.570749 118.326822 
L 332.125021 125.561702 
L 336.679293 133.272063 
L 341.233565 141.473654 
L 345.787837 150.182222 
L 350.34211 159.413517 
L 354.896382 169.183286 
L 359.450654 179.507277 
L 364.004926 190.40124 
L 368.559198 201.880922 
L 373.113471 213.962071 
L 377.667743 226.660436 
L 382.222015 239.991766 
L 386.776287 253.971808 
L 391.330559 268.61631 
L 395.884831 283.941022 
L 398.487273 293.00946 
L 398.487273 293.00946 
" clip-path="url(#pb04157bc88)" style="fill: none; stroke: #0000ff; stroke-width: 1.5; stroke-linecap: square"/>
   </g>
   <g id="line2d_23">
    <defs>
     <path id="m95c8d98494" d="M 0 1.5 
C 0.397805 1.5 0.77937 1.341951 1.06066 1.06066 
C 1.341951 0.77937 1.5 0.397805 1.5 0 
C 1.5 -0.397805 1.341951 -0.77937 1.06066 -1.06066 
C 0.77937 -1.341951 0.397805 -1.5 0 -1.5 
C -0.397805 -1.5 -0.77937 -1.341951 -1.06066 -1.06066 
C -1.341951 -0.77937 -1.5 -0.397805 -1.5 0 
C -1.5 0.397805 -1.341951 0.77937 -1.06066 1.06066 
C -0.77937 1.341951 -0.397805 1.5 0 1.5 
z
" style="stroke: #0000ff"/>
    </defs>
    <g clip-path="url(#pb04157bc88)">
     <use xlink:href="#m95c8d98494" x="73.832727" y="181.234252" style="fill: #0000ff; stroke: #0000ff"/>
     <use xlink:href="#m95c8d98494" x="127.941818" y="114.406588" style="fill: #0000ff; stroke: #0000ff"/>
     <use xlink:href="#m95c8d98494" x="182.050909" y="69.65395" style="fill: #0000ff; stroke: #0000ff"/>
     <use xlink:href="#m95c8d98494" x="209.105455" y="57.513458" style="fill: #0000ff; stroke: #0000ff"/>
     <use xlink:href="#m95c8d98494" x="214.516364" y="56.027504" style="fill: #0000ff; stroke: #0000ff"/>
     <use xlink:href="#m95c8d98494" x="219.927273" y="55.040264" style="fill: #0000ff; stroke: #0000ff"/>
     <use xlink:href="#m95c8d98494" x="225.338182" y="54.053136" style="fill: #0000ff; stroke: #0000ff"/>
     <use xlink:href="#m95c8d98494" x="230.749091" y="53.579103" style="fill: #0000ff; stroke: #0000ff"/>
     <use xlink:href="#m95c8d98494" x="236.16" y="53.636556" style="fill: #0000ff; stroke: #0000ff"/>
     <use xlink:href="#m95c8d98494" x="241.570909" y="53.694202" style="fill: #0000ff; stroke: #0000ff"/>
     <use xlink:href="#m95c8d98494" x="246.981818" y="54.298455" style="fill: #0000ff; stroke: #0000ff"/>
     <use xlink:href="#m95c8d98494" x="252.392727" y="55.468549" style="fill: #0000ff; stroke: #0000ff"/>
     <use xlink:href="#m95c8d98494" x="257.803636" y="56.93166" style="fill: #0000ff; stroke: #0000ff"/>
     <use xlink:href="#m95c8d98494" x="263.214545" y="58.689955" style="fill: #0000ff; stroke: #0000ff"/>
     <use xlink:href="#m95c8d98494" x="290.269091" y="74.952119" style="fill: #0000ff; stroke: #0000ff"/>
     <use xlink:href="#m95c8d98494" x="344.378182" y="147.431589" style="fill: #0000ff; stroke: #0000ff"/>
     <use xlink:href="#m95c8d98494" x="398.487273" y="293.00946" style="fill: #0000ff; stroke: #0000ff"/>
    </g>
   </g>
   <g id="line2d_24">
    <path d="M 73.832727 195.486027 
L 82.290661 184.044494 
L 90.748595 172.975766 
L 98.555919 163.111353 
L 106.363243 153.606249 
L 113.519956 145.225955 
L 120.67667 137.17978 
L 127.833383 129.483124 
L 134.339486 122.802425 
L 140.845589 116.434881 
L 147.351692 110.392064 
L 153.207185 105.240732 
L 159.062678 100.370235 
L 164.918171 95.789007 
L 170.773664 91.505484 
L 175.978546 87.954651 
L 181.183429 84.651629 
L 186.388311 81.601809 
L 191.593194 78.807022 
L 196.798076 76.267654 
L 202.002959 73.984084 
L 207.207841 71.956691 
L 211.762113 70.402087 
L 215.015165 69.494765 
L 220.870658 68.22392 
L 226.07554 67.122903 
L 229.328592 66.684939 
L 232.581643 66.485431 
L 242.991408 66.260582 
L 246.24446 66.504784 
L 249.497511 66.96275 
L 254.051784 67.840282 
L 259.256666 69.057676 
L 263.160328 70.163377 
L 267.06399 71.520024 
L 270.967652 73.141368 
L 274.871314 75.023037 
L 278.774975 77.160662 
L 282.678637 79.549871 
L 286.582299 82.186295 
L 290.485961 85.065563 
L 294.389623 88.186153 
L 298.293285 91.556184 
L 302.196947 95.18582 
L 306.100608 99.08522 
L 310.00427 103.264546 
L 313.907932 107.73396 
L 317.811594 112.503623 
L 321.715256 117.583696 
L 325.618918 122.984341 
L 329.52258 128.715719 
L 334.076852 135.833892 
L 338.631124 143.432195 
L 343.185396 151.526765 
L 347.739668 160.133738 
L 352.293941 169.269249 
L 356.848213 178.949433 
L 361.402485 189.190428 
L 365.956757 200.008368 
L 370.511029 211.419389 
L 375.065302 223.439628 
L 379.619574 236.085219 
L 384.173846 249.3723 
L 388.728118 263.317005 
L 393.28239 277.93547 
L 397.836662 293.243832 
L 398.487273 295.488 
L 398.487273 295.488 
" clip-path="url(#pb04157bc88)" style="fill: none; stroke: #0000ff; stroke-width: 1.5; stroke-linecap: square"/>
   </g>
   <g id="line2d_25">
    <g clip-path="url(#pb04157bc88)">
     <use xlink:href="#m95c8d98494" x="73.832727" y="195.486027" style="fill: #0000ff; stroke: #0000ff"/>
     <use xlink:href="#m95c8d98494" x="127.941818" y="129.369276" style="fill: #0000ff; stroke: #0000ff"/>
     <use xlink:href="#m95c8d98494" x="182.050909" y="84.125635" style="fill: #0000ff; stroke: #0000ff"/>
     <use xlink:href="#m95c8d98494" x="209.105455" y="71.281336" style="fill: #0000ff; stroke: #0000ff"/>
     <use xlink:href="#m95c8d98494" x="214.516364" y="69.618402" style="fill: #0000ff; stroke: #0000ff"/>
     <use xlink:href="#m95c8d98494" x="219.927273" y="68.432934" style="fill: #0000ff; stroke: #0000ff"/>
     <use xlink:href="#m95c8d98494" x="225.338182" y="67.25539" style="fill: #0000ff; stroke: #0000ff"/>
     <use xlink:href="#m95c8d98494" x="230.749091" y="66.570153" style="fill: #0000ff; stroke: #0000ff"/>
     <use xlink:href="#m95c8d98494" x="236.16" y="66.395835" style="fill: #0000ff; stroke: #0000ff"/>
     <use xlink:href="#m95c8d98494" x="241.570909" y="66.230364" style="fill: #0000ff; stroke: #0000ff"/>
     <use xlink:href="#m95c8d98494" x="246.981818" y="66.5915" style="fill: #0000ff; stroke: #0000ff"/>
     <use xlink:href="#m95c8d98494" x="252.392727" y="67.498808" style="fill: #0000ff; stroke: #0000ff"/>
     <use xlink:href="#m95c8d98494" x="257.803636" y="68.694271" style="fill: #0000ff; stroke: #0000ff"/>
     <use xlink:href="#m95c8d98494" x="263.214545" y="70.180387" style="fill: #0000ff; stroke: #0000ff"/>
     <use xlink:href="#m95c8d98494" x="290.269091" y="84.899307" style="fill: #0000ff; stroke: #0000ff"/>
     <use xlink:href="#m95c8d98494" x="344.378182" y="153.73079" style="fill: #0000ff; stroke: #0000ff"/>
     <use xlink:href="#m95c8d98494" x="398.487273" y="295.488" style="fill: #0000ff; stroke: #0000ff"/>
    </g>
   </g>
   <g id="patch_3">
    <path d="M 57.6 307.584 
L 57.6 41.472 
" style="fill: none; stroke: #000000; stroke-width: 0.8; stroke-linejoin: miter; stroke-linecap: square"/>
   </g>
   <g id="patch_4">
    <path d="M 414.72 307.584 
L 414.72 41.472 
" style="fill: none; stroke: #000000; stroke-width: 0.8; stroke-linejoin: miter; stroke-linecap: square"/>
   </g>
   <g id="patch_5">
    <path d="M 57.6 307.584 
L 414.72 307.584 
" style="fill: none; stroke: #000000; stroke-width: 0.8; stroke-linejoin: miter; stroke-linecap: square"/>
   </g>
   <g id="patch_6">
    <path d="M 57.6 41.472 
L 414.72 41.472 
" style="fill: none; stroke: #000000; stroke-width: 0.8; stroke-linejoin: miter; stroke-linecap: square"/>
   </g>
  </g>
  <g id="axes_2">
   <g id="matplotlib.axis_3">
    <g id="ytick_9">
     <g id="line2d_26">
      <defs>
       <path id="m9e5ba9f45e" d="M 0 0 
L 3.5 0 
" style="stroke: #000000; stroke-width: 0.8"/>
      </defs>
      <g>
       <use xlink:href="#m9e5ba9f45e" x="414.72" y="265.802862" style="stroke: #000000; stroke-width: 0.8"/>
      </g>
     </g>
     <g id="text_18">
      <!-- 4 -->
      <g style="fill: #ff0000" transform="translate(421.72 269.602081) scale(0.1 -0.1)">
       <use xlink:href="#DejaVuSans-34"/>
      </g>
     </g>
    </g>
    <g id="ytick_10">
     <g id="line2d_27">
      <g>
       <use xlink:href="#m9e5ba9f45e" x="414.72" y="210.316624" style="stroke: #000000; stroke-width: 0.8"/>
      </g>
     </g>
     <g id="text_19">
      <!-- 6 -->
      <g style="fill: #ff0000" transform="translate(421.72 214.115843) scale(0.1 -0.1)">
       <use xlink:href="#DejaVuSans-36"/>
      </g>
     </g>
    </g>
    <g id="ytick_11">
     <g id="line2d_28">
      <g>
       <use xlink:href="#m9e5ba9f45e" x="414.72" y="154.830385" style="stroke: #000000; stroke-width: 0.8"/>
      </g>
     </g>
     <g id="text_20">
      <!-- 8 -->
      <g style="fill: #ff0000" transform="translate(421.72 158.629604) scale(0.1 -0.1)">
       <use xlink:href="#DejaVuSans-38"/>
      </g>
     </g>
    </g>
    <g id="ytick_12">
     <g id="line2d_29">
      <g>
       <use xlink:href="#m9e5ba9f45e" x="414.72" y="99.344147" style="stroke: #000000; stroke-width: 0.8"/>
      </g>
     </g>
     <g id="text_21">
      <!-- 10 -->
      <g style="fill: #ff0000" transform="translate(421.72 103.143366) scale(0.1 -0.1)">
       <use xlink:href="#DejaVuSans-31"/>
       <use xlink:href="#DejaVuSans-30" x="63.623047"/>
      </g>
     </g>
    </g>
    <g id="ytick_13">
     <g id="line2d_30">
      <g>
       <use xlink:href="#m9e5ba9f45e" x="414.72" y="43.857908" style="stroke: #000000; stroke-width: 0.8"/>
      </g>
     </g>
     <g id="text_22">
      <!-- 12 -->
      <g style="fill: #ff0000" transform="translate(421.72 47.657127) scale(0.1 -0.1)">
       <use xlink:href="#DejaVuSans-31"/>
       <use xlink:href="#DejaVuSans-32" x="63.623047"/>
      </g>
     </g>
    </g>
    <g id="text_23">
     <!-- Cycle burnup [MWd/kgU] -->
     <g style="fill: #ff0000" transform="translate(446.043438 236.941281) rotate(-90) scale(0.1 -0.1)">
      <defs>
       <path id="DejaVuSans-43" d="M 4122 4306 
L 4122 3641 
Q 3803 3938 3442 4084 
Q 3081 4231 2675 4231 
Q 1875 4231 1450 3742 
Q 1025 3253 1025 2328 
Q 1025 1406 1450 917 
Q 1875 428 2675 428 
Q 3081 428 3442 575 
Q 3803 722 4122 1019 
L 4122 359 
Q 3791 134 3420 21 
Q 3050 -91 2638 -91 
Q 1578 -91 968 557 
Q 359 1206 359 2328 
Q 359 3453 968 4101 
Q 1578 4750 2638 4750 
Q 3056 4750 3426 4639 
Q 3797 4528 4122 4306 
z
" transform="scale(0.015625)"/>
       <path id="DejaVuSans-79" d="M 2059 -325 
Q 1816 -950 1584 -1140 
Q 1353 -1331 966 -1331 
L 506 -1331 
L 506 -850 
L 844 -850 
Q 1081 -850 1212 -737 
Q 1344 -625 1503 -206 
L 1606 56 
L 191 3500 
L 800 3500 
L 1894 763 
L 2988 3500 
L 3597 3500 
L 2059 -325 
z
" transform="scale(0.015625)"/>
       <path id="DejaVuSans-62" d="M 3116 1747 
Q 3116 2381 2855 2742 
Q 2594 3103 2138 3103 
Q 1681 3103 1420 2742 
Q 1159 2381 1159 1747 
Q 1159 1113 1420 752 
Q 1681 391 2138 391 
Q 2594 391 2855 752 
Q 3116 1113 3116 1747 
z
M 1159 2969 
Q 1341 3281 1617 3432 
Q 1894 3584 2278 3584 
Q 2916 3584 3314 3078 
Q 3713 2572 3713 1747 
Q 3713 922 3314 415 
Q 2916 -91 2278 -91 
Q 1894 -91 1617 61 
Q 1341 213 1159 525 
L 1159 0 
L 581 0 
L 581 4863 
L 1159 4863 
L 1159 2969 
z
" transform="scale(0.015625)"/>
       <path id="DejaVuSans-4d" d="M 628 4666 
L 1569 4666 
L 2759 1491 
L 3956 4666 
L 4897 4666 
L 4897 0 
L 4281 0 
L 4281 4097 
L 3078 897 
L 2444 897 
L 1241 4097 
L 1241 0 
L 628 0 
L 628 4666 
z
" transform="scale(0.015625)"/>
       <path id="DejaVuSans-57" d="M 213 4666 
L 850 4666 
L 1831 722 
L 2809 4666 
L 3519 4666 
L 4500 722 
L 5478 4666 
L 6119 4666 
L 4947 0 
L 4153 0 
L 3169 4050 
L 2175 0 
L 1381 0 
L 213 4666 
z
" transform="scale(0.015625)"/>
      </defs>
      <use xlink:href="#DejaVuSans-43"/>
      <use xlink:href="#DejaVuSans-79" x="69.824219"/>
      <use xlink:href="#DejaVuSans-63" x="129.003906"/>
      <use xlink:href="#DejaVuSans-6c" x="183.984375"/>
      <use xlink:href="#DejaVuSans-65" x="211.767578"/>
      <use xlink:href="#DejaVuSans-20" x="273.291016"/>
      <use xlink:href="#DejaVuSans-62" x="305.078125"/>
      <use xlink:href="#DejaVuSans-75" x="368.554688"/>
      <use xlink:href="#DejaVuSans-72" x="431.933594"/>
      <use xlink:href="#DejaVuSans-6e" x="471.296875"/>
      <use xlink:href="#DejaVuSans-75" x="534.675781"/>
      <use xlink:href="#DejaVuSans-70" x="598.054688"/>
      <use xlink:href="#DejaVuSans-20" x="661.53125"/>
      <use xlink:href="#DejaVuSans-5b" x="693.318359"/>
      <use xlink:href="#DejaVuSans-4d" x="732.332031"/>
      <use xlink:href="#DejaVuSans-57" x="818.611328"/>
      <use xlink:href="#DejaVuSans-64" x="917.488281"/>
      <use xlink:href="#DejaVuSans-2f" x="980.964844"/>
      <use xlink:href="#DejaVuSans-6b" x="1014.65625"/>
      <use xlink:href="#DejaVuSans-67" x="1072.566406"/>
      <use xlink:href="#DejaVuSans-55" x="1136.042969"/>
      <use xlink:href="#DejaVuSans-5d" x="1209.236328"/>
     </g>
    </g>
   </g>
   <g id="line2d_31">
    <path d="M 73.832727 53.568 
L 93.351037 63.546723 
L 110.917515 72.780325 
L 127.182773 81.587018 
L 142.14681 89.941316 
L 156.460237 98.186804 
L 170.123053 106.313915 
L 183.13526 114.307972 
L 196.798076 122.972192 
L 211.762113 132.72266 
L 218.268216 137.181918 
L 224.77432 141.552884 
L 230.629812 145.590086 
L 254.702394 162.931623 
L 270.317041 174.664063 
L 280.076196 182.344243 
L 291.136571 191.333162 
L 302.847557 201.119967 
L 313.907932 210.635198 
L 324.968308 220.446714 
L 335.378073 229.979774 
L 345.137227 239.203776 
L 354.896382 248.72727 
L 364.655537 258.571763 
L 373.764081 268.068542 
L 382.872625 277.881166 
L 391.98117 288.027122 
L 398.487273 295.488 
L 398.487273 295.488 
" clip-path="url(#pb04157bc88)" style="fill: none; stroke: #ff0000; stroke-width: 1.5; stroke-linecap: square"/>
   </g>
   <g id="line2d_32">
    <defs>
     <path id="m082449a05d" d="M 0 1.5 
C 0.397805 1.5 0.77937 1.341951 1.06066 1.06066 
C 1.341951 0.77937 1.5 0.397805 1.5 0 
C 1.5 -0.397805 1.341951 -0.77937 1.06066 -1.06066 
C 0.77937 -1.341951 0.397805 -1.5 0 -1.5 
C -0.397805 -1.5 -0.77937 -1.341951 -1.06066 -1.06066 
C -1.341951 -0.77937 -1.5 -0.397805 -1.5 0 
C -1.5 0.397805 -1.341951 0.77937 -1.06066 1.06066 
C -0.77937 1.341951 -0.397805 1.5 0 1.5 
z
" style="stroke: #ff0000"/>
    </defs>
    <g clip-path="url(#pb04157bc88)">
     <use xlink:href="#m082449a05d" x="73.832727" y="53.568" style="fill: #ff0000; stroke: #ff0000"/>
     <use xlink:href="#m082449a05d" x="127.941818" y="82.004697" style="fill: #ff0000; stroke: #ff0000"/>
     <use xlink:href="#m082449a05d" x="182.050909" y="113.631853" style="fill: #ff0000; stroke: #ff0000"/>
     <use xlink:href="#m082449a05d" x="209.105455" y="130.971303" style="fill: #ff0000; stroke: #ff0000"/>
     <use xlink:href="#m082449a05d" x="214.516364" y="134.577908" style="fill: #ff0000; stroke: #ff0000"/>
     <use xlink:href="#m082449a05d" x="219.927273" y="138.323229" style="fill: #ff0000; stroke: #ff0000"/>
     <use xlink:href="#m082449a05d" x="225.338182" y="141.929835" style="fill: #ff0000; stroke: #ff0000"/>
     <use xlink:href="#m082449a05d" x="230.749091" y="145.675156" style="fill: #ff0000; stroke: #ff0000"/>
     <use xlink:href="#m082449a05d" x="236.16" y="149.559193" style="fill: #ff0000; stroke: #ff0000"/>
     <use xlink:href="#m082449a05d" x="241.570909" y="153.304514" style="fill: #ff0000; stroke: #ff0000"/>
     <use xlink:href="#m082449a05d" x="246.981818" y="157.18855" style="fill: #ff0000; stroke: #ff0000"/>
     <use xlink:href="#m082449a05d" x="252.392727" y="161.211303" style="fill: #ff0000; stroke: #ff0000"/>
     <use xlink:href="#m082449a05d" x="257.803636" y="165.234055" style="fill: #ff0000; stroke: #ff0000"/>
     <use xlink:href="#m082449a05d" x="263.214545" y="169.256807" style="fill: #ff0000; stroke: #ff0000"/>
     <use xlink:href="#m082449a05d" x="290.269091" y="190.619009" style="fill: #ff0000; stroke: #ff0000"/>
     <use xlink:href="#m082449a05d" x="344.378182" y="238.47589" style="fill: #ff0000; stroke: #ff0000"/>
     <use xlink:href="#m082449a05d" x="398.487273" y="295.488" style="fill: #ff0000; stroke: #ff0000"/>
    </g>
   </g>
   <g id="patch_7">
    <path d="M 57.6 307.584 
L 57.6 41.472 
" style="fill: none; stroke: #000000; stroke-width: 0.8; stroke-linejoin: miter; stroke-linecap: square"/>
   </g>
   <g id="patch_8">
    <path d="M 414.72 307.584 
L 414.72 41.472 
" style="fill: none; stroke: #000000; stroke-width: 0.8; stroke-linejoin: miter; stroke-linecap: square"/>
   </g>
   <g id="patch_9">
    <path d="M 57.6 307.584 
L 414.72 307.584 
" style="fill: none; stroke: #000000; stroke-width: 0.8; stroke-linejoin: miter; stroke-linecap: square"/>
   </g>
   <g id="patch_10">
    <path d="M 57.6 41.472 
L 414.72 41.472 
" style="fill: none; stroke: #000000; stroke-width: 0.8; stroke-linejoin: miter; stroke-linecap: square"/>
   </g>
  </g>
 </g>
 <defs>
  <clipPath id="pb04157bc88">
   <rect x="57.6" y="41.472" width="357.12" height="266.112"/>
  </clipPath>
 </defs>
</svg>
